%TF.GenerationSoftware,KiCad,Pcbnew,6.0.11+dfsg-1*%
%TF.CreationDate,2025-03-20T10:50:33-04:00*%
%TF.ProjectId,battery-board,62617474-6572-4792-9d62-6f6172642e6b,rev?*%
%TF.SameCoordinates,Original*%
%TF.FileFunction,Drillmap*%
%TF.FilePolarity,Positive*%
%FSLAX45Y45*%
G04 Gerber Fmt 4.5, Leading zero omitted, Abs format (unit mm)*
G04 Created by KiCad (PCBNEW 6.0.11+dfsg-1) date 2025-03-20 10:50:33*
%MOMM*%
%LPD*%
G01*
G04 APERTURE LIST*
%ADD10C,0.100000*%
%ADD11C,0.200000*%
%ADD12C,0.320000*%
G04 APERTURE END LIST*
D10*
X4090400Y-5130800D02*
X12573000Y-5130800D01*
X12573000Y-5130800D02*
X12573000Y-15130800D01*
X12573000Y-15130800D02*
X4090400Y-15130800D01*
X4090400Y-15130800D02*
X4090400Y-5130800D01*
D11*
D12*
X4310400Y-14597400D02*
X4630400Y-14917400D01*
X4630400Y-14597400D02*
X4310400Y-14917400D01*
X6317000Y-5351800D02*
X6637000Y-5671800D01*
X6637000Y-5351800D02*
X6317000Y-5671800D01*
X12032000Y-5351800D02*
X12352000Y-5671800D01*
X12352000Y-5351800D02*
X12032000Y-5671800D01*
X12032000Y-14597400D02*
X12352000Y-14917400D01*
X12352000Y-14597400D02*
X12032000Y-14917400D01*
D11*
X4343019Y-15446276D02*
X4343019Y-15246276D01*
X4390638Y-15246276D01*
X4419210Y-15255800D01*
X4438257Y-15274848D01*
X4447781Y-15293895D01*
X4457305Y-15331990D01*
X4457305Y-15360562D01*
X4447781Y-15398657D01*
X4438257Y-15417705D01*
X4419210Y-15436752D01*
X4390638Y-15446276D01*
X4343019Y-15446276D01*
X4543019Y-15446276D02*
X4543019Y-15312943D01*
X4543019Y-15351038D02*
X4552543Y-15331990D01*
X4562067Y-15322467D01*
X4581114Y-15312943D01*
X4600162Y-15312943D01*
X4666829Y-15446276D02*
X4666829Y-15312943D01*
X4666829Y-15246276D02*
X4657305Y-15255800D01*
X4666829Y-15265324D01*
X4676352Y-15255800D01*
X4666829Y-15246276D01*
X4666829Y-15265324D01*
X4790638Y-15446276D02*
X4771590Y-15436752D01*
X4762067Y-15417705D01*
X4762067Y-15246276D01*
X4895400Y-15446276D02*
X4876352Y-15436752D01*
X4866829Y-15417705D01*
X4866829Y-15246276D01*
X5123971Y-15446276D02*
X5123971Y-15246276D01*
X5190638Y-15389133D01*
X5257305Y-15246276D01*
X5257305Y-15446276D01*
X5438257Y-15446276D02*
X5438257Y-15341514D01*
X5428733Y-15322467D01*
X5409686Y-15312943D01*
X5371590Y-15312943D01*
X5352543Y-15322467D01*
X5438257Y-15436752D02*
X5419210Y-15446276D01*
X5371590Y-15446276D01*
X5352543Y-15436752D01*
X5343019Y-15417705D01*
X5343019Y-15398657D01*
X5352543Y-15379609D01*
X5371590Y-15370086D01*
X5419210Y-15370086D01*
X5438257Y-15360562D01*
X5533495Y-15312943D02*
X5533495Y-15512943D01*
X5533495Y-15322467D02*
X5552543Y-15312943D01*
X5590638Y-15312943D01*
X5609686Y-15322467D01*
X5619209Y-15331990D01*
X5628733Y-15351038D01*
X5628733Y-15408181D01*
X5619209Y-15427228D01*
X5609686Y-15436752D01*
X5590638Y-15446276D01*
X5552543Y-15446276D01*
X5533495Y-15436752D01*
X5714448Y-15427228D02*
X5723971Y-15436752D01*
X5714448Y-15446276D01*
X5704924Y-15436752D01*
X5714448Y-15427228D01*
X5714448Y-15446276D01*
X5714448Y-15322467D02*
X5723971Y-15331990D01*
X5714448Y-15341514D01*
X5704924Y-15331990D01*
X5714448Y-15322467D01*
X5714448Y-15341514D01*
X3885400Y-15675800D02*
X4085400Y-15875800D01*
X4085400Y-15675800D02*
X3885400Y-15875800D01*
X4323971Y-15666276D02*
X4447781Y-15666276D01*
X4381114Y-15742467D01*
X4409686Y-15742467D01*
X4428733Y-15751990D01*
X4438257Y-15761514D01*
X4447781Y-15780562D01*
X4447781Y-15828181D01*
X4438257Y-15847228D01*
X4428733Y-15856752D01*
X4409686Y-15866276D01*
X4352543Y-15866276D01*
X4333495Y-15856752D01*
X4323971Y-15847228D01*
X4533495Y-15847228D02*
X4543019Y-15856752D01*
X4533495Y-15866276D01*
X4523971Y-15856752D01*
X4533495Y-15847228D01*
X4533495Y-15866276D01*
X4619210Y-15685324D02*
X4628733Y-15675800D01*
X4647781Y-15666276D01*
X4695400Y-15666276D01*
X4714448Y-15675800D01*
X4723971Y-15685324D01*
X4733495Y-15704371D01*
X4733495Y-15723419D01*
X4723971Y-15751990D01*
X4609686Y-15866276D01*
X4733495Y-15866276D01*
X4857305Y-15666276D02*
X4876352Y-15666276D01*
X4895400Y-15675800D01*
X4904924Y-15685324D01*
X4914448Y-15704371D01*
X4923971Y-15742467D01*
X4923971Y-15790086D01*
X4914448Y-15828181D01*
X4904924Y-15847228D01*
X4895400Y-15856752D01*
X4876352Y-15866276D01*
X4857305Y-15866276D01*
X4838257Y-15856752D01*
X4828733Y-15847228D01*
X4819210Y-15828181D01*
X4809686Y-15790086D01*
X4809686Y-15742467D01*
X4819210Y-15704371D01*
X4828733Y-15685324D01*
X4838257Y-15675800D01*
X4857305Y-15666276D01*
X5047781Y-15666276D02*
X5066829Y-15666276D01*
X5085876Y-15675800D01*
X5095400Y-15685324D01*
X5104924Y-15704371D01*
X5114448Y-15742467D01*
X5114448Y-15790086D01*
X5104924Y-15828181D01*
X5095400Y-15847228D01*
X5085876Y-15856752D01*
X5066829Y-15866276D01*
X5047781Y-15866276D01*
X5028733Y-15856752D01*
X5019210Y-15847228D01*
X5009686Y-15828181D01*
X5000162Y-15790086D01*
X5000162Y-15742467D01*
X5009686Y-15704371D01*
X5019210Y-15685324D01*
X5028733Y-15675800D01*
X5047781Y-15666276D01*
X5200162Y-15866276D02*
X5200162Y-15732943D01*
X5200162Y-15751990D02*
X5209686Y-15742467D01*
X5228733Y-15732943D01*
X5257305Y-15732943D01*
X5276352Y-15742467D01*
X5285876Y-15761514D01*
X5285876Y-15866276D01*
X5285876Y-15761514D02*
X5295400Y-15742467D01*
X5314448Y-15732943D01*
X5343019Y-15732943D01*
X5362067Y-15742467D01*
X5371590Y-15761514D01*
X5371590Y-15866276D01*
X5466829Y-15866276D02*
X5466829Y-15732943D01*
X5466829Y-15751990D02*
X5476352Y-15742467D01*
X5495400Y-15732943D01*
X5523971Y-15732943D01*
X5543019Y-15742467D01*
X5552543Y-15761514D01*
X5552543Y-15866276D01*
X5552543Y-15761514D02*
X5562067Y-15742467D01*
X5581114Y-15732943D01*
X5609686Y-15732943D01*
X5628733Y-15742467D01*
X5638257Y-15761514D01*
X5638257Y-15866276D01*
X6028733Y-15656752D02*
X5857305Y-15913895D01*
X6285876Y-15666276D02*
X6304924Y-15666276D01*
X6323971Y-15675800D01*
X6333495Y-15685324D01*
X6343019Y-15704371D01*
X6352543Y-15742467D01*
X6352543Y-15790086D01*
X6343019Y-15828181D01*
X6333495Y-15847228D01*
X6323971Y-15856752D01*
X6304924Y-15866276D01*
X6285876Y-15866276D01*
X6266828Y-15856752D01*
X6257305Y-15847228D01*
X6247781Y-15828181D01*
X6238257Y-15790086D01*
X6238257Y-15742467D01*
X6247781Y-15704371D01*
X6257305Y-15685324D01*
X6266828Y-15675800D01*
X6285876Y-15666276D01*
X6438257Y-15847228D02*
X6447781Y-15856752D01*
X6438257Y-15866276D01*
X6428733Y-15856752D01*
X6438257Y-15847228D01*
X6438257Y-15866276D01*
X6638257Y-15866276D02*
X6523971Y-15866276D01*
X6581114Y-15866276D02*
X6581114Y-15666276D01*
X6562067Y-15694848D01*
X6543019Y-15713895D01*
X6523971Y-15723419D01*
X6714448Y-15685324D02*
X6723971Y-15675800D01*
X6743019Y-15666276D01*
X6790638Y-15666276D01*
X6809686Y-15675800D01*
X6819209Y-15685324D01*
X6828733Y-15704371D01*
X6828733Y-15723419D01*
X6819209Y-15751990D01*
X6704924Y-15866276D01*
X6828733Y-15866276D01*
X7000162Y-15666276D02*
X6962067Y-15666276D01*
X6943019Y-15675800D01*
X6933495Y-15685324D01*
X6914448Y-15713895D01*
X6904924Y-15751990D01*
X6904924Y-15828181D01*
X6914448Y-15847228D01*
X6923971Y-15856752D01*
X6943019Y-15866276D01*
X6981114Y-15866276D01*
X7000162Y-15856752D01*
X7009686Y-15847228D01*
X7019209Y-15828181D01*
X7019209Y-15780562D01*
X7009686Y-15761514D01*
X7000162Y-15751990D01*
X6981114Y-15742467D01*
X6943019Y-15742467D01*
X6923971Y-15751990D01*
X6914448Y-15761514D01*
X6904924Y-15780562D01*
X7143019Y-15666276D02*
X7162067Y-15666276D01*
X7181114Y-15675800D01*
X7190638Y-15685324D01*
X7200162Y-15704371D01*
X7209686Y-15742467D01*
X7209686Y-15790086D01*
X7200162Y-15828181D01*
X7190638Y-15847228D01*
X7181114Y-15856752D01*
X7162067Y-15866276D01*
X7143019Y-15866276D01*
X7123971Y-15856752D01*
X7114448Y-15847228D01*
X7104924Y-15828181D01*
X7095400Y-15790086D01*
X7095400Y-15742467D01*
X7104924Y-15704371D01*
X7114448Y-15685324D01*
X7123971Y-15675800D01*
X7143019Y-15666276D01*
X7285876Y-15666276D02*
X7285876Y-15704371D01*
X7362067Y-15666276D02*
X7362067Y-15704371D01*
X7657305Y-15942467D02*
X7647781Y-15932943D01*
X7628733Y-15904371D01*
X7619209Y-15885324D01*
X7609686Y-15856752D01*
X7600162Y-15809133D01*
X7600162Y-15771038D01*
X7609686Y-15723419D01*
X7619209Y-15694848D01*
X7628733Y-15675800D01*
X7647781Y-15647228D01*
X7657305Y-15637705D01*
X7819209Y-15732943D02*
X7819209Y-15866276D01*
X7771590Y-15656752D02*
X7723971Y-15799609D01*
X7847781Y-15799609D01*
X8076352Y-15866276D02*
X8076352Y-15666276D01*
X8162067Y-15866276D02*
X8162067Y-15761514D01*
X8152543Y-15742467D01*
X8133495Y-15732943D01*
X8104924Y-15732943D01*
X8085876Y-15742467D01*
X8076352Y-15751990D01*
X8285876Y-15866276D02*
X8266828Y-15856752D01*
X8257305Y-15847228D01*
X8247781Y-15828181D01*
X8247781Y-15771038D01*
X8257305Y-15751990D01*
X8266828Y-15742467D01*
X8285876Y-15732943D01*
X8314448Y-15732943D01*
X8333495Y-15742467D01*
X8343019Y-15751990D01*
X8352543Y-15771038D01*
X8352543Y-15828181D01*
X8343019Y-15847228D01*
X8333495Y-15856752D01*
X8314448Y-15866276D01*
X8285876Y-15866276D01*
X8466829Y-15866276D02*
X8447781Y-15856752D01*
X8438257Y-15837705D01*
X8438257Y-15666276D01*
X8619210Y-15856752D02*
X8600162Y-15866276D01*
X8562067Y-15866276D01*
X8543019Y-15856752D01*
X8533495Y-15837705D01*
X8533495Y-15761514D01*
X8543019Y-15742467D01*
X8562067Y-15732943D01*
X8600162Y-15732943D01*
X8619210Y-15742467D01*
X8628733Y-15761514D01*
X8628733Y-15780562D01*
X8533495Y-15799609D01*
X8704924Y-15856752D02*
X8723971Y-15866276D01*
X8762067Y-15866276D01*
X8781114Y-15856752D01*
X8790638Y-15837705D01*
X8790638Y-15828181D01*
X8781114Y-15809133D01*
X8762067Y-15799609D01*
X8733495Y-15799609D01*
X8714448Y-15790086D01*
X8704924Y-15771038D01*
X8704924Y-15761514D01*
X8714448Y-15742467D01*
X8733495Y-15732943D01*
X8762067Y-15732943D01*
X8781114Y-15742467D01*
X8857305Y-15942467D02*
X8866829Y-15932943D01*
X8885876Y-15904371D01*
X8895400Y-15885324D01*
X8904924Y-15856752D01*
X8914448Y-15809133D01*
X8914448Y-15771038D01*
X8904924Y-15723419D01*
X8895400Y-15694848D01*
X8885876Y-15675800D01*
X8866829Y-15647228D01*
X8857305Y-15637705D01*
X9219210Y-15942467D02*
X9209686Y-15932943D01*
X9190638Y-15904371D01*
X9181114Y-15885324D01*
X9171590Y-15856752D01*
X9162067Y-15809133D01*
X9162067Y-15771038D01*
X9171590Y-15723419D01*
X9181114Y-15694848D01*
X9190638Y-15675800D01*
X9209686Y-15647228D01*
X9219210Y-15637705D01*
X9295400Y-15732943D02*
X9295400Y-15866276D01*
X9295400Y-15751990D02*
X9304924Y-15742467D01*
X9323971Y-15732943D01*
X9352543Y-15732943D01*
X9371590Y-15742467D01*
X9381114Y-15761514D01*
X9381114Y-15866276D01*
X9504924Y-15866276D02*
X9485876Y-15856752D01*
X9476352Y-15847228D01*
X9466829Y-15828181D01*
X9466829Y-15771038D01*
X9476352Y-15751990D01*
X9485876Y-15742467D01*
X9504924Y-15732943D01*
X9533495Y-15732943D01*
X9552543Y-15742467D01*
X9562067Y-15751990D01*
X9571590Y-15771038D01*
X9571590Y-15828181D01*
X9562067Y-15847228D01*
X9552543Y-15856752D01*
X9533495Y-15866276D01*
X9504924Y-15866276D01*
X9628733Y-15732943D02*
X9704924Y-15732943D01*
X9657305Y-15666276D02*
X9657305Y-15837705D01*
X9666829Y-15856752D01*
X9685876Y-15866276D01*
X9704924Y-15866276D01*
X9923971Y-15732943D02*
X9923971Y-15932943D01*
X9923971Y-15742467D02*
X9943019Y-15732943D01*
X9981114Y-15732943D01*
X10000162Y-15742467D01*
X10009686Y-15751990D01*
X10019210Y-15771038D01*
X10019210Y-15828181D01*
X10009686Y-15847228D01*
X10000162Y-15856752D01*
X9981114Y-15866276D01*
X9943019Y-15866276D01*
X9923971Y-15856752D01*
X10133495Y-15866276D02*
X10114448Y-15856752D01*
X10104924Y-15837705D01*
X10104924Y-15666276D01*
X10295400Y-15866276D02*
X10295400Y-15761514D01*
X10285876Y-15742467D01*
X10266829Y-15732943D01*
X10228733Y-15732943D01*
X10209686Y-15742467D01*
X10295400Y-15856752D02*
X10276352Y-15866276D01*
X10228733Y-15866276D01*
X10209686Y-15856752D01*
X10200162Y-15837705D01*
X10200162Y-15818657D01*
X10209686Y-15799609D01*
X10228733Y-15790086D01*
X10276352Y-15790086D01*
X10295400Y-15780562D01*
X10362067Y-15732943D02*
X10438257Y-15732943D01*
X10390638Y-15666276D02*
X10390638Y-15837705D01*
X10400162Y-15856752D01*
X10419210Y-15866276D01*
X10438257Y-15866276D01*
X10581114Y-15856752D02*
X10562067Y-15866276D01*
X10523971Y-15866276D01*
X10504924Y-15856752D01*
X10495400Y-15837705D01*
X10495400Y-15761514D01*
X10504924Y-15742467D01*
X10523971Y-15732943D01*
X10562067Y-15732943D01*
X10581114Y-15742467D01*
X10590638Y-15761514D01*
X10590638Y-15780562D01*
X10495400Y-15799609D01*
X10762067Y-15866276D02*
X10762067Y-15666276D01*
X10762067Y-15856752D02*
X10743019Y-15866276D01*
X10704924Y-15866276D01*
X10685876Y-15856752D01*
X10676352Y-15847228D01*
X10666829Y-15828181D01*
X10666829Y-15771038D01*
X10676352Y-15751990D01*
X10685876Y-15742467D01*
X10704924Y-15732943D01*
X10743019Y-15732943D01*
X10762067Y-15742467D01*
X10838257Y-15942467D02*
X10847781Y-15932943D01*
X10866829Y-15904371D01*
X10876352Y-15885324D01*
X10885876Y-15856752D01*
X10895400Y-15809133D01*
X10895400Y-15771038D01*
X10885876Y-15723419D01*
X10876352Y-15694848D01*
X10866829Y-15675800D01*
X10847781Y-15647228D01*
X10838257Y-15637705D01*
M02*
