%TF.GenerationSoftware,KiCad,Pcbnew,6.0.11+dfsg-1*%
%TF.CreationDate,2025-03-20T10:49:10-04:00*%
%TF.ProjectId,battery-board,62617474-6572-4792-9d62-6f6172642e6b,rev?*%
%TF.SameCoordinates,Original*%
%TF.FileFunction,Soldermask,Bot*%
%TF.FilePolarity,Negative*%
%FSLAX46Y46*%
G04 Gerber Fmt 4.6, Leading zero omitted, Abs format (unit mm)*
G04 Created by KiCad (PCBNEW 6.0.11+dfsg-1) date 2025-03-20 10:49:10*
%MOMM*%
%LPD*%
G01*
G04 APERTURE LIST*
G04 Aperture macros list*
%AMRoundRect*
0 Rectangle with rounded corners*
0 $1 Rounding radius*
0 $2 $3 $4 $5 $6 $7 $8 $9 X,Y pos of 4 corners*
0 Add a 4 corners polygon primitive as box body*
4,1,4,$2,$3,$4,$5,$6,$7,$8,$9,$2,$3,0*
0 Add four circle primitives for the rounded corners*
1,1,$1+$1,$2,$3*
1,1,$1+$1,$4,$5*
1,1,$1+$1,$6,$7*
1,1,$1+$1,$8,$9*
0 Add four rect primitives between the rounded corners*
20,1,$1+$1,$2,$3,$4,$5,0*
20,1,$1+$1,$4,$5,$6,$7,0*
20,1,$1+$1,$6,$7,$8,$9,0*
20,1,$1+$1,$8,$9,$2,$3,0*%
G04 Aperture macros list end*
%ADD10RoundRect,0.100000X-0.425000X-0.425000X0.425000X-0.425000X0.425000X0.425000X-0.425000X0.425000X0*%
%ADD11C,3.298800*%
%ADD12RoundRect,1.600000X-1.500000X-1.500000X1.500000X-1.500000X1.500000X1.500000X-1.500000X1.500000X0*%
%ADD13C,6.200000*%
%ADD14C,3.400000*%
%ADD15RoundRect,0.350000X-0.725000X0.600000X-0.725000X-0.600000X0.725000X-0.600000X0.725000X0.600000X0*%
%ADD16O,2.150000X1.900000*%
%ADD17RoundRect,0.350000X-0.750000X0.600000X-0.750000X-0.600000X0.750000X-0.600000X0.750000X0.600000X0*%
%ADD18O,2.200000X1.900000*%
%ADD19RoundRect,0.100000X0.550000X0.550000X-0.550000X0.550000X-0.550000X-0.550000X0.550000X-0.550000X0*%
%ADD20C,1.300000*%
%ADD21O,1.300000X2.600000*%
%ADD22RoundRect,0.100000X-0.850000X-0.850000X0.850000X-0.850000X0.850000X0.850000X-0.850000X0.850000X0*%
%ADD23O,1.900000X1.900000*%
%ADD24RoundRect,0.100000X0.425000X0.425000X-0.425000X0.425000X-0.425000X-0.425000X0.425000X-0.425000X0*%
%ADD25RoundRect,0.100000X-0.500000X0.500000X-0.500000X-0.500000X0.500000X-0.500000X0.500000X0.500000X0*%
%ADD26RoundRect,0.100000X0.500000X-0.500000X0.500000X0.500000X-0.500000X0.500000X-0.500000X-0.500000X0*%
%ADD27RoundRect,0.100000X-1.100000X-0.600000X1.100000X-0.600000X1.100000X0.600000X-1.100000X0.600000X0*%
%ADD28RoundRect,0.100000X-3.200000X-2.900000X3.200000X-2.900000X3.200000X2.900000X-3.200000X2.900000X0*%
%ADD29RoundRect,0.100000X1.100000X0.600000X-1.100000X0.600000X-1.100000X-0.600000X1.100000X-0.600000X0*%
%ADD30RoundRect,0.100000X3.200000X2.900000X-3.200000X2.900000X-3.200000X-2.900000X3.200000X-2.900000X0*%
%ADD31RoundRect,0.100000X0.500000X0.500000X-0.500000X0.500000X-0.500000X-0.500000X0.500000X-0.500000X0*%
%ADD32RoundRect,0.350000X-0.350000X-0.450000X0.350000X-0.450000X0.350000X0.450000X-0.350000X0.450000X0*%
%ADD33RoundRect,0.100000X1.150000X-1.750000X1.150000X1.750000X-1.150000X1.750000X-1.150000X-1.750000X0*%
%ADD34RoundRect,0.350000X-0.362500X-1.425000X0.362500X-1.425000X0.362500X1.425000X-0.362500X1.425000X0*%
%ADD35RoundRect,0.100000X1.250000X1.150000X-1.250000X1.150000X-1.250000X-1.150000X1.250000X-1.150000X0*%
%ADD36RoundRect,0.350000X0.350000X0.450000X-0.350000X0.450000X-0.350000X-0.450000X0.350000X-0.450000X0*%
G04 APERTURE END LIST*
D10*
%TO.C,TP3*%
X98552000Y-94742000D03*
%TD*%
D11*
%TO.C,F7*%
X70523100Y-112458500D03*
X75603100Y-112458500D03*
X66459100Y-112458500D03*
X61379100Y-112458500D03*
%TD*%
D10*
%TO.C,TP7*%
X93472000Y-121920000D03*
%TD*%
D11*
%TO.C,F5*%
X75603100Y-93472000D03*
X70523100Y-93472000D03*
X61379100Y-93472000D03*
X66459100Y-93472000D03*
%TD*%
D12*
%TO.C,J18*%
X45930000Y-104394000D03*
D13*
X53130000Y-104394000D03*
%TD*%
D12*
%TO.C,J14*%
X45930000Y-94234000D03*
D13*
X53130000Y-94234000D03*
%TD*%
D12*
%TO.C,J10*%
X82021191Y-67300000D03*
D13*
X89221191Y-67300000D03*
%TD*%
D14*
%TO.C,H1*%
X64770000Y-55118000D03*
%TD*%
D10*
%TO.C,TP6*%
X100330000Y-99822000D03*
%TD*%
D11*
%TO.C,F6*%
X70523100Y-118808500D03*
X75603100Y-118808500D03*
X66459100Y-118808500D03*
X61379100Y-118808500D03*
%TD*%
D10*
%TO.C,TP4*%
X97028000Y-94742000D03*
%TD*%
D14*
%TO.C,H3*%
X121920000Y-55118000D03*
%TD*%
D11*
%TO.C,F9*%
X70523100Y-99822000D03*
X75603100Y-99822000D03*
X66459100Y-99822000D03*
X61379100Y-99822000D03*
%TD*%
D15*
%TO.C,J4*%
X122629127Y-99885000D03*
D16*
X122629127Y-102385000D03*
X122629127Y-104885000D03*
X122629127Y-107385000D03*
X122629127Y-109885000D03*
X122629127Y-112385000D03*
%TD*%
D12*
%TO.C,J17*%
X45930000Y-114554000D03*
D13*
X53130000Y-114554000D03*
%TD*%
D10*
%TO.C,TP8*%
X92322000Y-121920000D03*
%TD*%
D17*
%TO.C,J19*%
X106654127Y-145405000D03*
D18*
X106654127Y-147905000D03*
%TD*%
D14*
%TO.C,H2*%
X121920000Y-147574000D03*
%TD*%
D11*
%TO.C,F8*%
X70523100Y-106108500D03*
X75603100Y-106108500D03*
X66459100Y-106108500D03*
X61379100Y-106108500D03*
%TD*%
D15*
%TO.C,J6*%
X122666227Y-85775000D03*
D16*
X122666227Y-88275000D03*
X122666227Y-90775000D03*
X122666227Y-93275000D03*
%TD*%
D12*
%TO.C,J11*%
X45930000Y-63754000D03*
D13*
X53130000Y-63754000D03*
%TD*%
D12*
%TO.C,J12*%
X45930000Y-73914000D03*
D13*
X53130000Y-73914000D03*
%TD*%
D17*
%TO.C,J8*%
X122944127Y-62875000D03*
D18*
X122944127Y-65375000D03*
%TD*%
D12*
%TO.C,J13*%
X45930000Y-84074000D03*
D13*
X53130000Y-84074000D03*
%TD*%
D11*
%TO.C,F1*%
X97654127Y-70512900D03*
X97654127Y-65432900D03*
X97654127Y-74576900D03*
X97654127Y-79656900D03*
%TD*%
%TO.C,F3*%
X70523100Y-80772000D03*
X75603100Y-80772000D03*
X66459100Y-80772000D03*
X61379100Y-80772000D03*
%TD*%
D17*
%TO.C,J2*%
X114164127Y-145425000D03*
D18*
X114164127Y-147925000D03*
%TD*%
D15*
%TO.C,J5*%
X122419127Y-118935000D03*
D16*
X122419127Y-121435000D03*
X122419127Y-123935000D03*
X122419127Y-126435000D03*
X122419127Y-128935000D03*
X122419127Y-131435000D03*
%TD*%
D19*
%TO.C,J3*%
X122800127Y-137912000D03*
D20*
X122000127Y-139662000D03*
X121200127Y-137912000D03*
X120400127Y-139662000D03*
X119600127Y-137912000D03*
D21*
X117550127Y-138787000D03*
X124850127Y-138787000D03*
%TD*%
D22*
%TO.C,J1*%
X115062000Y-123820000D03*
D23*
X115062000Y-126360000D03*
X115062000Y-128900000D03*
X115062000Y-131440000D03*
X115062000Y-133980000D03*
%TD*%
D12*
%TO.C,J9*%
X74484127Y-56200000D03*
D13*
X81684127Y-56200000D03*
%TD*%
D11*
%TO.C,F2*%
X75603100Y-74612500D03*
X70523100Y-74612500D03*
X61379100Y-74612500D03*
X66459100Y-74612500D03*
%TD*%
D24*
%TO.C,TP1*%
X96266000Y-113157000D03*
%TD*%
D12*
%TO.C,J16*%
X45930000Y-124714000D03*
D13*
X53130000Y-124714000D03*
%TD*%
D10*
%TO.C,TP2*%
X102235000Y-99822000D03*
%TD*%
D24*
%TO.C,TP5*%
X96266000Y-115824000D03*
%TD*%
D15*
%TO.C,J7*%
X122666227Y-71865000D03*
D16*
X122666227Y-74365000D03*
X122666227Y-76865000D03*
X122666227Y-79365000D03*
%TD*%
D12*
%TO.C,J15*%
X45930000Y-134874000D03*
D13*
X53130000Y-134874000D03*
%TD*%
D11*
%TO.C,F4*%
X75603100Y-87058500D03*
X70523100Y-87058500D03*
X61379100Y-87058500D03*
X66459100Y-87058500D03*
%TD*%
D14*
%TO.C,H4*%
X44704000Y-147574000D03*
%TD*%
D25*
%TO.C,D9*%
X109194127Y-145190000D03*
X109194127Y-147690000D03*
%TD*%
D26*
%TO.C,D12*%
X119879127Y-131415000D03*
X119879127Y-128915000D03*
%TD*%
D27*
%TO.C,Q8*%
X100764127Y-58480000D03*
D28*
X107064127Y-56200000D03*
D27*
X100764127Y-53920000D03*
%TD*%
D26*
%TO.C,D8*%
X111589127Y-147775000D03*
X111589127Y-145275000D03*
%TD*%
D27*
%TO.C,Q5*%
X81504127Y-88960000D03*
D28*
X87804127Y-86680000D03*
D27*
X81504127Y-84400000D03*
%TD*%
D29*
%TO.C,Q7*%
X96464127Y-53920000D03*
D30*
X90164127Y-56200000D03*
D29*
X96464127Y-58480000D03*
%TD*%
D27*
%TO.C,Q4*%
X81504127Y-81340000D03*
D28*
X87804127Y-79060000D03*
D27*
X81504127Y-76780000D03*
%TD*%
D31*
%TO.C,D11*%
X121256127Y-136388000D03*
X118756127Y-136388000D03*
%TD*%
D26*
%TO.C,D15*%
X119879127Y-112365000D03*
X119879127Y-109865000D03*
%TD*%
D27*
%TO.C,Q3*%
X81504127Y-106740000D03*
D28*
X87804127Y-104460000D03*
D27*
X81504127Y-102180000D03*
%TD*%
D26*
%TO.C,D5*%
X113157000Y-126345000D03*
X113157000Y-123845000D03*
%TD*%
D32*
%TO.C,R36*%
X97614127Y-56200000D03*
X99614127Y-56200000D03*
%TD*%
D33*
%TO.C,D22*%
X119667597Y-84742000D03*
X119667597Y-79342000D03*
%TD*%
D26*
%TO.C,D13*%
X119844127Y-126485000D03*
X119844127Y-123985000D03*
%TD*%
D34*
%TO.C,R39*%
X66329127Y-67935000D03*
X72254127Y-67935000D03*
%TD*%
D35*
%TO.C,D31*%
X88671191Y-72575000D03*
X84371191Y-72575000D03*
%TD*%
D27*
%TO.C,Q6*%
X81504127Y-99120000D03*
D28*
X87804127Y-96840000D03*
D27*
X81504127Y-94560000D03*
%TD*%
D31*
%TO.C,D10*%
X122018127Y-141468000D03*
X119518127Y-141468000D03*
%TD*%
D35*
%TO.C,D30*%
X80754127Y-60950000D03*
X76454127Y-60950000D03*
%TD*%
D26*
%TO.C,D14*%
X119879127Y-121255000D03*
X119879127Y-118755000D03*
%TD*%
%TO.C,D7*%
X117094000Y-131415000D03*
X117094000Y-128915000D03*
%TD*%
%TO.C,D17*%
X120089127Y-102205000D03*
X120089127Y-99705000D03*
%TD*%
D36*
%TO.C,R30*%
X83414127Y-91684000D03*
X81414127Y-91684000D03*
%TD*%
D26*
%TO.C,D6*%
X117348000Y-126472000D03*
X117348000Y-123972000D03*
%TD*%
%TO.C,D16*%
X119879127Y-107385000D03*
X119879127Y-104885000D03*
%TD*%
M02*
