M48
; DRILL file {KiCad 6.0.11+dfsg-1} date Thu 20 Mar 2025 10:50:16 AM EDT
; FORMAT={-:-/ absolute / metric / decimal}
; #@! TF.CreationDate,2025-03-20T10:50:16-04:00
; #@! TF.GenerationSoftware,Kicad,Pcbnew,6.0.11+dfsg-1
; #@! TF.FileFunction,Plated,1,4,PTH
FMAT,2
METRIC
; #@! TA.AperFunction,Plated,PTH,ViaDrill
T1C0.300
; #@! TA.AperFunction,Plated,PTH,ViaDrill
T2C0.400
; #@! TA.AperFunction,Plated,PTH,ComponentDrill
T3C0.500
; #@! TA.AperFunction,Plated,PTH,ComponentDrill
T4C0.700
; #@! TA.AperFunction,Plated,PTH,ComponentDrill
T5C0.950
; #@! TA.AperFunction,Plated,PTH,ComponentDrill
T6C1.000
; #@! TA.AperFunction,Plated,PTH,ComponentDrill
T7C2.591
; #@! TA.AperFunction,Plated,PTH,ComponentDrill
T8C4.500
%
G90
G05
T1
X42.418Y-52.324
X42.418Y-53.086
X42.418Y-53.848
X42.418Y-54.61
X42.418Y-55.372
X42.418Y-56.642
X42.418Y-57.404
X42.418Y-58.166
X42.418Y-58.928
X42.418Y-59.69
X43.18Y-52.324
X43.18Y-53.086
X43.18Y-53.848
X43.18Y-54.61
X43.18Y-55.372
X43.18Y-56.642
X43.18Y-57.404
X43.18Y-58.166
X43.18Y-58.928
X43.18Y-59.69
X43.942Y-52.324
X43.942Y-53.086
X43.942Y-53.848
X43.942Y-54.61
X43.942Y-55.372
X43.942Y-56.642
X43.942Y-57.404
X43.942Y-58.166
X43.942Y-58.928
X43.942Y-59.69
X44.704Y-52.324
X44.704Y-53.086
X44.704Y-53.848
X44.704Y-54.61
X44.704Y-55.372
X44.704Y-56.642
X44.704Y-57.404
X44.704Y-58.166
X44.704Y-58.928
X44.704Y-59.69
X45.466Y-52.324
X45.466Y-53.086
X45.466Y-53.848
X45.466Y-54.61
X45.466Y-55.372
X45.466Y-56.642
X45.466Y-57.404
X45.466Y-58.166
X45.466Y-58.928
X45.466Y-59.69
X46.736Y-52.324
X46.736Y-53.086
X46.736Y-53.848
X46.736Y-54.61
X46.736Y-55.372
X46.736Y-56.642
X46.736Y-57.404
X46.736Y-58.166
X46.736Y-58.928
X46.736Y-59.69
X47.498Y-52.324
X47.498Y-53.086
X47.498Y-53.848
X47.498Y-54.61
X47.498Y-55.372
X47.498Y-56.642
X47.498Y-57.404
X47.498Y-58.166
X47.498Y-58.928
X47.498Y-59.69
X48.26Y-52.324
X48.26Y-53.086
X48.26Y-53.848
X48.26Y-54.61
X48.26Y-55.372
X48.26Y-56.642
X48.26Y-57.404
X48.26Y-58.166
X48.26Y-58.928
X48.26Y-59.69
X49.022Y-52.324
X49.022Y-53.086
X49.022Y-53.848
X49.022Y-54.61
X49.022Y-55.372
X49.022Y-56.642
X49.022Y-57.404
X49.022Y-58.166
X49.022Y-58.928
X49.022Y-59.69
X49.784Y-52.324
X49.784Y-53.086
X49.784Y-53.848
X49.784Y-54.61
X49.784Y-55.372
X49.784Y-56.642
X49.784Y-57.404
X49.784Y-58.166
X49.784Y-58.928
X49.784Y-59.69
X51.054Y-52.324
X51.054Y-53.086
X51.054Y-53.848
X51.054Y-54.61
X51.054Y-55.372
X51.054Y-56.642
X51.054Y-57.404
X51.054Y-58.166
X51.054Y-58.928
X51.054Y-59.69
X51.816Y-52.324
X51.816Y-53.086
X51.816Y-53.848
X51.816Y-54.61
X51.816Y-55.372
X51.816Y-56.642
X51.816Y-57.404
X51.816Y-58.166
X51.816Y-58.928
X51.816Y-59.69
X52.578Y-52.324
X52.578Y-53.086
X52.578Y-53.848
X52.578Y-54.61
X52.578Y-55.372
X52.578Y-56.642
X52.578Y-57.404
X52.578Y-58.166
X52.578Y-58.928
X52.578Y-59.69
X53.34Y-52.324
X53.34Y-53.086
X53.34Y-53.848
X53.34Y-54.61
X53.34Y-55.372
X53.34Y-56.642
X53.34Y-57.404
X53.34Y-58.166
X53.34Y-58.928
X53.34Y-59.69
X54.102Y-52.324
X54.102Y-53.086
X54.102Y-53.848
X54.102Y-54.61
X54.102Y-55.372
X54.102Y-56.642
X54.102Y-57.404
X54.102Y-58.166
X54.102Y-58.928
X54.102Y-59.69
X55.372Y-52.324
X55.372Y-53.086
X55.372Y-53.848
X55.372Y-54.61
X55.372Y-55.372
X55.372Y-56.642
X55.372Y-57.404
X55.372Y-58.166
X55.372Y-58.928
X55.372Y-59.69
X56.134Y-52.324
X56.134Y-53.086
X56.134Y-53.848
X56.134Y-54.61
X56.134Y-55.372
X56.134Y-56.642
X56.134Y-57.404
X56.134Y-58.166
X56.134Y-58.928
X56.134Y-59.69
X56.896Y-52.324
X56.896Y-53.086
X56.896Y-53.848
X56.896Y-54.61
X56.896Y-55.372
X56.896Y-56.642
X56.896Y-57.404
X56.896Y-58.166
X56.896Y-58.928
X56.896Y-59.69
X57.658Y-52.324
X57.658Y-53.086
X57.658Y-53.848
X57.658Y-54.61
X57.658Y-55.372
X57.658Y-56.642
X57.658Y-57.404
X57.658Y-58.166
X57.658Y-58.928
X57.658Y-59.69
X58.42Y-52.324
X58.42Y-53.086
X58.42Y-53.848
X58.42Y-54.61
X58.42Y-55.372
X58.42Y-56.642
X58.42Y-57.404
X58.42Y-58.166
X58.42Y-58.928
X58.42Y-59.69
X66.548Y-60.96
X67.818Y-66.294
X68.072Y-67.626
X69.46Y-62.606
X71.12Y-60.96
X77.978Y-75.946
X77.978Y-76.708
X77.978Y-77.47
X77.978Y-78.232
X77.978Y-78.994
X77.978Y-82.804
X77.978Y-83.566
X77.978Y-84.328
X77.978Y-85.09
X77.978Y-85.852
X77.978Y-88.9
X77.978Y-89.662
X77.978Y-90.424
X77.978Y-91.186
X77.978Y-91.948
X77.978Y-94.996
X77.978Y-95.758
X77.978Y-96.52
X77.978Y-97.282
X77.978Y-98.044
X77.978Y-101.346
X77.978Y-102.108
X77.978Y-102.87
X77.978Y-103.632
X77.978Y-104.394
X77.978Y-107.696
X77.978Y-108.458
X77.978Y-109.22
X77.978Y-109.982
X77.978Y-110.744
X77.978Y-113.792
X77.978Y-114.554
X77.978Y-115.316
X77.978Y-116.078
X77.978Y-116.84
X78.613Y-122.047
X78.613Y-122.936
X78.613Y-123.952
X78.613Y-124.968
X78.613Y-125.984
X78.613Y-127.0
X78.613Y-128.016
X78.613Y-129.032
X78.613Y-130.048
X78.613Y-131.064
X78.613Y-132.08
X78.613Y-132.969
X78.613Y-133.858
X78.613Y-134.874
X78.613Y-135.89
X78.74Y-75.946
X78.74Y-76.708
X78.74Y-77.47
X78.74Y-78.232
X78.74Y-78.994
X78.74Y-82.804
X78.74Y-83.566
X78.74Y-84.328
X78.74Y-85.09
X78.74Y-85.852
X78.74Y-88.9
X78.74Y-89.662
X78.74Y-90.424
X78.74Y-91.186
X78.74Y-91.948
X78.74Y-94.996
X78.74Y-95.758
X78.74Y-96.52
X78.74Y-97.282
X78.74Y-98.044
X78.74Y-101.346
X78.74Y-102.108
X78.74Y-102.87
X78.74Y-103.632
X78.74Y-104.394
X78.74Y-107.696
X78.74Y-108.458
X78.74Y-109.22
X78.74Y-109.982
X78.74Y-110.744
X78.74Y-113.792
X78.74Y-114.554
X78.74Y-115.316
X78.74Y-116.078
X78.74Y-116.84
X79.375Y-136.525
X79.629Y-122.047
X80.391Y-136.525
X80.645Y-122.047
X81.407Y-136.525
X81.534Y-120.777
X81.534Y-121.666
X81.788Y-78.232
X81.788Y-78.994
X82.258Y-85.725
X82.258Y-86.524
X82.258Y-87.249
X82.296Y-115.824
X82.296Y-136.525
X82.423Y-120.777
X82.804Y-127.508
X82.804Y-128.524
X82.804Y-129.54
X83.312Y-120.777
X83.312Y-136.525
X84.201Y-120.777
X84.328Y-136.525
X85.09Y-120.777
X85.344Y-136.525
X85.598Y-61.976
X85.598Y-62.865
X85.979Y-120.777
X86.0Y-55.057
X86.106Y-117.348
X86.233Y-129.921
X86.233Y-130.937
X86.233Y-131.953
X86.233Y-132.969
X86.233Y-133.985
X86.233Y-134.874
X86.233Y-135.763
X86.36Y-121.539
X86.36Y-122.428
X86.36Y-123.317
X86.36Y-124.206
X86.36Y-125.095
X86.36Y-125.984
X86.36Y-126.873
X86.487Y-73.533
X86.614Y-61.214
X86.912Y-75.088
X87.17Y-114.935
X87.884Y-142.748
X88.006Y-75.039
X88.329Y-116.84
X88.646Y-127.0
X88.9Y-110.998
X89.154Y-119.38
X90.297Y-134.493
X90.486Y-129.029
X90.615Y-133.603
X90.805Y-129.921
X91.186Y-113.665
X91.186Y-116.713
X92.202Y-113.665
X92.202Y-116.586
X92.456Y-140.716
X92.964Y-127.254
X92.964Y-137.922
X93.0Y-76.335
X93.218Y-142.748
X93.726Y-109.982
X93.726Y-119.38
X93.726Y-132.385
X93.726Y-144.78
X93.726Y-146.05
X93.726Y-147.32
X93.726Y-148.59
X94.488Y-130.101
X94.799Y-122.077
X94.996Y-119.38
X94.996Y-125.73
X95.25Y-130.81
X95.758Y-56.388
X95.758Y-120.142
X95.95Y-138.483
X96.0Y-107.5
X96.266Y-87.884
X96.266Y-133.14
X96.461Y-123.952
X96.644Y-137.784
X96.785Y-138.816
X96.961Y-124.76
X97.028Y-87.122
X97.028Y-139.954
X97.282Y-132.842
X97.536Y-137.668
X98.022Y-110.512
X98.044Y-131.318
X98.744Y-130.748
X98.77Y-133.894
X98.806Y-87.376
X98.806Y-99.06
X98.806Y-101.346
X99.06Y-112.268
X99.689Y-52.324
X99.695Y-88.011
X100.459Y-113.03
X101.092Y-56.896
X101.092Y-128.016
X102.87Y-122.682
X103.886Y-86.614
X104.902Y-101.346
X105.029Y-122.8
X105.106Y-128.22
X105.156Y-133.731
X105.156Y-134.747
X105.156Y-135.737
X105.41Y-52.07
X105.43Y-70.052
X106.172Y-76.454
X106.172Y-107.95
X106.362Y-87.312
X106.5Y-122.48
X106.5Y-123.379
X106.5Y-124.778
X106.68Y-111.76
X106.68Y-114.808
X107.95Y-134.366
X108.204Y-80.264
X108.966Y-149.098
X109.204Y-82.566
X110.109Y-94.742
X110.617Y-115.57
X110.998Y-69.088
X110.998Y-108.966
X111.517Y-115.57
X111.76Y-53.594
X111.76Y-144.272
X111.82Y-52.32
X112.395Y-94.742
X112.416Y-115.57
X113.284Y-121.412
X113.792Y-124.968
X114.033Y-68.821
X115.57Y-73.025
X115.57Y-78.105
X115.57Y-83.185
X115.57Y-88.265
X115.57Y-93.345
X115.57Y-98.425
X115.57Y-103.505
X117.094Y-130.048
X117.348Y-52.07
X117.348Y-52.832
X117.348Y-53.594
X117.348Y-54.356
X117.348Y-124.968
X117.729Y-60.833
X117.729Y-61.595
X117.729Y-62.357
X118.11Y-52.07
X118.11Y-52.832
X118.11Y-53.594
X118.11Y-54.356
X118.11Y-55.118
X118.11Y-55.88
X118.11Y-56.642
X118.491Y-59.309
X118.491Y-60.071
X118.491Y-60.833
X118.491Y-62.357
X118.492Y-61.595
X118.872Y-52.07
X118.872Y-52.832
X119.253Y-59.309
X119.253Y-60.071
X119.253Y-60.833
X119.253Y-61.595
X119.253Y-62.357
X119.38Y-94.615
X119.634Y-52.07
X119.888Y-124.968
X119.888Y-130.048
X120.015Y-59.309
X120.015Y-60.071
X120.015Y-60.833
X120.015Y-61.595
X120.015Y-62.357
X120.777Y-59.309
X120.777Y-60.071
X120.777Y-60.833
X120.777Y-61.595
X120.777Y-62.357
X121.412Y-64.451
X121.539Y-59.309
X121.539Y-60.071
X121.539Y-60.833
X124.333Y-94.615
T2
X84.5Y-63.0
X112.014Y-54.864
X112.522Y-57.404
T3
X92.322Y-121.92
X93.472Y-121.92
X96.266Y-113.157
X96.266Y-115.824
X97.028Y-94.742
X98.552Y-94.742
X100.33Y-99.822
X102.235Y-99.822
T4
X119.6Y-137.912
X120.4Y-139.662
X121.2Y-137.912
X122.0Y-139.662
X122.8Y-137.912
T5
X122.419Y-118.935
X122.419Y-121.435
X122.419Y-123.935
X122.419Y-126.435
X122.419Y-128.935
X122.419Y-131.435
X122.629Y-99.885
X122.629Y-102.385
X122.629Y-104.885
X122.629Y-107.385
X122.629Y-109.885
X122.629Y-112.385
X122.666Y-71.865
X122.666Y-74.365
X122.666Y-76.865
X122.666Y-79.365
X122.666Y-85.775
X122.666Y-88.275
X122.666Y-90.775
X122.666Y-93.275
T6
X106.654Y-145.405
X106.654Y-147.905
X114.164Y-145.425
X114.164Y-147.925
X115.062Y-123.82
X115.062Y-126.36
X115.062Y-128.9
X115.062Y-131.44
X115.062Y-133.98
X122.944Y-62.875
X122.944Y-65.375
T7
X61.379Y-74.612
X61.379Y-80.772
X61.379Y-87.058
X61.379Y-93.472
X61.379Y-99.822
X61.379Y-106.108
X61.379Y-112.459
X61.379Y-118.808
X66.459Y-74.612
X66.459Y-80.772
X66.459Y-87.058
X66.459Y-93.472
X66.459Y-99.822
X66.459Y-106.108
X66.459Y-112.459
X66.459Y-118.808
X70.523Y-74.612
X70.523Y-80.772
X70.523Y-87.058
X70.523Y-93.472
X70.523Y-99.822
X70.523Y-106.108
X70.523Y-112.459
X70.523Y-118.808
X75.603Y-74.612
X75.603Y-80.772
X75.603Y-87.058
X75.603Y-93.472
X75.603Y-99.822
X75.603Y-106.108
X75.603Y-112.459
X75.603Y-118.808
X97.654Y-65.433
X97.654Y-70.513
X97.654Y-74.577
X97.654Y-79.657
T8
X45.93Y-63.754
X45.93Y-73.914
X45.93Y-84.074
X45.93Y-94.234
X45.93Y-104.394
X45.93Y-114.554
X45.93Y-124.714
X45.93Y-134.874
X53.13Y-63.754
X53.13Y-73.914
X53.13Y-84.074
X53.13Y-94.234
X53.13Y-104.394
X53.13Y-114.554
X53.13Y-124.714
X53.13Y-134.874
X74.484Y-56.2
X81.684Y-56.2
X82.021Y-67.3
X89.221Y-67.3
T4
X117.55Y-139.437G85X117.55Y-138.137
G05
X124.85Y-139.437G85X124.85Y-138.137
G05
T0
M30
