%TF.GenerationSoftware,KiCad,Pcbnew,6.0.11+dfsg-1*%
%TF.CreationDate,2025-03-20T10:49:09-04:00*%
%TF.ProjectId,battery-board,62617474-6572-4792-9d62-6f6172642e6b,rev?*%
%TF.SameCoordinates,Original*%
%TF.FileFunction,Legend,Bot*%
%TF.FilePolarity,Positive*%
%FSLAX46Y46*%
G04 Gerber Fmt 4.6, Leading zero omitted, Abs format (unit mm)*
G04 Created by KiCad (PCBNEW 6.0.11+dfsg-1) date 2025-03-20 10:49:09*
%MOMM*%
%LPD*%
G01*
G04 APERTURE LIST*
G04 Aperture macros list*
%AMRoundRect*
0 Rectangle with rounded corners*
0 $1 Rounding radius*
0 $2 $3 $4 $5 $6 $7 $8 $9 X,Y pos of 4 corners*
0 Add a 4 corners polygon primitive as box body*
4,1,4,$2,$3,$4,$5,$6,$7,$8,$9,$2,$3,0*
0 Add four circle primitives for the rounded corners*
1,1,$1+$1,$2,$3*
1,1,$1+$1,$4,$5*
1,1,$1+$1,$6,$7*
1,1,$1+$1,$8,$9*
0 Add four rect primitives between the rounded corners*
20,1,$1+$1,$2,$3,$4,$5,0*
20,1,$1+$1,$4,$5,$6,$7,0*
20,1,$1+$1,$6,$7,$8,$9,0*
20,1,$1+$1,$8,$9,$2,$3,0*%
G04 Aperture macros list end*
%ADD10C,0.200000*%
%ADD11C,0.150000*%
%ADD12C,0.508000*%
%ADD13C,0.120000*%
%ADD14RoundRect,0.100000X-0.425000X-0.425000X0.425000X-0.425000X0.425000X0.425000X-0.425000X0.425000X0*%
%ADD15C,3.298800*%
%ADD16RoundRect,1.600000X-1.500000X-1.500000X1.500000X-1.500000X1.500000X1.500000X-1.500000X1.500000X0*%
%ADD17C,6.200000*%
%ADD18C,3.400000*%
%ADD19RoundRect,0.350000X-0.725000X0.600000X-0.725000X-0.600000X0.725000X-0.600000X0.725000X0.600000X0*%
%ADD20O,2.150000X1.900000*%
%ADD21RoundRect,0.350000X-0.750000X0.600000X-0.750000X-0.600000X0.750000X-0.600000X0.750000X0.600000X0*%
%ADD22O,2.200000X1.900000*%
%ADD23RoundRect,0.100000X0.550000X0.550000X-0.550000X0.550000X-0.550000X-0.550000X0.550000X-0.550000X0*%
%ADD24C,1.300000*%
%ADD25O,1.300000X2.600000*%
%ADD26RoundRect,0.100000X-0.850000X-0.850000X0.850000X-0.850000X0.850000X0.850000X-0.850000X0.850000X0*%
%ADD27O,1.900000X1.900000*%
%ADD28RoundRect,0.100000X0.425000X0.425000X-0.425000X0.425000X-0.425000X-0.425000X0.425000X-0.425000X0*%
%ADD29RoundRect,0.100000X-0.500000X0.500000X-0.500000X-0.500000X0.500000X-0.500000X0.500000X0.500000X0*%
%ADD30RoundRect,0.100000X0.500000X-0.500000X0.500000X0.500000X-0.500000X0.500000X-0.500000X-0.500000X0*%
%ADD31RoundRect,0.100000X-1.100000X-0.600000X1.100000X-0.600000X1.100000X0.600000X-1.100000X0.600000X0*%
%ADD32RoundRect,0.100000X-3.200000X-2.900000X3.200000X-2.900000X3.200000X2.900000X-3.200000X2.900000X0*%
%ADD33RoundRect,0.100000X1.100000X0.600000X-1.100000X0.600000X-1.100000X-0.600000X1.100000X-0.600000X0*%
%ADD34RoundRect,0.100000X3.200000X2.900000X-3.200000X2.900000X-3.200000X-2.900000X3.200000X-2.900000X0*%
%ADD35RoundRect,0.100000X0.500000X0.500000X-0.500000X0.500000X-0.500000X-0.500000X0.500000X-0.500000X0*%
%ADD36RoundRect,0.350000X-0.350000X-0.450000X0.350000X-0.450000X0.350000X0.450000X-0.350000X0.450000X0*%
%ADD37RoundRect,0.100000X1.150000X-1.750000X1.150000X1.750000X-1.150000X1.750000X-1.150000X-1.750000X0*%
%ADD38RoundRect,0.350000X-0.362500X-1.425000X0.362500X-1.425000X0.362500X1.425000X-0.362500X1.425000X0*%
%ADD39RoundRect,0.100000X1.250000X1.150000X-1.250000X1.150000X-1.250000X-1.150000X1.250000X-1.150000X0*%
%ADD40RoundRect,0.350000X0.350000X0.450000X-0.350000X0.450000X-0.350000X-0.450000X0.350000X-0.450000X0*%
G04 APERTURE END LIST*
D10*
X124539333Y-110704380D02*
X123920285Y-110704380D01*
X124253619Y-111085333D01*
X124110761Y-111085333D01*
X124015523Y-111132952D01*
X123967904Y-111180571D01*
X123920285Y-111275809D01*
X123920285Y-111513904D01*
X123967904Y-111609142D01*
X124015523Y-111656761D01*
X124110761Y-111704380D01*
X124396476Y-111704380D01*
X124491714Y-111656761D01*
X124539333Y-111609142D01*
X125047333Y-78954380D02*
X124428285Y-78954380D01*
X124761619Y-79335333D01*
X124618761Y-79335333D01*
X124523523Y-79382952D01*
X124475904Y-79430571D01*
X124428285Y-79525809D01*
X124428285Y-79763904D01*
X124475904Y-79859142D01*
X124523523Y-79906761D01*
X124618761Y-79954380D01*
X124904476Y-79954380D01*
X124999714Y-79906761D01*
X125047333Y-79859142D01*
X111878857Y-126944380D02*
X111878857Y-125944380D01*
X111307428Y-126944380D01*
X111307428Y-125944380D01*
X110259809Y-126944380D02*
X110593142Y-126468190D01*
X110831238Y-126944380D02*
X110831238Y-125944380D01*
X110450285Y-125944380D01*
X110355047Y-125992000D01*
X110307428Y-126039619D01*
X110259809Y-126134857D01*
X110259809Y-126277714D01*
X110307428Y-126372952D01*
X110355047Y-126420571D01*
X110450285Y-126468190D01*
X110831238Y-126468190D01*
X109878857Y-126896761D02*
X109736000Y-126944380D01*
X109497904Y-126944380D01*
X109402666Y-126896761D01*
X109355047Y-126849142D01*
X109307428Y-126753904D01*
X109307428Y-126658666D01*
X109355047Y-126563428D01*
X109402666Y-126515809D01*
X109497904Y-126468190D01*
X109688380Y-126420571D01*
X109783619Y-126372952D01*
X109831238Y-126325333D01*
X109878857Y-126230095D01*
X109878857Y-126134857D01*
X109831238Y-126039619D01*
X109783619Y-125992000D01*
X109688380Y-125944380D01*
X109450285Y-125944380D01*
X109307428Y-125992000D01*
X109021714Y-125944380D02*
X108450285Y-125944380D01*
X108736000Y-126944380D02*
X108736000Y-125944380D01*
X123967904Y-124674380D02*
X124444095Y-124674380D01*
X124491714Y-125150571D01*
X124444095Y-125102952D01*
X124348857Y-125055333D01*
X124110761Y-125055333D01*
X124015523Y-125102952D01*
X123967904Y-125150571D01*
X123920285Y-125245809D01*
X123920285Y-125483904D01*
X123967904Y-125579142D01*
X124015523Y-125626761D01*
X124110761Y-125674380D01*
X124348857Y-125674380D01*
X124444095Y-125626761D01*
X124491714Y-125579142D01*
X112759809Y-142597142D02*
X112807428Y-142644761D01*
X112950285Y-142692380D01*
X113045523Y-142692380D01*
X113188380Y-142644761D01*
X113283619Y-142549523D01*
X113331238Y-142454285D01*
X113378857Y-142263809D01*
X113378857Y-142120952D01*
X113331238Y-141930476D01*
X113283619Y-141835238D01*
X113188380Y-141740000D01*
X113045523Y-141692380D01*
X112950285Y-141692380D01*
X112807428Y-141740000D01*
X112759809Y-141787619D01*
X112378857Y-142406666D02*
X111902666Y-142406666D01*
X112474095Y-142692380D02*
X112140761Y-141692380D01*
X111807428Y-142692380D01*
X111474095Y-142692380D02*
X111474095Y-141692380D01*
X110902666Y-142692380D01*
X110902666Y-141692380D01*
X109331238Y-142168571D02*
X109188380Y-142216190D01*
X109140761Y-142263809D01*
X109093142Y-142359047D01*
X109093142Y-142501904D01*
X109140761Y-142597142D01*
X109188380Y-142644761D01*
X109283619Y-142692380D01*
X109664571Y-142692380D01*
X109664571Y-141692380D01*
X109331238Y-141692380D01*
X109236000Y-141740000D01*
X109188380Y-141787619D01*
X109140761Y-141882857D01*
X109140761Y-141978095D01*
X109188380Y-142073333D01*
X109236000Y-142120952D01*
X109331238Y-142168571D01*
X109664571Y-142168571D01*
X108664571Y-141692380D02*
X108664571Y-142501904D01*
X108616952Y-142597142D01*
X108569333Y-142644761D01*
X108474095Y-142692380D01*
X108283619Y-142692380D01*
X108188380Y-142644761D01*
X108140761Y-142597142D01*
X108093142Y-142501904D01*
X108093142Y-141692380D01*
X107664571Y-142644761D02*
X107521714Y-142692380D01*
X107283619Y-142692380D01*
X107188380Y-142644761D01*
X107140761Y-142597142D01*
X107093142Y-142501904D01*
X107093142Y-142406666D01*
X107140761Y-142311428D01*
X107188380Y-142263809D01*
X107283619Y-142216190D01*
X107474095Y-142168571D01*
X107569333Y-142120952D01*
X107616952Y-142073333D01*
X107664571Y-141978095D01*
X107664571Y-141882857D01*
X107616952Y-141787619D01*
X107569333Y-141740000D01*
X107474095Y-141692380D01*
X107236000Y-141692380D01*
X107093142Y-141740000D01*
X111505904Y-123452000D02*
X111601142Y-123404380D01*
X111744000Y-123404380D01*
X111886857Y-123452000D01*
X111982095Y-123547238D01*
X112029714Y-123642476D01*
X112077333Y-123832952D01*
X112077333Y-123975809D01*
X112029714Y-124166285D01*
X111982095Y-124261523D01*
X111886857Y-124356761D01*
X111744000Y-124404380D01*
X111648761Y-124404380D01*
X111505904Y-124356761D01*
X111458285Y-124309142D01*
X111458285Y-123975809D01*
X111648761Y-123975809D01*
X111029714Y-124404380D02*
X111029714Y-123404380D01*
X110458285Y-124404380D01*
X110458285Y-123404380D01*
X109982095Y-124404380D02*
X109982095Y-123404380D01*
X109744000Y-123404380D01*
X109601142Y-123452000D01*
X109505904Y-123547238D01*
X109458285Y-123642476D01*
X109410666Y-123832952D01*
X109410666Y-123975809D01*
X109458285Y-124166285D01*
X109505904Y-124261523D01*
X109601142Y-124356761D01*
X109744000Y-124404380D01*
X109982095Y-124404380D01*
X123856571Y-69953142D02*
X123904190Y-70000761D01*
X124047047Y-70048380D01*
X124142285Y-70048380D01*
X124285142Y-70000761D01*
X124380380Y-69905523D01*
X124428000Y-69810285D01*
X124475619Y-69619809D01*
X124475619Y-69476952D01*
X124428000Y-69286476D01*
X124380380Y-69191238D01*
X124285142Y-69096000D01*
X124142285Y-69048380D01*
X124047047Y-69048380D01*
X123904190Y-69096000D01*
X123856571Y-69143619D01*
X123428000Y-69524571D02*
X123094666Y-69524571D01*
X122951809Y-70048380D02*
X123428000Y-70048380D01*
X123428000Y-69048380D01*
X122951809Y-69048380D01*
X122047047Y-70048380D02*
X122523238Y-70048380D01*
X122523238Y-69048380D01*
X121237523Y-70048380D02*
X121713714Y-70048380D01*
X121713714Y-69048380D01*
X120951809Y-70000761D02*
X120808952Y-70048380D01*
X120570857Y-70048380D01*
X120475619Y-70000761D01*
X120428000Y-69953142D01*
X120380380Y-69857904D01*
X120380380Y-69762666D01*
X120428000Y-69667428D01*
X120475619Y-69619809D01*
X120570857Y-69572190D01*
X120761333Y-69524571D01*
X120856571Y-69476952D01*
X120904190Y-69429333D01*
X120951809Y-69334095D01*
X120951809Y-69238857D01*
X120904190Y-69143619D01*
X120856571Y-69096000D01*
X120761333Y-69048380D01*
X120523238Y-69048380D01*
X120380380Y-69096000D01*
X124999714Y-76255619D02*
X124952095Y-76208000D01*
X124856857Y-76160380D01*
X124618761Y-76160380D01*
X124523523Y-76208000D01*
X124475904Y-76255619D01*
X124428285Y-76350857D01*
X124428285Y-76446095D01*
X124475904Y-76588952D01*
X125047333Y-77160380D01*
X124428285Y-77160380D01*
X124523523Y-85637714D02*
X124523523Y-86304380D01*
X124761619Y-85256761D02*
X124999714Y-85971047D01*
X124380666Y-85971047D01*
X118768666Y-148439142D02*
X118816285Y-148486761D01*
X118959142Y-148534380D01*
X119054380Y-148534380D01*
X119197238Y-148486761D01*
X119292476Y-148391523D01*
X119340095Y-148296285D01*
X119387714Y-148105809D01*
X119387714Y-147962952D01*
X119340095Y-147772476D01*
X119292476Y-147677238D01*
X119197238Y-147582000D01*
X119054380Y-147534380D01*
X118959142Y-147534380D01*
X118816285Y-147582000D01*
X118768666Y-147629619D01*
X118387714Y-148248666D02*
X117911523Y-148248666D01*
X118482952Y-148534380D02*
X118149619Y-147534380D01*
X117816285Y-148534380D01*
X117482952Y-148534380D02*
X117482952Y-147534380D01*
X116911523Y-148534380D01*
X116911523Y-147534380D01*
X116435333Y-148534380D02*
X116435333Y-147534380D01*
X116435333Y-148010571D02*
X115863904Y-148010571D01*
X115863904Y-148534380D02*
X115863904Y-147534380D01*
X125047333Y-92670380D02*
X124380666Y-92670380D01*
X124809238Y-93670380D01*
X124428285Y-74874380D02*
X124999714Y-74874380D01*
X124714000Y-74874380D02*
X124714000Y-73874380D01*
X124809238Y-74017238D01*
X124904476Y-74112476D01*
X124999714Y-74160095D01*
X118649619Y-145899142D02*
X118697238Y-145946761D01*
X118840095Y-145994380D01*
X118935333Y-145994380D01*
X119078190Y-145946761D01*
X119173428Y-145851523D01*
X119221047Y-145756285D01*
X119268666Y-145565809D01*
X119268666Y-145422952D01*
X119221047Y-145232476D01*
X119173428Y-145137238D01*
X119078190Y-145042000D01*
X118935333Y-144994380D01*
X118840095Y-144994380D01*
X118697238Y-145042000D01*
X118649619Y-145089619D01*
X118268666Y-145708666D02*
X117792476Y-145708666D01*
X118363904Y-145994380D02*
X118030571Y-144994380D01*
X117697238Y-145994380D01*
X117363904Y-145994380D02*
X117363904Y-144994380D01*
X116792476Y-145994380D01*
X116792476Y-144994380D01*
X115840095Y-145994380D02*
X116316285Y-145994380D01*
X116316285Y-144994380D01*
X123920285Y-101544380D02*
X124491714Y-101544380D01*
X124206000Y-101544380D02*
X124206000Y-100544380D01*
X124301238Y-100687238D01*
X124396476Y-100782476D01*
X124491714Y-100830095D01*
X104544666Y-148185142D02*
X104592285Y-148232761D01*
X104735142Y-148280380D01*
X104830380Y-148280380D01*
X104973238Y-148232761D01*
X105068476Y-148137523D01*
X105116095Y-148042285D01*
X105163714Y-147851809D01*
X105163714Y-147708952D01*
X105116095Y-147518476D01*
X105068476Y-147423238D01*
X104973238Y-147328000D01*
X104830380Y-147280380D01*
X104735142Y-147280380D01*
X104592285Y-147328000D01*
X104544666Y-147375619D01*
X104163714Y-147994666D02*
X103687523Y-147994666D01*
X104258952Y-148280380D02*
X103925619Y-147280380D01*
X103592285Y-148280380D01*
X103258952Y-148280380D02*
X103258952Y-147280380D01*
X102687523Y-148280380D01*
X102687523Y-147280380D01*
X102211333Y-148280380D02*
X102211333Y-147280380D01*
X102211333Y-147756571D02*
X101639904Y-147756571D01*
X101639904Y-148280380D02*
X101639904Y-147280380D01*
X124689904Y-67492571D02*
X124547047Y-67540190D01*
X124499428Y-67587809D01*
X124451809Y-67683047D01*
X124451809Y-67825904D01*
X124499428Y-67921142D01*
X124547047Y-67968761D01*
X124642285Y-68016380D01*
X125023238Y-68016380D01*
X125023238Y-67016380D01*
X124689904Y-67016380D01*
X124594666Y-67064000D01*
X124547047Y-67111619D01*
X124499428Y-67206857D01*
X124499428Y-67302095D01*
X124547047Y-67397333D01*
X124594666Y-67444952D01*
X124689904Y-67492571D01*
X125023238Y-67492571D01*
X124023238Y-67016380D02*
X124023238Y-67825904D01*
X123975619Y-67921142D01*
X123928000Y-67968761D01*
X123832761Y-68016380D01*
X123642285Y-68016380D01*
X123547047Y-67968761D01*
X123499428Y-67921142D01*
X123451809Y-67825904D01*
X123451809Y-67016380D01*
X123118476Y-67016380D02*
X122547047Y-67016380D01*
X122832761Y-68016380D02*
X122832761Y-67016380D01*
X122356571Y-67016380D02*
X121785142Y-67016380D01*
X122070857Y-68016380D02*
X122070857Y-67016380D01*
X121261333Y-67016380D02*
X121070857Y-67016380D01*
X120975619Y-67064000D01*
X120880380Y-67159238D01*
X120832761Y-67349714D01*
X120832761Y-67683047D01*
X120880380Y-67873523D01*
X120975619Y-67968761D01*
X121070857Y-68016380D01*
X121261333Y-68016380D01*
X121356571Y-67968761D01*
X121451809Y-67873523D01*
X121499428Y-67683047D01*
X121499428Y-67349714D01*
X121451809Y-67159238D01*
X121356571Y-67064000D01*
X121261333Y-67016380D01*
X120404190Y-68016380D02*
X120404190Y-67016380D01*
X119832761Y-68016380D01*
X119832761Y-67016380D01*
X124491714Y-105719619D02*
X124444095Y-105672000D01*
X124348857Y-105624380D01*
X124110761Y-105624380D01*
X124015523Y-105672000D01*
X123967904Y-105719619D01*
X123920285Y-105814857D01*
X123920285Y-105910095D01*
X123967904Y-106052952D01*
X124539333Y-106624380D01*
X123920285Y-106624380D01*
X115363333Y-122832761D02*
X115220476Y-122880380D01*
X114982380Y-122880380D01*
X114887142Y-122832761D01*
X114839523Y-122785142D01*
X114791904Y-122689904D01*
X114791904Y-122594666D01*
X114839523Y-122499428D01*
X114887142Y-122451809D01*
X114982380Y-122404190D01*
X115172857Y-122356571D01*
X115268095Y-122308952D01*
X115315714Y-122261333D01*
X115363333Y-122166095D01*
X115363333Y-122070857D01*
X115315714Y-121975619D01*
X115268095Y-121928000D01*
X115172857Y-121880380D01*
X114934761Y-121880380D01*
X114791904Y-121928000D01*
X114506190Y-121880380D02*
X113934761Y-121880380D01*
X114220476Y-122880380D02*
X114220476Y-121880380D01*
X113125238Y-122880380D02*
X113601428Y-122880380D01*
X113601428Y-121880380D01*
X112791904Y-122880380D02*
X112791904Y-121880380D01*
X112315714Y-122880380D02*
X112315714Y-121880380D01*
X111744285Y-122880380D01*
X111744285Y-121880380D01*
X111268095Y-122880380D02*
X111268095Y-121880380D01*
X110696666Y-122880380D02*
X111125238Y-122308952D01*
X110696666Y-121880380D02*
X111268095Y-122451809D01*
X124308571Y-96734380D02*
X123737142Y-96734380D01*
X124022857Y-97734380D02*
X124022857Y-96734380D01*
X123403809Y-97734380D02*
X123403809Y-96734380D01*
X123403809Y-97210571D02*
X122832380Y-97210571D01*
X122832380Y-97734380D02*
X122832380Y-96734380D01*
X122356190Y-97210571D02*
X122022857Y-97210571D01*
X121880000Y-97734380D02*
X122356190Y-97734380D01*
X122356190Y-96734380D01*
X121880000Y-96734380D01*
X120880000Y-97734380D02*
X121213333Y-97258190D01*
X121451428Y-97734380D02*
X121451428Y-96734380D01*
X121070476Y-96734380D01*
X120975238Y-96782000D01*
X120927619Y-96829619D01*
X120880000Y-96924857D01*
X120880000Y-97067714D01*
X120927619Y-97162952D01*
X120975238Y-97210571D01*
X121070476Y-97258190D01*
X121451428Y-97258190D01*
X120451428Y-97734380D02*
X120451428Y-96734380D01*
X120118095Y-97448666D01*
X119784761Y-96734380D01*
X119784761Y-97734380D01*
X119308571Y-97734380D02*
X119308571Y-96734380D01*
X118880000Y-97686761D02*
X118737142Y-97734380D01*
X118499047Y-97734380D01*
X118403809Y-97686761D01*
X118356190Y-97639142D01*
X118308571Y-97543904D01*
X118308571Y-97448666D01*
X118356190Y-97353428D01*
X118403809Y-97305809D01*
X118499047Y-97258190D01*
X118689523Y-97210571D01*
X118784761Y-97162952D01*
X118832380Y-97115333D01*
X118880000Y-97020095D01*
X118880000Y-96924857D01*
X118832380Y-96829619D01*
X118784761Y-96782000D01*
X118689523Y-96734380D01*
X118451428Y-96734380D01*
X118308571Y-96782000D01*
X118022857Y-96734380D02*
X117451428Y-96734380D01*
X117737142Y-97734380D02*
X117737142Y-96734380D01*
X116927619Y-96734380D02*
X116737142Y-96734380D01*
X116641904Y-96782000D01*
X116546666Y-96877238D01*
X116499047Y-97067714D01*
X116499047Y-97401047D01*
X116546666Y-97591523D01*
X116641904Y-97686761D01*
X116737142Y-97734380D01*
X116927619Y-97734380D01*
X117022857Y-97686761D01*
X117118095Y-97591523D01*
X117165714Y-97401047D01*
X117165714Y-97067714D01*
X117118095Y-96877238D01*
X117022857Y-96782000D01*
X116927619Y-96734380D01*
X115499047Y-97734380D02*
X115832380Y-97258190D01*
X116070476Y-97734380D02*
X116070476Y-96734380D01*
X115689523Y-96734380D01*
X115594285Y-96782000D01*
X115546666Y-96829619D01*
X115499047Y-96924857D01*
X115499047Y-97067714D01*
X115546666Y-97162952D01*
X115594285Y-97210571D01*
X115689523Y-97258190D01*
X116070476Y-97258190D01*
X115118095Y-97686761D02*
X114975238Y-97734380D01*
X114737142Y-97734380D01*
X114641904Y-97686761D01*
X114594285Y-97639142D01*
X114546666Y-97543904D01*
X114546666Y-97448666D01*
X114594285Y-97353428D01*
X114641904Y-97305809D01*
X114737142Y-97258190D01*
X114927619Y-97210571D01*
X115022857Y-97162952D01*
X115070476Y-97115333D01*
X115118095Y-97020095D01*
X115118095Y-96924857D01*
X115070476Y-96829619D01*
X115022857Y-96782000D01*
X114927619Y-96734380D01*
X114689523Y-96734380D01*
X114546666Y-96782000D01*
X113625047Y-131976761D02*
X113482190Y-132024380D01*
X113244095Y-132024380D01*
X113148857Y-131976761D01*
X113101238Y-131929142D01*
X113053619Y-131833904D01*
X113053619Y-131738666D01*
X113101238Y-131643428D01*
X113148857Y-131595809D01*
X113244095Y-131548190D01*
X113434571Y-131500571D01*
X113529809Y-131452952D01*
X113577428Y-131405333D01*
X113625047Y-131310095D01*
X113625047Y-131214857D01*
X113577428Y-131119619D01*
X113529809Y-131072000D01*
X113434571Y-131024380D01*
X113196476Y-131024380D01*
X113053619Y-131072000D01*
X112720285Y-131024380D02*
X112482190Y-132024380D01*
X112291714Y-131310095D01*
X112101238Y-132024380D01*
X111863142Y-131024380D01*
X111482190Y-132024380D02*
X111482190Y-131024380D01*
X111244095Y-131024380D01*
X111101238Y-131072000D01*
X111006000Y-131167238D01*
X110958380Y-131262476D01*
X110910761Y-131452952D01*
X110910761Y-131595809D01*
X110958380Y-131786285D01*
X111006000Y-131881523D01*
X111101238Y-131976761D01*
X111244095Y-132024380D01*
X111482190Y-132024380D01*
X110482190Y-132024380D02*
X110482190Y-131024380D01*
X109815523Y-131024380D02*
X109625047Y-131024380D01*
X109529809Y-131072000D01*
X109434571Y-131167238D01*
X109386952Y-131357714D01*
X109386952Y-131691047D01*
X109434571Y-131881523D01*
X109529809Y-131976761D01*
X109625047Y-132024380D01*
X109815523Y-132024380D01*
X109910761Y-131976761D01*
X110006000Y-131881523D01*
X110053619Y-131691047D01*
X110053619Y-131357714D01*
X110006000Y-131167238D01*
X109910761Y-131072000D01*
X109815523Y-131024380D01*
X113974190Y-133564380D02*
X113640857Y-134564380D01*
X113307523Y-133564380D01*
X113117047Y-133564380D02*
X112545619Y-133564380D01*
X112831333Y-134564380D02*
X112831333Y-133564380D01*
X112259904Y-134278666D02*
X111783714Y-134278666D01*
X112355142Y-134564380D02*
X112021809Y-133564380D01*
X111688476Y-134564380D01*
X110783714Y-134564380D02*
X111117047Y-134088190D01*
X111355142Y-134564380D02*
X111355142Y-133564380D01*
X110974190Y-133564380D01*
X110878952Y-133612000D01*
X110831333Y-133659619D01*
X110783714Y-133754857D01*
X110783714Y-133897714D01*
X110831333Y-133992952D01*
X110878952Y-134040571D01*
X110974190Y-134088190D01*
X111355142Y-134088190D01*
X109831333Y-133612000D02*
X109926571Y-133564380D01*
X110069428Y-133564380D01*
X110212285Y-133612000D01*
X110307523Y-133707238D01*
X110355142Y-133802476D01*
X110402761Y-133992952D01*
X110402761Y-134135809D01*
X110355142Y-134326285D01*
X110307523Y-134421523D01*
X110212285Y-134516761D01*
X110069428Y-134564380D01*
X109974190Y-134564380D01*
X109831333Y-134516761D01*
X109783714Y-134469142D01*
X109783714Y-134135809D01*
X109974190Y-134135809D01*
X109355142Y-134040571D02*
X109021809Y-134040571D01*
X108878952Y-134564380D02*
X109355142Y-134564380D01*
X109355142Y-133564380D01*
X108878952Y-133564380D01*
X108593238Y-133564380D02*
X108021809Y-133564380D01*
X108307523Y-134564380D02*
X108307523Y-133564380D01*
X124015523Y-129754380D02*
X124206000Y-129754380D01*
X124301238Y-129802000D01*
X124348857Y-129849619D01*
X124444095Y-129992476D01*
X124491714Y-130182952D01*
X124491714Y-130563904D01*
X124444095Y-130659142D01*
X124396476Y-130706761D01*
X124301238Y-130754380D01*
X124110761Y-130754380D01*
X124015523Y-130706761D01*
X123967904Y-130659142D01*
X123920285Y-130563904D01*
X123920285Y-130325809D01*
X123967904Y-130230571D01*
X124015523Y-130182952D01*
X124110761Y-130135333D01*
X124301238Y-130135333D01*
X124396476Y-130182952D01*
X124444095Y-130230571D01*
X124491714Y-130325809D01*
X113767904Y-129436761D02*
X113625047Y-129484380D01*
X113386952Y-129484380D01*
X113291714Y-129436761D01*
X113244095Y-129389142D01*
X113196476Y-129293904D01*
X113196476Y-129198666D01*
X113244095Y-129103428D01*
X113291714Y-129055809D01*
X113386952Y-129008190D01*
X113577428Y-128960571D01*
X113672666Y-128912952D01*
X113720285Y-128865333D01*
X113767904Y-128770095D01*
X113767904Y-128674857D01*
X113720285Y-128579619D01*
X113672666Y-128532000D01*
X113577428Y-128484380D01*
X113339333Y-128484380D01*
X113196476Y-128532000D01*
X112863142Y-128484380D02*
X112625047Y-129484380D01*
X112434571Y-128770095D01*
X112244095Y-129484380D01*
X112006000Y-128484380D01*
X111053619Y-129389142D02*
X111101238Y-129436761D01*
X111244095Y-129484380D01*
X111339333Y-129484380D01*
X111482190Y-129436761D01*
X111577428Y-129341523D01*
X111625047Y-129246285D01*
X111672666Y-129055809D01*
X111672666Y-128912952D01*
X111625047Y-128722476D01*
X111577428Y-128627238D01*
X111482190Y-128532000D01*
X111339333Y-128484380D01*
X111244095Y-128484380D01*
X111101238Y-128532000D01*
X111053619Y-128579619D01*
X110148857Y-129484380D02*
X110625047Y-129484380D01*
X110625047Y-128484380D01*
X109815523Y-129484380D02*
X109815523Y-128484380D01*
X109244095Y-129484380D02*
X109672666Y-128912952D01*
X109244095Y-128484380D02*
X109815523Y-129055809D01*
X124761619Y-71334380D02*
X124666380Y-71334380D01*
X124571142Y-71382000D01*
X124523523Y-71429619D01*
X124475904Y-71524857D01*
X124428285Y-71715333D01*
X124428285Y-71953428D01*
X124475904Y-72143904D01*
X124523523Y-72239142D01*
X124571142Y-72286761D01*
X124666380Y-72334380D01*
X124761619Y-72334380D01*
X124856857Y-72286761D01*
X124904476Y-72239142D01*
X124952095Y-72143904D01*
X124999714Y-71953428D01*
X124999714Y-71715333D01*
X124952095Y-71524857D01*
X124904476Y-71429619D01*
X124856857Y-71382000D01*
X124761619Y-71334380D01*
X124015523Y-120181714D02*
X124015523Y-120848380D01*
X124253619Y-119800761D02*
X124491714Y-120515047D01*
X123872666Y-120515047D01*
X124475904Y-87590380D02*
X124952095Y-87590380D01*
X124999714Y-88066571D01*
X124952095Y-88018952D01*
X124856857Y-87971333D01*
X124618761Y-87971333D01*
X124523523Y-88018952D01*
X124475904Y-88066571D01*
X124428285Y-88161809D01*
X124428285Y-88399904D01*
X124475904Y-88495142D01*
X124523523Y-88542761D01*
X124618761Y-88590380D01*
X124856857Y-88590380D01*
X124952095Y-88542761D01*
X124999714Y-88495142D01*
X104425619Y-145645142D02*
X104473238Y-145692761D01*
X104616095Y-145740380D01*
X104711333Y-145740380D01*
X104854190Y-145692761D01*
X104949428Y-145597523D01*
X104997047Y-145502285D01*
X105044666Y-145311809D01*
X105044666Y-145168952D01*
X104997047Y-144978476D01*
X104949428Y-144883238D01*
X104854190Y-144788000D01*
X104711333Y-144740380D01*
X104616095Y-144740380D01*
X104473238Y-144788000D01*
X104425619Y-144835619D01*
X104044666Y-145454666D02*
X103568476Y-145454666D01*
X104139904Y-145740380D02*
X103806571Y-144740380D01*
X103473238Y-145740380D01*
X103139904Y-145740380D02*
X103139904Y-144740380D01*
X102568476Y-145740380D01*
X102568476Y-144740380D01*
X101616095Y-145740380D02*
X102092285Y-145740380D01*
X102092285Y-144740380D01*
X124523523Y-90130380D02*
X124714000Y-90130380D01*
X124809238Y-90178000D01*
X124856857Y-90225619D01*
X124952095Y-90368476D01*
X124999714Y-90558952D01*
X124999714Y-90939904D01*
X124952095Y-91035142D01*
X124904476Y-91082761D01*
X124809238Y-91130380D01*
X124618761Y-91130380D01*
X124523523Y-91082761D01*
X124475904Y-91035142D01*
X124428285Y-90939904D01*
X124428285Y-90701809D01*
X124475904Y-90606571D01*
X124523523Y-90558952D01*
X124618761Y-90511333D01*
X124809238Y-90511333D01*
X124904476Y-90558952D01*
X124952095Y-90606571D01*
X124999714Y-90701809D01*
X124142190Y-117038380D02*
X124713619Y-117038380D01*
X124427904Y-117038380D02*
X124427904Y-116038380D01*
X124523142Y-116181238D01*
X124618380Y-116276476D01*
X124713619Y-116324095D01*
X123523142Y-116038380D02*
X123427904Y-116038380D01*
X123332666Y-116086000D01*
X123285047Y-116133619D01*
X123237428Y-116228857D01*
X123189809Y-116419333D01*
X123189809Y-116657428D01*
X123237428Y-116847904D01*
X123285047Y-116943142D01*
X123332666Y-116990761D01*
X123427904Y-117038380D01*
X123523142Y-117038380D01*
X123618380Y-116990761D01*
X123666000Y-116943142D01*
X123713619Y-116847904D01*
X123761238Y-116657428D01*
X123761238Y-116419333D01*
X123713619Y-116228857D01*
X123666000Y-116133619D01*
X123618380Y-116086000D01*
X123523142Y-116038380D01*
X122761238Y-117038380D02*
X122761238Y-116038380D01*
X122189809Y-117038380D02*
X122618380Y-116466952D01*
X122189809Y-116038380D02*
X122761238Y-116609809D01*
X120999333Y-117038380D02*
X120999333Y-116038380D01*
X120427904Y-117038380D01*
X120427904Y-116038380D01*
X120094571Y-116038380D02*
X119523142Y-116038380D01*
X119808857Y-117038380D02*
X119808857Y-116038380D01*
X118618380Y-116943142D02*
X118666000Y-116990761D01*
X118808857Y-117038380D01*
X118904095Y-117038380D01*
X119046952Y-116990761D01*
X119142190Y-116895523D01*
X119189809Y-116800285D01*
X119237428Y-116609809D01*
X119237428Y-116466952D01*
X119189809Y-116276476D01*
X119142190Y-116181238D01*
X119046952Y-116086000D01*
X118904095Y-116038380D01*
X118808857Y-116038380D01*
X118666000Y-116086000D01*
X118618380Y-116133619D01*
D11*
%TO.C,D9*%
X109958095Y-143962380D02*
X109958095Y-142962380D01*
X109720000Y-142962380D01*
X109577142Y-143010000D01*
X109481904Y-143105238D01*
X109434285Y-143200476D01*
X109386666Y-143390952D01*
X109386666Y-143533809D01*
X109434285Y-143724285D01*
X109481904Y-143819523D01*
X109577142Y-143914761D01*
X109720000Y-143962380D01*
X109958095Y-143962380D01*
X108910476Y-143962380D02*
X108720000Y-143962380D01*
X108624761Y-143914761D01*
X108577142Y-143867142D01*
X108481904Y-143724285D01*
X108434285Y-143533809D01*
X108434285Y-143152857D01*
X108481904Y-143057619D01*
X108529523Y-143010000D01*
X108624761Y-142962380D01*
X108815238Y-142962380D01*
X108910476Y-143010000D01*
X108958095Y-143057619D01*
X109005714Y-143152857D01*
X109005714Y-143390952D01*
X108958095Y-143486190D01*
X108910476Y-143533809D01*
X108815238Y-143581428D01*
X108624761Y-143581428D01*
X108529523Y-143533809D01*
X108481904Y-143486190D01*
X108434285Y-143390952D01*
%TO.C,D12*%
X121102285Y-133548380D02*
X121102285Y-132548380D01*
X120864190Y-132548380D01*
X120721333Y-132596000D01*
X120626095Y-132691238D01*
X120578476Y-132786476D01*
X120530857Y-132976952D01*
X120530857Y-133119809D01*
X120578476Y-133310285D01*
X120626095Y-133405523D01*
X120721333Y-133500761D01*
X120864190Y-133548380D01*
X121102285Y-133548380D01*
X119578476Y-133548380D02*
X120149904Y-133548380D01*
X119864190Y-133548380D02*
X119864190Y-132548380D01*
X119959428Y-132691238D01*
X120054666Y-132786476D01*
X120149904Y-132834095D01*
X119197523Y-132643619D02*
X119149904Y-132596000D01*
X119054666Y-132548380D01*
X118816571Y-132548380D01*
X118721333Y-132596000D01*
X118673714Y-132643619D01*
X118626095Y-132738857D01*
X118626095Y-132834095D01*
X118673714Y-132976952D01*
X119245142Y-133548380D01*
X118626095Y-133548380D01*
%TO.C,Q8*%
X108807238Y-61253619D02*
X108902476Y-61206000D01*
X108997714Y-61110761D01*
X109140571Y-60967904D01*
X109235809Y-60920285D01*
X109331047Y-60920285D01*
X109283428Y-61158380D02*
X109378666Y-61110761D01*
X109473904Y-61015523D01*
X109521523Y-60825047D01*
X109521523Y-60491714D01*
X109473904Y-60301238D01*
X109378666Y-60206000D01*
X109283428Y-60158380D01*
X109092952Y-60158380D01*
X108997714Y-60206000D01*
X108902476Y-60301238D01*
X108854857Y-60491714D01*
X108854857Y-60825047D01*
X108902476Y-61015523D01*
X108997714Y-61110761D01*
X109092952Y-61158380D01*
X109283428Y-61158380D01*
X108283428Y-60586952D02*
X108378666Y-60539333D01*
X108426285Y-60491714D01*
X108473904Y-60396476D01*
X108473904Y-60348857D01*
X108426285Y-60253619D01*
X108378666Y-60206000D01*
X108283428Y-60158380D01*
X108092952Y-60158380D01*
X107997714Y-60206000D01*
X107950095Y-60253619D01*
X107902476Y-60348857D01*
X107902476Y-60396476D01*
X107950095Y-60491714D01*
X107997714Y-60539333D01*
X108092952Y-60586952D01*
X108283428Y-60586952D01*
X108378666Y-60634571D01*
X108426285Y-60682190D01*
X108473904Y-60777428D01*
X108473904Y-60967904D01*
X108426285Y-61063142D01*
X108378666Y-61110761D01*
X108283428Y-61158380D01*
X108092952Y-61158380D01*
X107997714Y-61110761D01*
X107950095Y-61063142D01*
X107902476Y-60967904D01*
X107902476Y-60777428D01*
X107950095Y-60682190D01*
X107997714Y-60634571D01*
X108092952Y-60586952D01*
%TO.C,D8*%
X112498095Y-150058380D02*
X112498095Y-149058380D01*
X112260000Y-149058380D01*
X112117142Y-149106000D01*
X112021904Y-149201238D01*
X111974285Y-149296476D01*
X111926666Y-149486952D01*
X111926666Y-149629809D01*
X111974285Y-149820285D01*
X112021904Y-149915523D01*
X112117142Y-150010761D01*
X112260000Y-150058380D01*
X112498095Y-150058380D01*
X111355238Y-149486952D02*
X111450476Y-149439333D01*
X111498095Y-149391714D01*
X111545714Y-149296476D01*
X111545714Y-149248857D01*
X111498095Y-149153619D01*
X111450476Y-149106000D01*
X111355238Y-149058380D01*
X111164761Y-149058380D01*
X111069523Y-149106000D01*
X111021904Y-149153619D01*
X110974285Y-149248857D01*
X110974285Y-149296476D01*
X111021904Y-149391714D01*
X111069523Y-149439333D01*
X111164761Y-149486952D01*
X111355238Y-149486952D01*
X111450476Y-149534571D01*
X111498095Y-149582190D01*
X111545714Y-149677428D01*
X111545714Y-149867904D01*
X111498095Y-149963142D01*
X111450476Y-150010761D01*
X111355238Y-150058380D01*
X111164761Y-150058380D01*
X111069523Y-150010761D01*
X111021904Y-149963142D01*
X110974285Y-149867904D01*
X110974285Y-149677428D01*
X111021904Y-149582190D01*
X111069523Y-149534571D01*
X111164761Y-149486952D01*
%TO.C,Q5*%
X93059238Y-87161619D02*
X93154476Y-87114000D01*
X93249714Y-87018761D01*
X93392571Y-86875904D01*
X93487809Y-86828285D01*
X93583047Y-86828285D01*
X93535428Y-87066380D02*
X93630666Y-87018761D01*
X93725904Y-86923523D01*
X93773523Y-86733047D01*
X93773523Y-86399714D01*
X93725904Y-86209238D01*
X93630666Y-86114000D01*
X93535428Y-86066380D01*
X93344952Y-86066380D01*
X93249714Y-86114000D01*
X93154476Y-86209238D01*
X93106857Y-86399714D01*
X93106857Y-86733047D01*
X93154476Y-86923523D01*
X93249714Y-87018761D01*
X93344952Y-87066380D01*
X93535428Y-87066380D01*
X92202095Y-86066380D02*
X92678285Y-86066380D01*
X92725904Y-86542571D01*
X92678285Y-86494952D01*
X92583047Y-86447333D01*
X92344952Y-86447333D01*
X92249714Y-86494952D01*
X92202095Y-86542571D01*
X92154476Y-86637809D01*
X92154476Y-86875904D01*
X92202095Y-86971142D01*
X92249714Y-87018761D01*
X92344952Y-87066380D01*
X92583047Y-87066380D01*
X92678285Y-87018761D01*
X92725904Y-86971142D01*
%TO.C,Q7*%
X90773238Y-60999619D02*
X90868476Y-60952000D01*
X90963714Y-60856761D01*
X91106571Y-60713904D01*
X91201809Y-60666285D01*
X91297047Y-60666285D01*
X91249428Y-60904380D02*
X91344666Y-60856761D01*
X91439904Y-60761523D01*
X91487523Y-60571047D01*
X91487523Y-60237714D01*
X91439904Y-60047238D01*
X91344666Y-59952000D01*
X91249428Y-59904380D01*
X91058952Y-59904380D01*
X90963714Y-59952000D01*
X90868476Y-60047238D01*
X90820857Y-60237714D01*
X90820857Y-60571047D01*
X90868476Y-60761523D01*
X90963714Y-60856761D01*
X91058952Y-60904380D01*
X91249428Y-60904380D01*
X90487523Y-59904380D02*
X89820857Y-59904380D01*
X90249428Y-60904380D01*
%TO.C,Q4*%
X92805238Y-79795619D02*
X92900476Y-79748000D01*
X92995714Y-79652761D01*
X93138571Y-79509904D01*
X93233809Y-79462285D01*
X93329047Y-79462285D01*
X93281428Y-79700380D02*
X93376666Y-79652761D01*
X93471904Y-79557523D01*
X93519523Y-79367047D01*
X93519523Y-79033714D01*
X93471904Y-78843238D01*
X93376666Y-78748000D01*
X93281428Y-78700380D01*
X93090952Y-78700380D01*
X92995714Y-78748000D01*
X92900476Y-78843238D01*
X92852857Y-79033714D01*
X92852857Y-79367047D01*
X92900476Y-79557523D01*
X92995714Y-79652761D01*
X93090952Y-79700380D01*
X93281428Y-79700380D01*
X91995714Y-79033714D02*
X91995714Y-79700380D01*
X92233809Y-78652761D02*
X92471904Y-79367047D01*
X91852857Y-79367047D01*
%TO.C,D11*%
X121220412Y-134990380D02*
X121220412Y-133990380D01*
X120982317Y-133990380D01*
X120839460Y-134038000D01*
X120744222Y-134133238D01*
X120696603Y-134228476D01*
X120648984Y-134418952D01*
X120648984Y-134561809D01*
X120696603Y-134752285D01*
X120744222Y-134847523D01*
X120839460Y-134942761D01*
X120982317Y-134990380D01*
X121220412Y-134990380D01*
X119696603Y-134990380D02*
X120268031Y-134990380D01*
X119982317Y-134990380D02*
X119982317Y-133990380D01*
X120077555Y-134133238D01*
X120172793Y-134228476D01*
X120268031Y-134276095D01*
X118744222Y-134990380D02*
X119315650Y-134990380D01*
X119029936Y-134990380D02*
X119029936Y-133990380D01*
X119125174Y-134133238D01*
X119220412Y-134228476D01*
X119315650Y-134276095D01*
%TO.C,D15*%
X118308285Y-111567380D02*
X118308285Y-110567380D01*
X118070190Y-110567380D01*
X117927333Y-110615000D01*
X117832095Y-110710238D01*
X117784476Y-110805476D01*
X117736857Y-110995952D01*
X117736857Y-111138809D01*
X117784476Y-111329285D01*
X117832095Y-111424523D01*
X117927333Y-111519761D01*
X118070190Y-111567380D01*
X118308285Y-111567380D01*
X116784476Y-111567380D02*
X117355904Y-111567380D01*
X117070190Y-111567380D02*
X117070190Y-110567380D01*
X117165428Y-110710238D01*
X117260666Y-110805476D01*
X117355904Y-110853095D01*
X115879714Y-110567380D02*
X116355904Y-110567380D01*
X116403523Y-111043571D01*
X116355904Y-110995952D01*
X116260666Y-110948333D01*
X116022571Y-110948333D01*
X115927333Y-110995952D01*
X115879714Y-111043571D01*
X115832095Y-111138809D01*
X115832095Y-111376904D01*
X115879714Y-111472142D01*
X115927333Y-111519761D01*
X116022571Y-111567380D01*
X116260666Y-111567380D01*
X116355904Y-111519761D01*
X116403523Y-111472142D01*
%TO.C,Q3*%
X92805238Y-104941619D02*
X92900476Y-104894000D01*
X92995714Y-104798761D01*
X93138571Y-104655904D01*
X93233809Y-104608285D01*
X93329047Y-104608285D01*
X93281428Y-104846380D02*
X93376666Y-104798761D01*
X93471904Y-104703523D01*
X93519523Y-104513047D01*
X93519523Y-104179714D01*
X93471904Y-103989238D01*
X93376666Y-103894000D01*
X93281428Y-103846380D01*
X93090952Y-103846380D01*
X92995714Y-103894000D01*
X92900476Y-103989238D01*
X92852857Y-104179714D01*
X92852857Y-104513047D01*
X92900476Y-104703523D01*
X92995714Y-104798761D01*
X93090952Y-104846380D01*
X93281428Y-104846380D01*
X92519523Y-103846380D02*
X91900476Y-103846380D01*
X92233809Y-104227333D01*
X92090952Y-104227333D01*
X91995714Y-104274952D01*
X91948095Y-104322571D01*
X91900476Y-104417809D01*
X91900476Y-104655904D01*
X91948095Y-104751142D01*
X91995714Y-104798761D01*
X92090952Y-104846380D01*
X92376666Y-104846380D01*
X92471904Y-104798761D01*
X92519523Y-104751142D01*
%TO.C,D5*%
X115459380Y-124356904D02*
X114459380Y-124356904D01*
X114459380Y-124595000D01*
X114507000Y-124737857D01*
X114602238Y-124833095D01*
X114697476Y-124880714D01*
X114887952Y-124928333D01*
X115030809Y-124928333D01*
X115221285Y-124880714D01*
X115316523Y-124833095D01*
X115411761Y-124737857D01*
X115459380Y-124595000D01*
X115459380Y-124356904D01*
X114459380Y-125833095D02*
X114459380Y-125356904D01*
X114935571Y-125309285D01*
X114887952Y-125356904D01*
X114840333Y-125452142D01*
X114840333Y-125690238D01*
X114887952Y-125785476D01*
X114935571Y-125833095D01*
X115030809Y-125880714D01*
X115268904Y-125880714D01*
X115364142Y-125833095D01*
X115411761Y-125785476D01*
X115459380Y-125690238D01*
X115459380Y-125452142D01*
X115411761Y-125356904D01*
X115364142Y-125309285D01*
%TO.C,R36*%
X102496857Y-56332380D02*
X102830190Y-55856190D01*
X103068285Y-56332380D02*
X103068285Y-55332380D01*
X102687333Y-55332380D01*
X102592095Y-55380000D01*
X102544476Y-55427619D01*
X102496857Y-55522857D01*
X102496857Y-55665714D01*
X102544476Y-55760952D01*
X102592095Y-55808571D01*
X102687333Y-55856190D01*
X103068285Y-55856190D01*
X102163523Y-55332380D02*
X101544476Y-55332380D01*
X101877809Y-55713333D01*
X101734952Y-55713333D01*
X101639714Y-55760952D01*
X101592095Y-55808571D01*
X101544476Y-55903809D01*
X101544476Y-56141904D01*
X101592095Y-56237142D01*
X101639714Y-56284761D01*
X101734952Y-56332380D01*
X102020666Y-56332380D01*
X102115904Y-56284761D01*
X102163523Y-56237142D01*
X100687333Y-55332380D02*
X100877809Y-55332380D01*
X100973047Y-55380000D01*
X101020666Y-55427619D01*
X101115904Y-55570476D01*
X101163523Y-55760952D01*
X101163523Y-56141904D01*
X101115904Y-56237142D01*
X101068285Y-56284761D01*
X100973047Y-56332380D01*
X100782571Y-56332380D01*
X100687333Y-56284761D01*
X100639714Y-56237142D01*
X100592095Y-56141904D01*
X100592095Y-55903809D01*
X100639714Y-55808571D01*
X100687333Y-55760952D01*
X100782571Y-55713333D01*
X100973047Y-55713333D01*
X101068285Y-55760952D01*
X101115904Y-55808571D01*
X101163523Y-55903809D01*
%TO.C,D22*%
X117038285Y-82494380D02*
X117038285Y-81494380D01*
X116800190Y-81494380D01*
X116657333Y-81542000D01*
X116562095Y-81637238D01*
X116514476Y-81732476D01*
X116466857Y-81922952D01*
X116466857Y-82065809D01*
X116514476Y-82256285D01*
X116562095Y-82351523D01*
X116657333Y-82446761D01*
X116800190Y-82494380D01*
X117038285Y-82494380D01*
X116085904Y-81589619D02*
X116038285Y-81542000D01*
X115943047Y-81494380D01*
X115704952Y-81494380D01*
X115609714Y-81542000D01*
X115562095Y-81589619D01*
X115514476Y-81684857D01*
X115514476Y-81780095D01*
X115562095Y-81922952D01*
X116133523Y-82494380D01*
X115514476Y-82494380D01*
X115133523Y-81589619D02*
X115085904Y-81542000D01*
X114990666Y-81494380D01*
X114752571Y-81494380D01*
X114657333Y-81542000D01*
X114609714Y-81589619D01*
X114562095Y-81684857D01*
X114562095Y-81780095D01*
X114609714Y-81922952D01*
X115181142Y-82494380D01*
X114562095Y-82494380D01*
%TO.C,D13*%
X121102285Y-123134380D02*
X121102285Y-122134380D01*
X120864190Y-122134380D01*
X120721333Y-122182000D01*
X120626095Y-122277238D01*
X120578476Y-122372476D01*
X120530857Y-122562952D01*
X120530857Y-122705809D01*
X120578476Y-122896285D01*
X120626095Y-122991523D01*
X120721333Y-123086761D01*
X120864190Y-123134380D01*
X121102285Y-123134380D01*
X119578476Y-123134380D02*
X120149904Y-123134380D01*
X119864190Y-123134380D02*
X119864190Y-122134380D01*
X119959428Y-122277238D01*
X120054666Y-122372476D01*
X120149904Y-122420095D01*
X119245142Y-122134380D02*
X118626095Y-122134380D01*
X118959428Y-122515333D01*
X118816571Y-122515333D01*
X118721333Y-122562952D01*
X118673714Y-122610571D01*
X118626095Y-122705809D01*
X118626095Y-122943904D01*
X118673714Y-123039142D01*
X118721333Y-123086761D01*
X118816571Y-123134380D01*
X119102285Y-123134380D01*
X119197523Y-123086761D01*
X119245142Y-123039142D01*
%TO.C,R39*%
X64396857Y-68524380D02*
X64730190Y-68048190D01*
X64968285Y-68524380D02*
X64968285Y-67524380D01*
X64587333Y-67524380D01*
X64492095Y-67572000D01*
X64444476Y-67619619D01*
X64396857Y-67714857D01*
X64396857Y-67857714D01*
X64444476Y-67952952D01*
X64492095Y-68000571D01*
X64587333Y-68048190D01*
X64968285Y-68048190D01*
X64063523Y-67524380D02*
X63444476Y-67524380D01*
X63777809Y-67905333D01*
X63634952Y-67905333D01*
X63539714Y-67952952D01*
X63492095Y-68000571D01*
X63444476Y-68095809D01*
X63444476Y-68333904D01*
X63492095Y-68429142D01*
X63539714Y-68476761D01*
X63634952Y-68524380D01*
X63920666Y-68524380D01*
X64015904Y-68476761D01*
X64063523Y-68429142D01*
X62968285Y-68524380D02*
X62777809Y-68524380D01*
X62682571Y-68476761D01*
X62634952Y-68429142D01*
X62539714Y-68286285D01*
X62492095Y-68095809D01*
X62492095Y-67714857D01*
X62539714Y-67619619D01*
X62587333Y-67572000D01*
X62682571Y-67524380D01*
X62873047Y-67524380D01*
X62968285Y-67572000D01*
X63015904Y-67619619D01*
X63063523Y-67714857D01*
X63063523Y-67952952D01*
X63015904Y-68048190D01*
X62968285Y-68095809D01*
X62873047Y-68143428D01*
X62682571Y-68143428D01*
X62587333Y-68095809D01*
X62539714Y-68048190D01*
X62492095Y-67952952D01*
%TO.C,D31*%
X81732285Y-73096380D02*
X81732285Y-72096380D01*
X81494190Y-72096380D01*
X81351333Y-72144000D01*
X81256095Y-72239238D01*
X81208476Y-72334476D01*
X81160857Y-72524952D01*
X81160857Y-72667809D01*
X81208476Y-72858285D01*
X81256095Y-72953523D01*
X81351333Y-73048761D01*
X81494190Y-73096380D01*
X81732285Y-73096380D01*
X80827523Y-72096380D02*
X80208476Y-72096380D01*
X80541809Y-72477333D01*
X80398952Y-72477333D01*
X80303714Y-72524952D01*
X80256095Y-72572571D01*
X80208476Y-72667809D01*
X80208476Y-72905904D01*
X80256095Y-73001142D01*
X80303714Y-73048761D01*
X80398952Y-73096380D01*
X80684666Y-73096380D01*
X80779904Y-73048761D01*
X80827523Y-73001142D01*
X79256095Y-73096380D02*
X79827523Y-73096380D01*
X79541809Y-73096380D02*
X79541809Y-72096380D01*
X79637047Y-72239238D01*
X79732285Y-72334476D01*
X79827523Y-72382095D01*
%TO.C,Q6*%
X93059238Y-97067619D02*
X93154476Y-97020000D01*
X93249714Y-96924761D01*
X93392571Y-96781904D01*
X93487809Y-96734285D01*
X93583047Y-96734285D01*
X93535428Y-96972380D02*
X93630666Y-96924761D01*
X93725904Y-96829523D01*
X93773523Y-96639047D01*
X93773523Y-96305714D01*
X93725904Y-96115238D01*
X93630666Y-96020000D01*
X93535428Y-95972380D01*
X93344952Y-95972380D01*
X93249714Y-96020000D01*
X93154476Y-96115238D01*
X93106857Y-96305714D01*
X93106857Y-96639047D01*
X93154476Y-96829523D01*
X93249714Y-96924761D01*
X93344952Y-96972380D01*
X93535428Y-96972380D01*
X92249714Y-95972380D02*
X92440190Y-95972380D01*
X92535428Y-96020000D01*
X92583047Y-96067619D01*
X92678285Y-96210476D01*
X92725904Y-96400952D01*
X92725904Y-96781904D01*
X92678285Y-96877142D01*
X92630666Y-96924761D01*
X92535428Y-96972380D01*
X92344952Y-96972380D01*
X92249714Y-96924761D01*
X92202095Y-96877142D01*
X92154476Y-96781904D01*
X92154476Y-96543809D01*
X92202095Y-96448571D01*
X92249714Y-96400952D01*
X92344952Y-96353333D01*
X92535428Y-96353333D01*
X92630666Y-96400952D01*
X92678285Y-96448571D01*
X92725904Y-96543809D01*
%TO.C,D10*%
X121982412Y-140070380D02*
X121982412Y-139070380D01*
X121744317Y-139070380D01*
X121601460Y-139118000D01*
X121506222Y-139213238D01*
X121458603Y-139308476D01*
X121410984Y-139498952D01*
X121410984Y-139641809D01*
X121458603Y-139832285D01*
X121506222Y-139927523D01*
X121601460Y-140022761D01*
X121744317Y-140070380D01*
X121982412Y-140070380D01*
X120458603Y-140070380D02*
X121030031Y-140070380D01*
X120744317Y-140070380D02*
X120744317Y-139070380D01*
X120839555Y-139213238D01*
X120934793Y-139308476D01*
X121030031Y-139356095D01*
X119839555Y-139070380D02*
X119744317Y-139070380D01*
X119649079Y-139118000D01*
X119601460Y-139165619D01*
X119553841Y-139260857D01*
X119506222Y-139451333D01*
X119506222Y-139689428D01*
X119553841Y-139879904D01*
X119601460Y-139975142D01*
X119649079Y-140022761D01*
X119744317Y-140070380D01*
X119839555Y-140070380D01*
X119934793Y-140022761D01*
X119982412Y-139975142D01*
X120030031Y-139879904D01*
X120077650Y-139689428D01*
X120077650Y-139451333D01*
X120030031Y-139260857D01*
X119982412Y-139165619D01*
X119934793Y-139118000D01*
X119839555Y-139070380D01*
%TO.C,D30*%
X74366285Y-61412380D02*
X74366285Y-60412380D01*
X74128190Y-60412380D01*
X73985333Y-60460000D01*
X73890095Y-60555238D01*
X73842476Y-60650476D01*
X73794857Y-60840952D01*
X73794857Y-60983809D01*
X73842476Y-61174285D01*
X73890095Y-61269523D01*
X73985333Y-61364761D01*
X74128190Y-61412380D01*
X74366285Y-61412380D01*
X73461523Y-60412380D02*
X72842476Y-60412380D01*
X73175809Y-60793333D01*
X73032952Y-60793333D01*
X72937714Y-60840952D01*
X72890095Y-60888571D01*
X72842476Y-60983809D01*
X72842476Y-61221904D01*
X72890095Y-61317142D01*
X72937714Y-61364761D01*
X73032952Y-61412380D01*
X73318666Y-61412380D01*
X73413904Y-61364761D01*
X73461523Y-61317142D01*
X72223428Y-60412380D02*
X72128190Y-60412380D01*
X72032952Y-60460000D01*
X71985333Y-60507619D01*
X71937714Y-60602857D01*
X71890095Y-60793333D01*
X71890095Y-61031428D01*
X71937714Y-61221904D01*
X71985333Y-61317142D01*
X72032952Y-61364761D01*
X72128190Y-61412380D01*
X72223428Y-61412380D01*
X72318666Y-61364761D01*
X72366285Y-61317142D01*
X72413904Y-61221904D01*
X72461523Y-61031428D01*
X72461523Y-60793333D01*
X72413904Y-60602857D01*
X72366285Y-60507619D01*
X72318666Y-60460000D01*
X72223428Y-60412380D01*
%TO.C,D14*%
X118816285Y-120457380D02*
X118816285Y-119457380D01*
X118578190Y-119457380D01*
X118435333Y-119505000D01*
X118340095Y-119600238D01*
X118292476Y-119695476D01*
X118244857Y-119885952D01*
X118244857Y-120028809D01*
X118292476Y-120219285D01*
X118340095Y-120314523D01*
X118435333Y-120409761D01*
X118578190Y-120457380D01*
X118816285Y-120457380D01*
X117292476Y-120457380D02*
X117863904Y-120457380D01*
X117578190Y-120457380D02*
X117578190Y-119457380D01*
X117673428Y-119600238D01*
X117768666Y-119695476D01*
X117863904Y-119743095D01*
X116435333Y-119790714D02*
X116435333Y-120457380D01*
X116673428Y-119409761D02*
X116911523Y-120124047D01*
X116292476Y-120124047D01*
%TO.C,D7*%
X117832095Y-133548380D02*
X117832095Y-132548380D01*
X117594000Y-132548380D01*
X117451142Y-132596000D01*
X117355904Y-132691238D01*
X117308285Y-132786476D01*
X117260666Y-132976952D01*
X117260666Y-133119809D01*
X117308285Y-133310285D01*
X117355904Y-133405523D01*
X117451142Y-133500761D01*
X117594000Y-133548380D01*
X117832095Y-133548380D01*
X116927333Y-132548380D02*
X116260666Y-132548380D01*
X116689238Y-133548380D01*
%TO.C,D17*%
X118562285Y-101407380D02*
X118562285Y-100407380D01*
X118324190Y-100407380D01*
X118181333Y-100455000D01*
X118086095Y-100550238D01*
X118038476Y-100645476D01*
X117990857Y-100835952D01*
X117990857Y-100978809D01*
X118038476Y-101169285D01*
X118086095Y-101264523D01*
X118181333Y-101359761D01*
X118324190Y-101407380D01*
X118562285Y-101407380D01*
X117038476Y-101407380D02*
X117609904Y-101407380D01*
X117324190Y-101407380D02*
X117324190Y-100407380D01*
X117419428Y-100550238D01*
X117514666Y-100645476D01*
X117609904Y-100693095D01*
X116705142Y-100407380D02*
X116038476Y-100407380D01*
X116467047Y-101407380D01*
%TO.C,R30*%
X86748857Y-92146380D02*
X87082190Y-91670190D01*
X87320285Y-92146380D02*
X87320285Y-91146380D01*
X86939333Y-91146380D01*
X86844095Y-91194000D01*
X86796476Y-91241619D01*
X86748857Y-91336857D01*
X86748857Y-91479714D01*
X86796476Y-91574952D01*
X86844095Y-91622571D01*
X86939333Y-91670190D01*
X87320285Y-91670190D01*
X86415523Y-91146380D02*
X85796476Y-91146380D01*
X86129809Y-91527333D01*
X85986952Y-91527333D01*
X85891714Y-91574952D01*
X85844095Y-91622571D01*
X85796476Y-91717809D01*
X85796476Y-91955904D01*
X85844095Y-92051142D01*
X85891714Y-92098761D01*
X85986952Y-92146380D01*
X86272666Y-92146380D01*
X86367904Y-92098761D01*
X86415523Y-92051142D01*
X85177428Y-91146380D02*
X85082190Y-91146380D01*
X84986952Y-91194000D01*
X84939333Y-91241619D01*
X84891714Y-91336857D01*
X84844095Y-91527333D01*
X84844095Y-91765428D01*
X84891714Y-91955904D01*
X84939333Y-92051142D01*
X84986952Y-92098761D01*
X85082190Y-92146380D01*
X85177428Y-92146380D01*
X85272666Y-92098761D01*
X85320285Y-92051142D01*
X85367904Y-91955904D01*
X85415523Y-91765428D01*
X85415523Y-91527333D01*
X85367904Y-91336857D01*
X85320285Y-91241619D01*
X85272666Y-91194000D01*
X85177428Y-91146380D01*
%TO.C,D6*%
X118086095Y-122880380D02*
X118086095Y-121880380D01*
X117848000Y-121880380D01*
X117705142Y-121928000D01*
X117609904Y-122023238D01*
X117562285Y-122118476D01*
X117514666Y-122308952D01*
X117514666Y-122451809D01*
X117562285Y-122642285D01*
X117609904Y-122737523D01*
X117705142Y-122832761D01*
X117848000Y-122880380D01*
X118086095Y-122880380D01*
X116657523Y-121880380D02*
X116848000Y-121880380D01*
X116943238Y-121928000D01*
X116990857Y-121975619D01*
X117086095Y-122118476D01*
X117133714Y-122308952D01*
X117133714Y-122689904D01*
X117086095Y-122785142D01*
X117038476Y-122832761D01*
X116943238Y-122880380D01*
X116752761Y-122880380D01*
X116657523Y-122832761D01*
X116609904Y-122785142D01*
X116562285Y-122689904D01*
X116562285Y-122451809D01*
X116609904Y-122356571D01*
X116657523Y-122308952D01*
X116752761Y-122261333D01*
X116943238Y-122261333D01*
X117038476Y-122308952D01*
X117086095Y-122356571D01*
X117133714Y-122451809D01*
%TO.C,D16*%
X118562285Y-106587380D02*
X118562285Y-105587380D01*
X118324190Y-105587380D01*
X118181333Y-105635000D01*
X118086095Y-105730238D01*
X118038476Y-105825476D01*
X117990857Y-106015952D01*
X117990857Y-106158809D01*
X118038476Y-106349285D01*
X118086095Y-106444523D01*
X118181333Y-106539761D01*
X118324190Y-106587380D01*
X118562285Y-106587380D01*
X117038476Y-106587380D02*
X117609904Y-106587380D01*
X117324190Y-106587380D02*
X117324190Y-105587380D01*
X117419428Y-105730238D01*
X117514666Y-105825476D01*
X117609904Y-105873095D01*
X116181333Y-105587380D02*
X116371809Y-105587380D01*
X116467047Y-105635000D01*
X116514666Y-105682619D01*
X116609904Y-105825476D01*
X116657523Y-106015952D01*
X116657523Y-106396904D01*
X116609904Y-106492142D01*
X116562285Y-106539761D01*
X116467047Y-106587380D01*
X116276571Y-106587380D01*
X116181333Y-106539761D01*
X116133714Y-106492142D01*
X116086095Y-106396904D01*
X116086095Y-106158809D01*
X116133714Y-106063571D01*
X116181333Y-106015952D01*
X116276571Y-105968333D01*
X116467047Y-105968333D01*
X116562285Y-106015952D01*
X116609904Y-106063571D01*
X116657523Y-106158809D01*
D12*
%TO.C,F7*%
X80429100Y-112458500D02*
G75*
G03*
X80429100Y-112458500I-381000J0D01*
G01*
%TO.C,F5*%
X80429100Y-93472000D02*
G75*
G03*
X80429100Y-93472000I-381000J0D01*
G01*
%TO.C,F6*%
X80429100Y-118808500D02*
G75*
G03*
X80429100Y-118808500I-381000J0D01*
G01*
%TO.C,F9*%
X80429100Y-99822000D02*
G75*
G03*
X80429100Y-99822000I-381000J0D01*
G01*
%TO.C,F8*%
X80429100Y-106108500D02*
G75*
G03*
X80429100Y-106108500I-381000J0D01*
G01*
%TO.C,F1*%
X98035127Y-60987900D02*
G75*
G03*
X98035127Y-60987900I-381000J0D01*
G01*
%TO.C,F3*%
X80429100Y-80772000D02*
G75*
G03*
X80429100Y-80772000I-381000J0D01*
G01*
%TO.C,F2*%
X80429100Y-74612500D02*
G75*
G03*
X80429100Y-74612500I-381000J0D01*
G01*
%TO.C,F4*%
X80429100Y-87058500D02*
G75*
G03*
X80429100Y-87058500I-381000J0D01*
G01*
D13*
%TO.C,D9*%
X108344127Y-144540000D02*
X110044127Y-144540000D01*
X108344127Y-144540000D02*
X108344127Y-147690000D01*
X110044127Y-144540000D02*
X110044127Y-147690000D01*
%TO.C,D12*%
X120729127Y-132065000D02*
X120729127Y-128915000D01*
X119029127Y-132065000D02*
X119029127Y-128915000D01*
X120729127Y-132065000D02*
X119029127Y-132065000D01*
%TO.C,Q8*%
X103994127Y-52750000D02*
X102494127Y-52750000D01*
X103994127Y-59650000D02*
X102494127Y-59650000D01*
X102494127Y-53020000D02*
X101394127Y-53020000D01*
X102494127Y-59380000D02*
X99664127Y-59380000D01*
X102494127Y-52750000D02*
X102494127Y-53020000D01*
X102494127Y-59650000D02*
X102494127Y-59380000D01*
%TO.C,D8*%
X112439127Y-148425000D02*
X112439127Y-145275000D01*
X112439127Y-148425000D02*
X110739127Y-148425000D01*
X110739127Y-148425000D02*
X110739127Y-145275000D01*
%TO.C,Q5*%
X83234127Y-90130000D02*
X83234127Y-89860000D01*
X83234127Y-83500000D02*
X82134127Y-83500000D01*
X84734127Y-83230000D02*
X83234127Y-83230000D01*
X84734127Y-90130000D02*
X83234127Y-90130000D01*
X83234127Y-83230000D02*
X83234127Y-83500000D01*
X83234127Y-89860000D02*
X80404127Y-89860000D01*
%TO.C,Q7*%
X93234127Y-59650000D02*
X94734127Y-59650000D01*
X94734127Y-53020000D02*
X97564127Y-53020000D01*
X94734127Y-59650000D02*
X94734127Y-59380000D01*
X94734127Y-52750000D02*
X94734127Y-53020000D01*
X93234127Y-52750000D02*
X94734127Y-52750000D01*
X94734127Y-59380000D02*
X95834127Y-59380000D01*
%TO.C,Q4*%
X83234127Y-82240000D02*
X80404127Y-82240000D01*
X83234127Y-82510000D02*
X83234127Y-82240000D01*
X83234127Y-75880000D02*
X82134127Y-75880000D01*
X83234127Y-75610000D02*
X83234127Y-75880000D01*
X84734127Y-75610000D02*
X83234127Y-75610000D01*
X84734127Y-82510000D02*
X83234127Y-82510000D01*
%TO.C,D11*%
X121906127Y-135538000D02*
X118756127Y-135538000D01*
X121906127Y-135538000D02*
X121906127Y-137238000D01*
X121906127Y-137238000D02*
X118756127Y-137238000D01*
%TO.C,D15*%
X119029127Y-113015000D02*
X119029127Y-109865000D01*
X120729127Y-113015000D02*
X119029127Y-113015000D01*
X120729127Y-113015000D02*
X120729127Y-109865000D01*
%TO.C,Q3*%
X83234127Y-101280000D02*
X82134127Y-101280000D01*
X84734127Y-101010000D02*
X83234127Y-101010000D01*
X84734127Y-107910000D02*
X83234127Y-107910000D01*
X83234127Y-107910000D02*
X83234127Y-107640000D01*
X83234127Y-101010000D02*
X83234127Y-101280000D01*
X83234127Y-107640000D02*
X80404127Y-107640000D01*
%TO.C,D5*%
X114007000Y-126995000D02*
X114007000Y-123845000D01*
X112307000Y-126995000D02*
X112307000Y-123845000D01*
X114007000Y-126995000D02*
X112307000Y-126995000D01*
%TO.C,R36*%
X98387063Y-56935000D02*
X98841191Y-56935000D01*
X98387063Y-55465000D02*
X98841191Y-55465000D01*
%TO.C,D22*%
X117517597Y-86642000D02*
X117517597Y-79342000D01*
X121817597Y-86642000D02*
X121817597Y-79342000D01*
X121817597Y-86642000D02*
X117517597Y-86642000D01*
%TO.C,D13*%
X120694127Y-127135000D02*
X120694127Y-123985000D01*
X120694127Y-127135000D02*
X118994127Y-127135000D01*
X118994127Y-127135000D02*
X118994127Y-123985000D01*
%TO.C,R39*%
X67114563Y-66225000D02*
X71468691Y-66225000D01*
X67114563Y-69645000D02*
X71468691Y-69645000D01*
%TO.C,D31*%
X90071191Y-70425000D02*
X90071191Y-74725000D01*
X90071191Y-74725000D02*
X84371191Y-74725000D01*
X90071191Y-70425000D02*
X84371191Y-70425000D01*
%TO.C,Q6*%
X83234127Y-93390000D02*
X83234127Y-93660000D01*
X84734127Y-100290000D02*
X83234127Y-100290000D01*
X84734127Y-93390000D02*
X83234127Y-93390000D01*
X83234127Y-93660000D02*
X82134127Y-93660000D01*
X83234127Y-100290000D02*
X83234127Y-100020000D01*
X83234127Y-100020000D02*
X80404127Y-100020000D01*
%TO.C,D10*%
X122668127Y-142318000D02*
X119518127Y-142318000D01*
X122668127Y-140618000D02*
X119518127Y-140618000D01*
X122668127Y-140618000D02*
X122668127Y-142318000D01*
%TO.C,D30*%
X82154127Y-63100000D02*
X76454127Y-63100000D01*
X82154127Y-58800000D02*
X82154127Y-63100000D01*
X82154127Y-58800000D02*
X76454127Y-58800000D01*
%TO.C,D14*%
X120729127Y-121905000D02*
X119029127Y-121905000D01*
X120729127Y-121905000D02*
X120729127Y-118755000D01*
X119029127Y-121905000D02*
X119029127Y-118755000D01*
%TO.C,D7*%
X117944000Y-132065000D02*
X116244000Y-132065000D01*
X117944000Y-132065000D02*
X117944000Y-128915000D01*
X116244000Y-132065000D02*
X116244000Y-128915000D01*
%TO.C,D17*%
X120939127Y-102855000D02*
X119239127Y-102855000D01*
X120939127Y-102855000D02*
X120939127Y-99705000D01*
X119239127Y-102855000D02*
X119239127Y-99705000D01*
%TO.C,R30*%
X82641191Y-92419000D02*
X82187063Y-92419000D01*
X82641191Y-90949000D02*
X82187063Y-90949000D01*
%TO.C,D6*%
X116498000Y-127122000D02*
X116498000Y-123972000D01*
X118198000Y-127122000D02*
X118198000Y-123972000D01*
X118198000Y-127122000D02*
X116498000Y-127122000D01*
%TO.C,D16*%
X120729127Y-108035000D02*
X120729127Y-104885000D01*
X119029127Y-108035000D02*
X119029127Y-104885000D01*
X120729127Y-108035000D02*
X119029127Y-108035000D01*
%TD*%
%LPC*%
D14*
%TO.C,TP3*%
X98552000Y-94742000D03*
%TD*%
D15*
%TO.C,F7*%
X70523100Y-112458500D03*
X75603100Y-112458500D03*
X66459100Y-112458500D03*
X61379100Y-112458500D03*
%TD*%
D14*
%TO.C,TP7*%
X93472000Y-121920000D03*
%TD*%
D15*
%TO.C,F5*%
X75603100Y-93472000D03*
X70523100Y-93472000D03*
X61379100Y-93472000D03*
X66459100Y-93472000D03*
%TD*%
D16*
%TO.C,J18*%
X45930000Y-104394000D03*
D17*
X53130000Y-104394000D03*
%TD*%
D16*
%TO.C,J14*%
X45930000Y-94234000D03*
D17*
X53130000Y-94234000D03*
%TD*%
D16*
%TO.C,J10*%
X82021191Y-67300000D03*
D17*
X89221191Y-67300000D03*
%TD*%
D18*
%TO.C,H1*%
X64770000Y-55118000D03*
%TD*%
D14*
%TO.C,TP6*%
X100330000Y-99822000D03*
%TD*%
D15*
%TO.C,F6*%
X70523100Y-118808500D03*
X75603100Y-118808500D03*
X66459100Y-118808500D03*
X61379100Y-118808500D03*
%TD*%
D14*
%TO.C,TP4*%
X97028000Y-94742000D03*
%TD*%
D18*
%TO.C,H3*%
X121920000Y-55118000D03*
%TD*%
D15*
%TO.C,F9*%
X70523100Y-99822000D03*
X75603100Y-99822000D03*
X66459100Y-99822000D03*
X61379100Y-99822000D03*
%TD*%
D19*
%TO.C,J4*%
X122629127Y-99885000D03*
D20*
X122629127Y-102385000D03*
X122629127Y-104885000D03*
X122629127Y-107385000D03*
X122629127Y-109885000D03*
X122629127Y-112385000D03*
%TD*%
D16*
%TO.C,J17*%
X45930000Y-114554000D03*
D17*
X53130000Y-114554000D03*
%TD*%
D14*
%TO.C,TP8*%
X92322000Y-121920000D03*
%TD*%
D21*
%TO.C,J19*%
X106654127Y-145405000D03*
D22*
X106654127Y-147905000D03*
%TD*%
D18*
%TO.C,H2*%
X121920000Y-147574000D03*
%TD*%
D15*
%TO.C,F8*%
X70523100Y-106108500D03*
X75603100Y-106108500D03*
X66459100Y-106108500D03*
X61379100Y-106108500D03*
%TD*%
D19*
%TO.C,J6*%
X122666227Y-85775000D03*
D20*
X122666227Y-88275000D03*
X122666227Y-90775000D03*
X122666227Y-93275000D03*
%TD*%
D16*
%TO.C,J11*%
X45930000Y-63754000D03*
D17*
X53130000Y-63754000D03*
%TD*%
D16*
%TO.C,J12*%
X45930000Y-73914000D03*
D17*
X53130000Y-73914000D03*
%TD*%
D21*
%TO.C,J8*%
X122944127Y-62875000D03*
D22*
X122944127Y-65375000D03*
%TD*%
D16*
%TO.C,J13*%
X45930000Y-84074000D03*
D17*
X53130000Y-84074000D03*
%TD*%
D15*
%TO.C,F1*%
X97654127Y-70512900D03*
X97654127Y-65432900D03*
X97654127Y-74576900D03*
X97654127Y-79656900D03*
%TD*%
%TO.C,F3*%
X70523100Y-80772000D03*
X75603100Y-80772000D03*
X66459100Y-80772000D03*
X61379100Y-80772000D03*
%TD*%
D21*
%TO.C,J2*%
X114164127Y-145425000D03*
D22*
X114164127Y-147925000D03*
%TD*%
D19*
%TO.C,J5*%
X122419127Y-118935000D03*
D20*
X122419127Y-121435000D03*
X122419127Y-123935000D03*
X122419127Y-126435000D03*
X122419127Y-128935000D03*
X122419127Y-131435000D03*
%TD*%
D23*
%TO.C,J3*%
X122800127Y-137912000D03*
D24*
X122000127Y-139662000D03*
X121200127Y-137912000D03*
X120400127Y-139662000D03*
X119600127Y-137912000D03*
D25*
X117550127Y-138787000D03*
X124850127Y-138787000D03*
%TD*%
D26*
%TO.C,J1*%
X115062000Y-123820000D03*
D27*
X115062000Y-126360000D03*
X115062000Y-128900000D03*
X115062000Y-131440000D03*
X115062000Y-133980000D03*
%TD*%
D16*
%TO.C,J9*%
X74484127Y-56200000D03*
D17*
X81684127Y-56200000D03*
%TD*%
D15*
%TO.C,F2*%
X75603100Y-74612500D03*
X70523100Y-74612500D03*
X61379100Y-74612500D03*
X66459100Y-74612500D03*
%TD*%
D28*
%TO.C,TP1*%
X96266000Y-113157000D03*
%TD*%
D16*
%TO.C,J16*%
X45930000Y-124714000D03*
D17*
X53130000Y-124714000D03*
%TD*%
D14*
%TO.C,TP2*%
X102235000Y-99822000D03*
%TD*%
D28*
%TO.C,TP5*%
X96266000Y-115824000D03*
%TD*%
D19*
%TO.C,J7*%
X122666227Y-71865000D03*
D20*
X122666227Y-74365000D03*
X122666227Y-76865000D03*
X122666227Y-79365000D03*
%TD*%
D16*
%TO.C,J15*%
X45930000Y-134874000D03*
D17*
X53130000Y-134874000D03*
%TD*%
D15*
%TO.C,F4*%
X75603100Y-87058500D03*
X70523100Y-87058500D03*
X61379100Y-87058500D03*
X66459100Y-87058500D03*
%TD*%
D18*
%TO.C,H4*%
X44704000Y-147574000D03*
%TD*%
D29*
%TO.C,D9*%
X109194127Y-145190000D03*
X109194127Y-147690000D03*
%TD*%
D30*
%TO.C,D12*%
X119879127Y-131415000D03*
X119879127Y-128915000D03*
%TD*%
D31*
%TO.C,Q8*%
X100764127Y-58480000D03*
D32*
X107064127Y-56200000D03*
D31*
X100764127Y-53920000D03*
%TD*%
D30*
%TO.C,D8*%
X111589127Y-147775000D03*
X111589127Y-145275000D03*
%TD*%
D31*
%TO.C,Q5*%
X81504127Y-88960000D03*
D32*
X87804127Y-86680000D03*
D31*
X81504127Y-84400000D03*
%TD*%
D33*
%TO.C,Q7*%
X96464127Y-53920000D03*
D34*
X90164127Y-56200000D03*
D33*
X96464127Y-58480000D03*
%TD*%
D31*
%TO.C,Q4*%
X81504127Y-81340000D03*
D32*
X87804127Y-79060000D03*
D31*
X81504127Y-76780000D03*
%TD*%
D35*
%TO.C,D11*%
X121256127Y-136388000D03*
X118756127Y-136388000D03*
%TD*%
D30*
%TO.C,D15*%
X119879127Y-112365000D03*
X119879127Y-109865000D03*
%TD*%
D31*
%TO.C,Q3*%
X81504127Y-106740000D03*
D32*
X87804127Y-104460000D03*
D31*
X81504127Y-102180000D03*
%TD*%
D30*
%TO.C,D5*%
X113157000Y-126345000D03*
X113157000Y-123845000D03*
%TD*%
D36*
%TO.C,R36*%
X97614127Y-56200000D03*
X99614127Y-56200000D03*
%TD*%
D37*
%TO.C,D22*%
X119667597Y-84742000D03*
X119667597Y-79342000D03*
%TD*%
D30*
%TO.C,D13*%
X119844127Y-126485000D03*
X119844127Y-123985000D03*
%TD*%
D38*
%TO.C,R39*%
X66329127Y-67935000D03*
X72254127Y-67935000D03*
%TD*%
D39*
%TO.C,D31*%
X88671191Y-72575000D03*
X84371191Y-72575000D03*
%TD*%
D31*
%TO.C,Q6*%
X81504127Y-99120000D03*
D32*
X87804127Y-96840000D03*
D31*
X81504127Y-94560000D03*
%TD*%
D35*
%TO.C,D10*%
X122018127Y-141468000D03*
X119518127Y-141468000D03*
%TD*%
D39*
%TO.C,D30*%
X80754127Y-60950000D03*
X76454127Y-60950000D03*
%TD*%
D30*
%TO.C,D14*%
X119879127Y-121255000D03*
X119879127Y-118755000D03*
%TD*%
%TO.C,D7*%
X117094000Y-131415000D03*
X117094000Y-128915000D03*
%TD*%
%TO.C,D17*%
X120089127Y-102205000D03*
X120089127Y-99705000D03*
%TD*%
D40*
%TO.C,R30*%
X83414127Y-91684000D03*
X81414127Y-91684000D03*
%TD*%
D30*
%TO.C,D6*%
X117348000Y-126472000D03*
X117348000Y-123972000D03*
%TD*%
%TO.C,D16*%
X119879127Y-107385000D03*
X119879127Y-104885000D03*
%TD*%
M02*
