%TF.GenerationSoftware,KiCad,Pcbnew,6.0.11+dfsg-1*%
%TF.CreationDate,2025-03-20T10:49:09-04:00*%
%TF.ProjectId,battery-board,62617474-6572-4792-9d62-6f6172642e6b,rev?*%
%TF.SameCoordinates,Original*%
%TF.FileFunction,Copper,L4,Bot*%
%TF.FilePolarity,Positive*%
%FSLAX46Y46*%
G04 Gerber Fmt 4.6, Leading zero omitted, Abs format (unit mm)*
G04 Created by KiCad (PCBNEW 6.0.11+dfsg-1) date 2025-03-20 10:49:09*
%MOMM*%
%LPD*%
G01*
G04 APERTURE LIST*
G04 Aperture macros list*
%AMRoundRect*
0 Rectangle with rounded corners*
0 $1 Rounding radius*
0 $2 $3 $4 $5 $6 $7 $8 $9 X,Y pos of 4 corners*
0 Add a 4 corners polygon primitive as box body*
4,1,4,$2,$3,$4,$5,$6,$7,$8,$9,$2,$3,0*
0 Add four circle primitives for the rounded corners*
1,1,$1+$1,$2,$3*
1,1,$1+$1,$4,$5*
1,1,$1+$1,$6,$7*
1,1,$1+$1,$8,$9*
0 Add four rect primitives between the rounded corners*
20,1,$1+$1,$2,$3,$4,$5,0*
20,1,$1+$1,$4,$5,$6,$7,0*
20,1,$1+$1,$6,$7,$8,$9,0*
20,1,$1+$1,$8,$9,$2,$3,0*%
G04 Aperture macros list end*
%TA.AperFunction,ComponentPad*%
%ADD10R,0.850000X0.850000*%
%TD*%
%TA.AperFunction,ComponentPad*%
%ADD11C,3.098800*%
%TD*%
%TA.AperFunction,ComponentPad*%
%ADD12RoundRect,1.500000X-1.500000X-1.500000X1.500000X-1.500000X1.500000X1.500000X-1.500000X1.500000X0*%
%TD*%
%TA.AperFunction,ComponentPad*%
%ADD13C,6.000000*%
%TD*%
%TA.AperFunction,ComponentPad*%
%ADD14RoundRect,0.250000X-0.725000X0.600000X-0.725000X-0.600000X0.725000X-0.600000X0.725000X0.600000X0*%
%TD*%
%TA.AperFunction,ComponentPad*%
%ADD15O,1.950000X1.700000*%
%TD*%
%TA.AperFunction,ComponentPad*%
%ADD16RoundRect,0.250000X-0.750000X0.600000X-0.750000X-0.600000X0.750000X-0.600000X0.750000X0.600000X0*%
%TD*%
%TA.AperFunction,ComponentPad*%
%ADD17O,2.000000X1.700000*%
%TD*%
%TA.AperFunction,ComponentPad*%
%ADD18R,1.100000X1.100000*%
%TD*%
%TA.AperFunction,ComponentPad*%
%ADD19C,1.100000*%
%TD*%
%TA.AperFunction,ComponentPad*%
%ADD20O,1.100000X2.400000*%
%TD*%
%TA.AperFunction,ComponentPad*%
%ADD21R,1.700000X1.700000*%
%TD*%
%TA.AperFunction,ComponentPad*%
%ADD22O,1.700000X1.700000*%
%TD*%
%TA.AperFunction,SMDPad,CuDef*%
%ADD23R,1.000000X1.000000*%
%TD*%
%TA.AperFunction,SMDPad,CuDef*%
%ADD24R,2.200000X1.200000*%
%TD*%
%TA.AperFunction,SMDPad,CuDef*%
%ADD25R,6.400000X5.800000*%
%TD*%
%TA.AperFunction,SMDPad,CuDef*%
%ADD26RoundRect,0.250000X-0.350000X-0.450000X0.350000X-0.450000X0.350000X0.450000X-0.350000X0.450000X0*%
%TD*%
%TA.AperFunction,SMDPad,CuDef*%
%ADD27R,2.300000X3.500000*%
%TD*%
%TA.AperFunction,SMDPad,CuDef*%
%ADD28RoundRect,0.250000X-0.362500X-1.425000X0.362500X-1.425000X0.362500X1.425000X-0.362500X1.425000X0*%
%TD*%
%TA.AperFunction,SMDPad,CuDef*%
%ADD29R,2.500000X2.300000*%
%TD*%
%TA.AperFunction,SMDPad,CuDef*%
%ADD30RoundRect,0.250000X0.350000X0.450000X-0.350000X0.450000X-0.350000X-0.450000X0.350000X-0.450000X0*%
%TD*%
%TA.AperFunction,ViaPad*%
%ADD31C,0.700000*%
%TD*%
%TA.AperFunction,ViaPad*%
%ADD32C,0.800000*%
%TD*%
%TA.AperFunction,Conductor*%
%ADD33C,0.500000*%
%TD*%
%TA.AperFunction,Conductor*%
%ADD34C,3.000000*%
%TD*%
%TA.AperFunction,Conductor*%
%ADD35C,0.300000*%
%TD*%
%TA.AperFunction,Conductor*%
%ADD36C,1.000000*%
%TD*%
%TA.AperFunction,Conductor*%
%ADD37C,4.000000*%
%TD*%
G04 APERTURE END LIST*
D10*
%TO.P,TP3,1,1*%
%TO.N,BMS_VREF*%
X98552000Y-94742000D03*
%TD*%
D11*
%TO.P,F7,1*%
%TO.N,BATTP_DSG*%
X70523100Y-112458500D03*
X75603100Y-112458500D03*
%TO.P,F7,2*%
%TO.N,Net-(F7-Pad2)*%
X66459100Y-112458500D03*
X61379100Y-112458500D03*
%TD*%
D10*
%TO.P,TP7,1,1*%
%TO.N,ICHG_SENSE*%
X93472000Y-121920000D03*
%TD*%
D11*
%TO.P,F5,1*%
%TO.N,BATTP_DSG*%
X75603100Y-93472000D03*
X70523100Y-93472000D03*
%TO.P,F5,2*%
%TO.N,Net-(F5-Pad2)*%
X61379100Y-93472000D03*
X66459100Y-93472000D03*
%TD*%
D12*
%TO.P,J18,1,Pin_1*%
%TO.N,GNDPWR*%
X45930000Y-104394000D03*
D13*
%TO.P,J18,2,Pin_2*%
%TO.N,Net-(F9-Pad2)*%
X53130000Y-104394000D03*
%TD*%
D12*
%TO.P,J14,1,Pin_1*%
%TO.N,GNDPWR*%
X45930000Y-94234000D03*
D13*
%TO.P,J14,2,Pin_2*%
%TO.N,Net-(F5-Pad2)*%
X53130000Y-94234000D03*
%TD*%
D12*
%TO.P,J10,1,Pin_1*%
%TO.N,BATTN*%
X82021191Y-67300000D03*
D13*
%TO.P,J10,2,Pin_2*%
%TO.N,/power_connectors/BATTP_RAW*%
X89221191Y-67300000D03*
%TD*%
D10*
%TO.P,TP6,1,1*%
%TO.N,BMS_SDA*%
X100330000Y-99822000D03*
%TD*%
D11*
%TO.P,F6,1*%
%TO.N,BATTP_DSG*%
X70523100Y-118808500D03*
X75603100Y-118808500D03*
%TO.P,F6,2*%
%TO.N,Net-(F6-Pad2)*%
X66459100Y-118808500D03*
X61379100Y-118808500D03*
%TD*%
D10*
%TO.P,TP4,1,1*%
%TO.N,BMS_VCELL*%
X97028000Y-94742000D03*
%TD*%
D11*
%TO.P,F9,1*%
%TO.N,BATTP_DSG*%
X70523100Y-99822000D03*
X75603100Y-99822000D03*
%TO.P,F9,2*%
%TO.N,Net-(F9-Pad2)*%
X66459100Y-99822000D03*
X61379100Y-99822000D03*
%TD*%
D14*
%TO.P,J4,1,Pin_1*%
%TO.N,BATTN*%
X122629127Y-99885000D03*
D15*
%TO.P,J4,2,Pin_2*%
%TO.N,/thermistors/NTC1_IN*%
X122629127Y-102385000D03*
%TO.P,J4,3,Pin_3*%
%TO.N,BATTN*%
X122629127Y-104885000D03*
%TO.P,J4,4,Pin_4*%
%TO.N,/thermistors/NTC2_IN*%
X122629127Y-107385000D03*
%TO.P,J4,5,Pin_5*%
%TO.N,BATTN*%
X122629127Y-109885000D03*
%TO.P,J4,6,Pin_6*%
%TO.N,/thermistors/NTC3_IN*%
X122629127Y-112385000D03*
%TD*%
D12*
%TO.P,J17,1,Pin_1*%
%TO.N,GNDPWR*%
X45930000Y-114554000D03*
D13*
%TO.P,J17,2,Pin_2*%
%TO.N,Net-(F8-Pad2)*%
X53130000Y-114554000D03*
%TD*%
D10*
%TO.P,TP8,1,1*%
%TO.N,IDSG_SENSE*%
X92322000Y-121920000D03*
%TD*%
D16*
%TO.P,J19,1,Pin_1*%
%TO.N,/MCU/CAN-*%
X106654127Y-145405000D03*
D17*
%TO.P,J19,2,Pin_2*%
%TO.N,/MCU/CAN+*%
X106654127Y-147905000D03*
%TD*%
D11*
%TO.P,F8,1*%
%TO.N,BATTP_DSG*%
X70523100Y-106108500D03*
X75603100Y-106108500D03*
%TO.P,F8,2*%
%TO.N,Net-(F8-Pad2)*%
X66459100Y-106108500D03*
X61379100Y-106108500D03*
%TD*%
D14*
%TO.P,J6,1,Pin_1*%
%TO.N,/battery_management/C4*%
X122666227Y-85775000D03*
D15*
%TO.P,J6,2,Pin_2*%
%TO.N,/battery_management/C5*%
X122666227Y-88275000D03*
%TO.P,J6,3,Pin_3*%
%TO.N,/battery_management/C6*%
X122666227Y-90775000D03*
%TO.P,J6,4,Pin_4*%
X122666227Y-93275000D03*
%TD*%
D12*
%TO.P,J11,1,Pin_1*%
%TO.N,GNDPWR*%
X45930000Y-63754000D03*
D13*
%TO.P,J11,2,Pin_2*%
%TO.N,Net-(F2-Pad2)*%
X53130000Y-63754000D03*
%TD*%
D12*
%TO.P,J12,1,Pin_1*%
%TO.N,GNDPWR*%
X45930000Y-73914000D03*
D13*
%TO.P,J12,2,Pin_2*%
%TO.N,Net-(F3-Pad2)*%
X53130000Y-73914000D03*
%TD*%
D16*
%TO.P,J8,1,Pin_1*%
%TO.N,/battery_management/AFE_PWR*%
X122944127Y-62875000D03*
D17*
%TO.P,J8,2,Pin_2*%
%TO.N,/battery_management/BTNN*%
X122944127Y-65375000D03*
%TD*%
D12*
%TO.P,J13,1,Pin_1*%
%TO.N,GNDPWR*%
X45930000Y-84074000D03*
D13*
%TO.P,J13,2,Pin_2*%
%TO.N,Net-(F4-Pad2)*%
X53130000Y-84074000D03*
%TD*%
D11*
%TO.P,F1,1*%
%TO.N,/power_connectors/BATTP_RAW*%
X97654127Y-70512900D03*
X97654127Y-65432900D03*
%TO.P,F1,2*%
%TO.N,BATTP*%
X97654127Y-74576900D03*
X97654127Y-79656900D03*
%TD*%
%TO.P,F3,1*%
%TO.N,BATTP_DSG*%
X70523100Y-80772000D03*
X75603100Y-80772000D03*
%TO.P,F3,2*%
%TO.N,Net-(F3-Pad2)*%
X66459100Y-80772000D03*
X61379100Y-80772000D03*
%TD*%
D16*
%TO.P,J2,1,Pin_1*%
%TO.N,/MCU/CAN-*%
X114164127Y-145425000D03*
D17*
%TO.P,J2,2,Pin_2*%
%TO.N,/MCU/CAN+*%
X114164127Y-147925000D03*
%TD*%
D14*
%TO.P,J5,1,Pin_1*%
%TO.N,BATTN*%
X122419127Y-118935000D03*
D15*
%TO.P,J5,2,Pin_2*%
%TO.N,/thermistors/NTC4_IN*%
X122419127Y-121435000D03*
%TO.P,J5,3,Pin_3*%
%TO.N,BATTN*%
X122419127Y-123935000D03*
%TO.P,J5,4,Pin_4*%
%TO.N,/thermistors/NTC5_IN*%
X122419127Y-126435000D03*
%TO.P,J5,5,Pin_5*%
%TO.N,BATTN*%
X122419127Y-128935000D03*
%TO.P,J5,6,Pin_6*%
%TO.N,/thermistors/NTC6_IN*%
X122419127Y-131435000D03*
%TD*%
D18*
%TO.P,J3,1,VBUS*%
%TO.N,unconnected-(J3-Pad1)*%
X122800127Y-137912000D03*
D19*
%TO.P,J3,2,D-*%
%TO.N,/MCU/USB_DM_RAW*%
X122000127Y-139662000D03*
%TO.P,J3,3,D+*%
%TO.N,/MCU/USB_DP_RAW*%
X121200127Y-137912000D03*
%TO.P,J3,4,ID*%
%TO.N,unconnected-(J3-Pad4)*%
X120400127Y-139662000D03*
%TO.P,J3,5,GND*%
%TO.N,BATTN*%
X119600127Y-137912000D03*
D20*
%TO.P,J3,6,Shield*%
X117550127Y-138787000D03*
X124850127Y-138787000D03*
%TD*%
D21*
%TO.P,J1,1,Pin_1*%
%TO.N,BATTN*%
X115062000Y-123820000D03*
D22*
%TO.P,J1,2,Pin_2*%
%TO.N,/MCU/NRST_RAW*%
X115062000Y-126360000D03*
%TO.P,J1,3,Pin_3*%
%TO.N,/MCU/SWCLK_RAW*%
X115062000Y-128900000D03*
%TO.P,J1,4,Pin_4*%
%TO.N,/MCU/SWDIO_RAW*%
X115062000Y-131440000D03*
%TO.P,J1,5,Pin_5*%
%TO.N,/MCU/VTARGET*%
X115062000Y-133980000D03*
%TD*%
D12*
%TO.P,J9,1,Pin_1*%
%TO.N,GNDPWR*%
X74484127Y-56200000D03*
D13*
%TO.P,J9,2,Pin_2*%
%TO.N,BATTP_CHG*%
X81684127Y-56200000D03*
%TD*%
D11*
%TO.P,F2,1*%
%TO.N,BATTP_DSG*%
X75603100Y-74612500D03*
X70523100Y-74612500D03*
%TO.P,F2,2*%
%TO.N,Net-(F2-Pad2)*%
X61379100Y-74612500D03*
X66459100Y-74612500D03*
%TD*%
D10*
%TO.P,TP1,1,1*%
%TO.N,/MCU/ROM_SCL*%
X96266000Y-113157000D03*
%TD*%
D12*
%TO.P,J16,1,Pin_1*%
%TO.N,GNDPWR*%
X45930000Y-124714000D03*
D13*
%TO.P,J16,2,Pin_2*%
%TO.N,Net-(F7-Pad2)*%
X53130000Y-124714000D03*
%TD*%
D10*
%TO.P,TP2,1,1*%
%TO.N,BMS_SCL*%
X102235000Y-99822000D03*
%TD*%
%TO.P,TP5,1,1*%
%TO.N,/MCU/ROM_SDA*%
X96266000Y-115824000D03*
%TD*%
D14*
%TO.P,J7,1,Pin_1*%
%TO.N,/battery_management/C0*%
X122666227Y-71865000D03*
D15*
%TO.P,J7,2,Pin_2*%
%TO.N,/battery_management/C1*%
X122666227Y-74365000D03*
%TO.P,J7,3,Pin_3*%
%TO.N,/battery_management/C2*%
X122666227Y-76865000D03*
%TO.P,J7,4,Pin_4*%
%TO.N,/battery_management/C3*%
X122666227Y-79365000D03*
%TD*%
D12*
%TO.P,J15,1,Pin_1*%
%TO.N,GNDPWR*%
X45930000Y-134874000D03*
D13*
%TO.P,J15,2,Pin_2*%
%TO.N,Net-(F6-Pad2)*%
X53130000Y-134874000D03*
%TD*%
D11*
%TO.P,F4,1*%
%TO.N,BATTP_DSG*%
X75603100Y-87058500D03*
X70523100Y-87058500D03*
%TO.P,F4,2*%
%TO.N,Net-(F4-Pad2)*%
X61379100Y-87058500D03*
X66459100Y-87058500D03*
%TD*%
D23*
%TO.P,D9,1,K*%
%TO.N,/MCU/CAN-*%
X109194127Y-145190000D03*
%TO.P,D9,2,A*%
%TO.N,BATTN*%
X109194127Y-147690000D03*
%TD*%
%TO.P,D12,1,K*%
%TO.N,/thermistors/NTC6_IN*%
X119879127Y-131415000D03*
%TO.P,D12,2,A*%
%TO.N,BATTN*%
X119879127Y-128915000D03*
%TD*%
D24*
%TO.P,Q8,1,G*%
%TO.N,/load_switch/CHG_GATE*%
X100764127Y-58480000D03*
D25*
%TO.P,Q8,2,D*%
%TO.N,BATTP*%
X107064127Y-56200000D03*
D24*
%TO.P,Q8,3,S*%
%TO.N,/load_switch/CHG_SRC*%
X100764127Y-53920000D03*
%TD*%
D23*
%TO.P,D8,1,K*%
%TO.N,/MCU/CAN+*%
X111589127Y-147775000D03*
%TO.P,D8,2,A*%
%TO.N,BATTN*%
X111589127Y-145275000D03*
%TD*%
D24*
%TO.P,Q5,1,G*%
%TO.N,/load_switch/DSG_GATE*%
X81504127Y-88960000D03*
D25*
%TO.P,Q5,2,D*%
%TO.N,BATTP*%
X87804127Y-86680000D03*
D24*
%TO.P,Q5,3,S*%
%TO.N,BATTP_DSG*%
X81504127Y-84400000D03*
%TD*%
%TO.P,Q7,1,G*%
%TO.N,/load_switch/CHG_GATE*%
X96464127Y-53920000D03*
D25*
%TO.P,Q7,2,D*%
%TO.N,BATTP_CHG*%
X90164127Y-56200000D03*
D24*
%TO.P,Q7,3,S*%
%TO.N,/load_switch/CHG_SRC*%
X96464127Y-58480000D03*
%TD*%
%TO.P,Q4,1,G*%
%TO.N,/load_switch/DSG_GATE*%
X81504127Y-81340000D03*
D25*
%TO.P,Q4,2,D*%
%TO.N,BATTP*%
X87804127Y-79060000D03*
D24*
%TO.P,Q4,3,S*%
%TO.N,BATTP_DSG*%
X81504127Y-76780000D03*
%TD*%
D23*
%TO.P,D11,1,K*%
%TO.N,/MCU/USB_DP_RAW*%
X121256127Y-136388000D03*
%TO.P,D11,2,A*%
%TO.N,BATTN*%
X118756127Y-136388000D03*
%TD*%
%TO.P,D15,1,K*%
%TO.N,/thermistors/NTC3_IN*%
X119879127Y-112365000D03*
%TO.P,D15,2,A*%
%TO.N,BATTN*%
X119879127Y-109865000D03*
%TD*%
D24*
%TO.P,Q3,1,G*%
%TO.N,/load_switch/DSG_GATE*%
X81504127Y-106740000D03*
D25*
%TO.P,Q3,2,D*%
%TO.N,BATTP*%
X87804127Y-104460000D03*
D24*
%TO.P,Q3,3,S*%
%TO.N,BATTP_DSG*%
X81504127Y-102180000D03*
%TD*%
D23*
%TO.P,D5,1,K*%
%TO.N,/MCU/NRST_RAW*%
X113157000Y-126345000D03*
%TO.P,D5,2,A*%
%TO.N,BATTN*%
X113157000Y-123845000D03*
%TD*%
D26*
%TO.P,R36,1*%
%TO.N,/load_switch/CHG_GATE*%
X97614127Y-56200000D03*
%TO.P,R36,2*%
%TO.N,/load_switch/CHG_SRC*%
X99614127Y-56200000D03*
%TD*%
D27*
%TO.P,D22,1,K*%
%TO.N,/battery_management/C6*%
X119667597Y-84742000D03*
%TO.P,D22,2,A*%
%TO.N,/battery_management/C0*%
X119667597Y-79342000D03*
%TD*%
D23*
%TO.P,D13,1,K*%
%TO.N,/thermistors/NTC5_IN*%
X119844127Y-126485000D03*
%TO.P,D13,2,A*%
%TO.N,BATTN*%
X119844127Y-123985000D03*
%TD*%
D28*
%TO.P,R39,1*%
%TO.N,GNDPWR*%
X66329127Y-67935000D03*
%TO.P,R39,2*%
%TO.N,BATTN*%
X72254127Y-67935000D03*
%TD*%
D29*
%TO.P,D31,1,K*%
%TO.N,/power_connectors/BATTP_RAW*%
X88671191Y-72575000D03*
%TO.P,D31,2,A*%
%TO.N,BATTN*%
X84371191Y-72575000D03*
%TD*%
D24*
%TO.P,Q6,1,G*%
%TO.N,/load_switch/DSG_GATE*%
X81504127Y-99120000D03*
D25*
%TO.P,Q6,2,D*%
%TO.N,BATTP*%
X87804127Y-96840000D03*
D24*
%TO.P,Q6,3,S*%
%TO.N,BATTP_DSG*%
X81504127Y-94560000D03*
%TD*%
D23*
%TO.P,D10,1,K*%
%TO.N,/MCU/USB_DM_RAW*%
X122018127Y-141468000D03*
%TO.P,D10,2,A*%
%TO.N,BATTN*%
X119518127Y-141468000D03*
%TD*%
D29*
%TO.P,D30,1,K*%
%TO.N,BATTP_CHG*%
X80754127Y-60950000D03*
%TO.P,D30,2,A*%
%TO.N,GNDPWR*%
X76454127Y-60950000D03*
%TD*%
D23*
%TO.P,D14,1,K*%
%TO.N,/thermistors/NTC4_IN*%
X119879127Y-121255000D03*
%TO.P,D14,2,A*%
%TO.N,BATTN*%
X119879127Y-118755000D03*
%TD*%
%TO.P,D7,1,K*%
%TO.N,/MCU/SWDIO_RAW*%
X117094000Y-131415000D03*
%TO.P,D7,2,A*%
%TO.N,BATTN*%
X117094000Y-128915000D03*
%TD*%
%TO.P,D17,1,K*%
%TO.N,/thermistors/NTC1_IN*%
X120089127Y-102205000D03*
%TO.P,D17,2,A*%
%TO.N,BATTN*%
X120089127Y-99705000D03*
%TD*%
D30*
%TO.P,R30,1*%
%TO.N,/load_switch/DSG_GATE*%
X83414127Y-91684000D03*
%TO.P,R30,2*%
%TO.N,BATTP_DSG*%
X81414127Y-91684000D03*
%TD*%
D23*
%TO.P,D6,1,K*%
%TO.N,/MCU/SWCLK_RAW*%
X117348000Y-126472000D03*
%TO.P,D6,2,A*%
%TO.N,BATTN*%
X117348000Y-123972000D03*
%TD*%
%TO.P,D16,1,K*%
%TO.N,/thermistors/NTC2_IN*%
X119879127Y-107385000D03*
%TO.P,D16,2,A*%
%TO.N,BATTN*%
X119879127Y-104885000D03*
%TD*%
D31*
%TO.N,/MCU/NRST*%
X106500000Y-123379500D03*
X106500000Y-124778500D03*
%TO.N,VDD*%
X120015000Y-62357000D03*
X100459500Y-113030000D03*
X120015000Y-60833000D03*
X118491000Y-60071000D03*
X118492433Y-61595000D03*
X120015000Y-60071000D03*
X110998000Y-108966000D03*
X98769692Y-133894308D03*
X119253000Y-62357000D03*
X93726000Y-109982000D03*
X107950000Y-134366000D03*
X120777000Y-60071000D03*
X104902000Y-101346000D03*
X93726000Y-119380000D03*
X120777000Y-62357000D03*
X93218000Y-142748000D03*
X117729000Y-62357000D03*
X118491000Y-60833000D03*
X66548000Y-60960000D03*
X119253000Y-60071000D03*
X108204000Y-80264000D03*
X101092000Y-128016000D03*
X121539000Y-59309000D03*
X119253000Y-61595000D03*
X120015000Y-61595000D03*
X92964000Y-127254000D03*
X93726000Y-147320000D03*
X120015000Y-59309000D03*
X119253000Y-60833000D03*
X119253000Y-59309000D03*
X118491000Y-59309000D03*
X88900000Y-110998000D03*
X121539000Y-60833000D03*
X117729000Y-60833000D03*
X98806000Y-101346000D03*
X117729000Y-61595000D03*
X118491000Y-62357000D03*
X120777000Y-61595000D03*
X121539000Y-60071000D03*
X120777000Y-60833000D03*
X120777000Y-59309000D03*
%TO.N,GNDPWR*%
X43942000Y-54610000D03*
X44704000Y-54610000D03*
X56896000Y-56642000D03*
X43180000Y-54610000D03*
X51816000Y-55372000D03*
X51816000Y-57404000D03*
X47498000Y-55372000D03*
X47498000Y-53848000D03*
X47498000Y-56642000D03*
X56896000Y-58166000D03*
X57658000Y-53086000D03*
X52578000Y-53086000D03*
X54102000Y-58928000D03*
X57658000Y-58166000D03*
X52578000Y-56642000D03*
X49022000Y-54610000D03*
X44704000Y-58166000D03*
X56896000Y-54610000D03*
X53340000Y-53086000D03*
X47498000Y-59690000D03*
X43180000Y-55372000D03*
X52578000Y-57404000D03*
X48260000Y-59690000D03*
X58420000Y-52324000D03*
X51816000Y-58928000D03*
X43942000Y-59690000D03*
X56896000Y-55372000D03*
X43180000Y-53848000D03*
X53340000Y-56642000D03*
X46736000Y-55372000D03*
X47498000Y-57404000D03*
X56134000Y-59690000D03*
X51054000Y-56642000D03*
X57658000Y-53848000D03*
X42418000Y-57404000D03*
X44704000Y-52324000D03*
X43180000Y-59690000D03*
X42418000Y-53848000D03*
X52578000Y-55372000D03*
X48260000Y-56642000D03*
X57658000Y-54610000D03*
X43180000Y-52324000D03*
X51816000Y-53086000D03*
X43180000Y-56642000D03*
X42418000Y-59690000D03*
X56896000Y-53086000D03*
X57658000Y-59690000D03*
X53340000Y-57404000D03*
X46736000Y-53086000D03*
X44704000Y-56642000D03*
X43942000Y-53848000D03*
X48260000Y-55372000D03*
X42418000Y-53086000D03*
X51816000Y-56642000D03*
X46736000Y-58928000D03*
X58420000Y-59690000D03*
X49022000Y-59690000D03*
X46736000Y-53848000D03*
X49022000Y-57404000D03*
X54102000Y-58166000D03*
X55372000Y-56642000D03*
X49784000Y-56642000D03*
X55372000Y-53086000D03*
X48260000Y-53086000D03*
X58420000Y-55372000D03*
X58420000Y-54610000D03*
X43180000Y-58928000D03*
X51816000Y-53848000D03*
X43942000Y-55372000D03*
X42418000Y-58928000D03*
X49022000Y-53848000D03*
X53340000Y-58166000D03*
X52578000Y-52324000D03*
X49022000Y-58928000D03*
X43942000Y-57404000D03*
X45466000Y-53848000D03*
X43942000Y-56642000D03*
X52578000Y-53848000D03*
X56134000Y-56642000D03*
X49784000Y-57404000D03*
X49784000Y-59690000D03*
X47498000Y-58928000D03*
X46736000Y-58166000D03*
X56896000Y-57404000D03*
X46736000Y-52324000D03*
X55372000Y-53848000D03*
X46736000Y-57404000D03*
X42418000Y-54610000D03*
X54102000Y-59690000D03*
X56134000Y-58166000D03*
X49784000Y-58166000D03*
X57658000Y-52324000D03*
X42418000Y-58166000D03*
X43942000Y-58928000D03*
X58420000Y-58928000D03*
X45466000Y-58166000D03*
X55372000Y-58928000D03*
X43942000Y-52324000D03*
X45466000Y-58928000D03*
X45466000Y-54610000D03*
X57658000Y-55372000D03*
X53340000Y-59690000D03*
X44704000Y-53848000D03*
X58420000Y-56642000D03*
X48260000Y-53848000D03*
X48260000Y-57404000D03*
X55372000Y-59690000D03*
X44704000Y-55372000D03*
X48260000Y-58928000D03*
X54102000Y-56642000D03*
X45466000Y-56642000D03*
X46736000Y-59690000D03*
X56896000Y-53848000D03*
X49784000Y-58928000D03*
X49784000Y-52324000D03*
X56134000Y-55372000D03*
X55372000Y-57404000D03*
X49784000Y-53086000D03*
X54102000Y-55372000D03*
X56134000Y-54610000D03*
X51054000Y-53848000D03*
X51054000Y-52324000D03*
X54102000Y-53848000D03*
X58420000Y-57404000D03*
X43942000Y-53086000D03*
X49784000Y-53848000D03*
X47498000Y-53086000D03*
X54102000Y-54610000D03*
X47498000Y-58166000D03*
X48260000Y-58166000D03*
X56134000Y-53086000D03*
X45466000Y-53086000D03*
X52578000Y-59690000D03*
X43180000Y-58166000D03*
X43180000Y-53086000D03*
X44704000Y-53086000D03*
X48260000Y-54610000D03*
X49022000Y-56642000D03*
X51054000Y-57404000D03*
X68072000Y-67626500D03*
X47498000Y-52324000D03*
X56896000Y-59690000D03*
X52578000Y-54610000D03*
X42418000Y-52324000D03*
X51054000Y-58928000D03*
X47498000Y-54610000D03*
X44704000Y-57404000D03*
X56896000Y-58928000D03*
X58420000Y-53086000D03*
X49022000Y-53086000D03*
X51054000Y-54610000D03*
X55372000Y-52324000D03*
X58420000Y-53848000D03*
X48260000Y-52324000D03*
X56896000Y-52324000D03*
X45466000Y-57404000D03*
X51816000Y-58166000D03*
X45466000Y-52324000D03*
X49022000Y-58166000D03*
X43942000Y-58166000D03*
X53340000Y-52324000D03*
X55372000Y-58166000D03*
X51054000Y-58166000D03*
X57658000Y-56642000D03*
X52578000Y-58928000D03*
X51054000Y-59690000D03*
X51054000Y-55372000D03*
X53340000Y-58928000D03*
X49022000Y-55372000D03*
X57658000Y-58928000D03*
X49784000Y-54610000D03*
X52578000Y-58166000D03*
X51816000Y-54610000D03*
X51816000Y-52324000D03*
X42418000Y-56642000D03*
X53340000Y-54610000D03*
X49022000Y-52324000D03*
X46736000Y-54610000D03*
X46736000Y-56642000D03*
X49784000Y-55372000D03*
X51816000Y-59690000D03*
X58420000Y-58166000D03*
X56134000Y-58928000D03*
X54102000Y-52324000D03*
X44704000Y-59690000D03*
X55372000Y-54610000D03*
X45466000Y-59690000D03*
X51054000Y-53086000D03*
X54102000Y-57404000D03*
X56134000Y-57404000D03*
X56134000Y-52324000D03*
X54102000Y-53086000D03*
X44704000Y-58928000D03*
X56134000Y-53848000D03*
X53340000Y-55372000D03*
X43180000Y-57404000D03*
X57658000Y-57404000D03*
X42418000Y-55372000D03*
X45466000Y-55372000D03*
X55372000Y-55372000D03*
X53340000Y-53848000D03*
%TO.N,BATTP*%
X86614000Y-61214000D03*
%TO.N,BATTP_DSG*%
X77978000Y-82804000D03*
X78740000Y-95758000D03*
X78740000Y-89662000D03*
X78740000Y-113792000D03*
X78740000Y-85090000D03*
X77978000Y-84328000D03*
X77978000Y-97282000D03*
X77978000Y-85090000D03*
X77978000Y-91948000D03*
X77978000Y-102108000D03*
X82258500Y-86524500D03*
X78740000Y-78232000D03*
X77978000Y-85852000D03*
X77978000Y-83566000D03*
X77978000Y-103632000D03*
X78740000Y-85852000D03*
X78740000Y-78994000D03*
X78740000Y-90424000D03*
X78740000Y-116840000D03*
X77978000Y-77470000D03*
X78740000Y-109982000D03*
X77978000Y-107696000D03*
X77978000Y-89662000D03*
X78740000Y-108458000D03*
X77978000Y-91186000D03*
X78740000Y-77470000D03*
X78740000Y-102870000D03*
X78740000Y-103632000D03*
X78740000Y-96520000D03*
X78740000Y-83566000D03*
X77978000Y-90424000D03*
X78740000Y-116078000D03*
X78740000Y-98044000D03*
X77978000Y-110744000D03*
X78740000Y-91948000D03*
X77978000Y-98044000D03*
X78740000Y-115316000D03*
X77978000Y-114554000D03*
X82258500Y-87249000D03*
X77978000Y-115316000D03*
X77978000Y-78232000D03*
X78740000Y-107696000D03*
X77978000Y-101346000D03*
X78740000Y-91186000D03*
X77978000Y-95758000D03*
X82258500Y-85725000D03*
X77978000Y-104394000D03*
X77978000Y-102870000D03*
X77978000Y-78994000D03*
X78740000Y-109220000D03*
X77978000Y-113792000D03*
X78740000Y-76708000D03*
X78740000Y-97282000D03*
X77978000Y-108458000D03*
X77978000Y-75946000D03*
X78740000Y-101346000D03*
X77978000Y-88900000D03*
X77978000Y-109220000D03*
X77978000Y-96520000D03*
X78740000Y-94996000D03*
X78740000Y-82804000D03*
X77978000Y-76708000D03*
X77978000Y-109982000D03*
X78740000Y-102108000D03*
X78740000Y-88900000D03*
X78740000Y-104394000D03*
X78740000Y-110744000D03*
X77978000Y-116840000D03*
X78740000Y-84328000D03*
X78740000Y-75946000D03*
X77978000Y-116078000D03*
X77978000Y-94996000D03*
X78740000Y-114554000D03*
%TO.N,/battery_management/AFE_PWR*%
X112395000Y-94742000D03*
X124333000Y-94615000D03*
X119380000Y-94615000D03*
X110109000Y-94742000D03*
%TO.N,/load_switch/CHG_SRC*%
X86000000Y-55057350D03*
D32*
X84500000Y-63000000D03*
D31*
X88005512Y-75039177D03*
X86487000Y-73533000D03*
%TO.N,BATTN*%
X96266000Y-87884000D03*
X78613000Y-122936000D03*
X118110000Y-52832000D03*
X78613000Y-122047000D03*
X78613000Y-127000000D03*
X106680000Y-114808000D03*
X86233000Y-131953000D03*
X83312000Y-120777000D03*
X101092000Y-56896000D03*
X105410000Y-52070000D03*
X83312000Y-136525000D03*
X115570000Y-83185000D03*
X81534000Y-120777000D03*
X114032622Y-68820622D03*
X95758000Y-56388000D03*
X78613000Y-124968000D03*
X82296000Y-115824000D03*
X86360000Y-124206000D03*
X111760000Y-53594000D03*
X86233000Y-134874000D03*
X92456000Y-140716000D03*
X71120000Y-60960000D03*
X117348000Y-124968000D03*
X89154000Y-119380000D03*
X81534000Y-121666000D03*
X93726000Y-132384500D03*
X115570000Y-88265000D03*
X78613000Y-130048000D03*
X109204000Y-82566000D03*
X95758000Y-120142000D03*
X119634000Y-52070000D03*
X78613000Y-129032000D03*
X67818000Y-66294000D03*
X82804000Y-127508000D03*
X118110000Y-54356000D03*
X94996000Y-125730000D03*
X115570000Y-73025000D03*
X117094000Y-130048000D03*
X118110000Y-55118000D03*
X118872000Y-52070000D03*
X85090000Y-120777000D03*
X84201000Y-120777000D03*
X118110000Y-52070000D03*
X86360000Y-125984000D03*
X117348000Y-53594000D03*
X118110000Y-56642000D03*
X115570000Y-78105000D03*
X79629000Y-122047000D03*
X78613000Y-123952000D03*
X82296000Y-136525000D03*
X117348000Y-52070000D03*
X97028000Y-139954000D03*
X86233000Y-135763000D03*
X82804000Y-129540000D03*
X82423000Y-120777000D03*
X86360000Y-125095000D03*
X115570000Y-93345000D03*
X97028000Y-87122000D03*
X86360000Y-122428000D03*
X78613000Y-134874000D03*
X78613000Y-132969000D03*
X105430286Y-70051601D03*
X86360000Y-126873000D03*
X103886000Y-86614000D03*
X80391000Y-136525000D03*
X86233000Y-133985000D03*
X106362500Y-87312500D03*
X115570000Y-98425000D03*
X119888000Y-130048000D03*
X82804000Y-128524000D03*
X111760000Y-144272000D03*
X87884000Y-142748000D03*
X86360000Y-121539000D03*
X69460127Y-62606500D03*
X85979000Y-120777000D03*
X106172000Y-76454000D03*
X121412000Y-64451500D03*
X86233000Y-130937000D03*
X88646000Y-127000000D03*
X113284000Y-121412000D03*
X86233000Y-132969000D03*
X108966000Y-149098000D03*
X81407000Y-136525000D03*
X85344000Y-136525000D03*
X115570000Y-103505000D03*
X118110000Y-53594000D03*
X80645000Y-122047000D03*
X105105878Y-128219878D03*
X113792000Y-124968000D03*
X118110000Y-55880000D03*
X78613000Y-125984000D03*
X117348000Y-54356000D03*
X86233000Y-129921000D03*
X78613000Y-135890000D03*
X99688833Y-52324000D03*
X78613000Y-131064000D03*
X78613000Y-132080000D03*
X78613000Y-128016000D03*
X86360000Y-123317000D03*
X117348000Y-52832000D03*
X93726000Y-146050000D03*
X79375000Y-136525000D03*
X119888000Y-124968000D03*
X106172000Y-107950000D03*
X84328000Y-136525000D03*
X118872000Y-52832000D03*
X78613000Y-133858000D03*
%TO.N,/load_switch/CHG_GATE*%
X85598000Y-62865000D03*
X85598000Y-61976000D03*
%TO.N,/MCU/BOOT0*%
X94799170Y-122077414D03*
X94996000Y-119380000D03*
%TO.N,/MCU/ROM_SCL*%
X87170500Y-114935000D03*
X96266000Y-133140199D03*
%TO.N,/MCU/ROM_SDA*%
X88329500Y-116840000D03*
X97282000Y-132842000D03*
%TO.N,/MCU/CAN_TX*%
X93726000Y-144780000D03*
X94488000Y-130101373D03*
%TO.N,/MCU/CAN_RX*%
X95250000Y-130810000D03*
X93726000Y-148590000D03*
%TO.N,LED_A*%
X98044000Y-131318000D03*
X102870000Y-122682000D03*
%TO.N,LED_B*%
X105029000Y-122800500D03*
X98744000Y-130748000D03*
%TO.N,EN_DSG*%
X91186000Y-116713000D03*
X91186000Y-113665000D03*
%TO.N,EN_CHG*%
X92202000Y-116586000D03*
X92202000Y-113665000D03*
%TO.N,BATTP_PROT*%
X86911668Y-75088332D03*
X93000000Y-76335500D03*
D32*
%TO.N,/rails/TPS_VOUT*%
X112522000Y-57404000D03*
X112014000Y-54864000D03*
D31*
%TO.N,IDSG_SENSE*%
X90297000Y-134493000D03*
X90486500Y-129028977D03*
%TO.N,ICHG_SENSE*%
X90805000Y-129921000D03*
X90615500Y-133602538D03*
%TO.N,BMS_AWAKE*%
X111820000Y-52320000D03*
X110998000Y-69088000D03*
%TO.N,BMS_VREF*%
X96643977Y-137783750D03*
%TO.N,BMS_VCELL*%
X95949500Y-138483234D03*
%TO.N,BMS_SCL*%
X96960627Y-124760500D03*
X99060500Y-112268000D03*
%TO.N,BMS_SDA*%
X96461183Y-123952000D03*
X98022378Y-110511622D03*
%TO.N,VCHG_SENSE*%
X86106000Y-117348000D03*
X92964000Y-137922000D03*
%TO.N,VBAT_SENSE*%
X98806000Y-87376000D03*
X96785376Y-138815522D03*
%TO.N,NTC*%
X97536000Y-137668000D03*
X106680000Y-111760000D03*
%TO.N,BTN*%
X96000000Y-107500000D03*
X106500000Y-122479997D03*
X98806000Y-99060000D03*
X99695000Y-88011000D03*
%TO.N,NTC_SEL2*%
X105156000Y-134747000D03*
X111516503Y-115570000D03*
%TO.N,NTC_SEL1*%
X105156000Y-135736950D03*
X112416006Y-115570000D03*
%TO.N,NTC_SEL0*%
X105156000Y-133731000D03*
X110617000Y-115570000D03*
%TO.N,/load_switch/DSG_GATE*%
X81788000Y-78232000D03*
X81788000Y-78994000D03*
%TD*%
D33*
%TO.N,/load_switch/CHG_SRC*%
X97282000Y-51816000D02*
X99386000Y-53920000D01*
X86000000Y-55057350D02*
X86000000Y-53000000D01*
X86000000Y-53000000D02*
X87184000Y-51816000D01*
X87184000Y-51816000D02*
X97282000Y-51816000D01*
X99386000Y-53920000D02*
X100764127Y-53920000D01*
D34*
%TO.N,BATTP_CHG*%
X81684127Y-57150000D02*
X90164127Y-57150000D01*
D33*
%TO.N,/load_switch/DSG_GATE*%
X81788000Y-78994000D02*
X81788000Y-78232000D01*
X81788000Y-78994000D02*
X81788000Y-81056127D01*
X81788000Y-81056127D02*
X81504127Y-81340000D01*
D35*
%TO.N,/MCU/NRST*%
X106500000Y-124778500D02*
X106500000Y-123379500D01*
D33*
%TO.N,GNDPWR*%
X76454127Y-61585000D02*
X76454127Y-58170000D01*
D35*
X67763500Y-67935000D02*
X66329127Y-67935000D01*
D33*
X76454127Y-58170000D02*
X74484127Y-56200000D01*
X76454127Y-60578000D02*
X75810127Y-59934000D01*
D35*
X68072000Y-67626500D02*
X67763500Y-67935000D01*
D33*
X76454127Y-60950000D02*
X76454127Y-60578000D01*
X76454127Y-61585000D02*
X76699127Y-61585000D01*
D35*
%TO.N,/thermistors/NTC5_IN*%
X119894127Y-126435000D02*
X119844127Y-126485000D01*
X122419127Y-126435000D02*
X119894127Y-126435000D01*
%TO.N,/thermistors/NTC4_IN*%
X122419127Y-121435000D02*
X120059127Y-121435000D01*
X120059127Y-121435000D02*
X119879127Y-121255000D01*
%TO.N,/thermistors/NTC3_IN*%
X122609127Y-112365000D02*
X122629127Y-112385000D01*
X119879127Y-112365000D02*
X122609127Y-112365000D01*
%TO.N,/thermistors/NTC2_IN*%
X119879127Y-107385000D02*
X122629127Y-107385000D01*
%TO.N,/thermistors/NTC1_IN*%
X120089127Y-102205000D02*
X122449127Y-102205000D01*
X122449127Y-102205000D02*
X122629127Y-102385000D01*
D33*
%TO.N,BATTP*%
X102988127Y-61712000D02*
X87112000Y-61712000D01*
D34*
X107064127Y-56200000D02*
X107064127Y-57280000D01*
D33*
X87112000Y-61712000D02*
X86614000Y-61214000D01*
D34*
X102988127Y-61864000D02*
X102988127Y-73142000D01*
X107572127Y-57128000D02*
X102988127Y-61712000D01*
D36*
%TO.N,BATTP_DSG*%
X81504127Y-102180000D02*
X78414000Y-102180000D01*
X81504127Y-94560000D02*
X78668000Y-94560000D01*
X78668000Y-94560000D02*
X78486000Y-94742000D01*
D35*
X82258500Y-85725000D02*
X82258500Y-86487000D01*
X82258500Y-86487000D02*
X82258500Y-87249000D01*
D33*
X81414127Y-94470000D02*
X81504127Y-94560000D01*
D35*
X82258500Y-87249000D02*
X79121000Y-87249000D01*
X79121000Y-84455000D02*
X78994000Y-84582000D01*
D36*
X78414000Y-102180000D02*
X78232000Y-102362000D01*
X81504127Y-84400000D02*
X78304000Y-84400000D01*
X81504127Y-76780000D02*
X78812000Y-76780000D01*
D33*
X81414127Y-91684000D02*
X81414127Y-94470000D01*
D36*
X78304000Y-84400000D02*
X78232000Y-84328000D01*
D35*
%TO.N,/battery_management/AFE_PWR*%
X119380000Y-94615000D02*
X124333000Y-94615000D01*
X110109000Y-94742000D02*
X112395000Y-94742000D01*
D33*
%TO.N,BATTP_CHG*%
X80754127Y-61585000D02*
X80754127Y-57130000D01*
X80754127Y-57130000D02*
X81684127Y-56200000D01*
D36*
%TO.N,/load_switch/CHG_SRC*%
X99614127Y-55070000D02*
X100764127Y-53920000D01*
X96464127Y-58480000D02*
X97838127Y-58480000D01*
X97838127Y-58480000D02*
X99614127Y-56704000D01*
X99614127Y-56200000D02*
X99614127Y-55070000D01*
X99614127Y-56704000D02*
X99614127Y-56200000D01*
D33*
%TO.N,/battery_management/C0*%
X120921000Y-71865000D02*
X122666227Y-71865000D01*
X119667597Y-73118403D02*
X120921000Y-71865000D01*
X119667597Y-79342000D02*
X119667597Y-73118403D01*
%TO.N,BATTN*%
X119879127Y-130039127D02*
X119888000Y-130048000D01*
X119879127Y-128915000D02*
X119879127Y-130039127D01*
D35*
X119844127Y-123985000D02*
X122369127Y-123985000D01*
X122629127Y-109885000D02*
X119899127Y-109885000D01*
D33*
X117094000Y-128915000D02*
X117094000Y-130048000D01*
X114774127Y-123845000D02*
X114799127Y-123820000D01*
D35*
X118756127Y-137068000D02*
X119600127Y-137912000D01*
X122399127Y-128915000D02*
X122419127Y-128935000D01*
X122369127Y-123985000D02*
X122419127Y-123935000D01*
D33*
X84371191Y-69650000D02*
X82021191Y-67300000D01*
X109194127Y-147690000D02*
X109194127Y-148869873D01*
X115037000Y-123845000D02*
X115062000Y-123820000D01*
X119844127Y-124924127D02*
X119888000Y-124968000D01*
X113157000Y-124333000D02*
X113792000Y-124968000D01*
D35*
X120269127Y-99885000D02*
X120089127Y-99705000D01*
X119500127Y-141450000D02*
X119500127Y-138012000D01*
D33*
X109194127Y-148869873D02*
X108966000Y-149098000D01*
X119844127Y-123985000D02*
X119844127Y-124924127D01*
D35*
X71237000Y-67935000D02*
X70104000Y-66802000D01*
X119879127Y-128915000D02*
X122399127Y-128915000D01*
D33*
X114951127Y-123972000D02*
X114799127Y-123820000D01*
D35*
X122629127Y-104885000D02*
X119879127Y-104885000D01*
D33*
X117348000Y-123972000D02*
X114951127Y-123972000D01*
D35*
X72254127Y-67935000D02*
X71237000Y-67935000D01*
X118756127Y-136388000D02*
X118756127Y-137068000D01*
X122419127Y-118935000D02*
X120059127Y-118935000D01*
D33*
X117348000Y-123972000D02*
X117348000Y-124968000D01*
X113157000Y-123845000D02*
X113157000Y-124333000D01*
D35*
X119518127Y-141468000D02*
X119500127Y-141450000D01*
X70104000Y-66802000D02*
X70104000Y-63250373D01*
D33*
X84371191Y-72575000D02*
X84371191Y-69650000D01*
X109194127Y-147670000D02*
X111589127Y-145275000D01*
D35*
X122629127Y-99885000D02*
X120269127Y-99885000D01*
X120059127Y-118935000D02*
X119879127Y-118755000D01*
X70104000Y-63250373D02*
X69460127Y-62606500D01*
D33*
X111589127Y-145275000D02*
X111589127Y-144442873D01*
D35*
X119500127Y-138012000D02*
X119600127Y-137912000D01*
D33*
X113157000Y-123845000D02*
X115037000Y-123845000D01*
D35*
X119899127Y-109885000D02*
X119879127Y-109865000D01*
D33*
X111589127Y-144442873D02*
X111760000Y-144272000D01*
X109194127Y-147690000D02*
X109194127Y-147670000D01*
D35*
%TO.N,/thermistors/NTC6_IN*%
X119899127Y-131435000D02*
X119879127Y-131415000D01*
X122419127Y-131435000D02*
X119899127Y-131435000D01*
D33*
%TO.N,/load_switch/CHG_GATE*%
X100764127Y-59618000D02*
X100764127Y-58480000D01*
X96464127Y-53920000D02*
X95286127Y-53920000D01*
X95286127Y-53920000D02*
X94606127Y-54600000D01*
X85598000Y-60833000D02*
X86497000Y-59934000D01*
X94606127Y-59934000D02*
X95368127Y-60696000D01*
X99686127Y-60696000D02*
X100764127Y-59618000D01*
X96464127Y-53920000D02*
X96464127Y-55050000D01*
X96464127Y-55050000D02*
X97614127Y-56200000D01*
X86497000Y-59934000D02*
X94606127Y-59934000D01*
X94606127Y-54600000D02*
X94606127Y-59934000D01*
X95368127Y-60696000D02*
X99686127Y-60696000D01*
X85598000Y-61976000D02*
X85598000Y-60833000D01*
D35*
%TO.N,/MCU/BOOT0*%
X94996000Y-119380000D02*
X94799170Y-119576830D01*
X94799170Y-119576830D02*
X94799170Y-122077414D01*
%TO.N,/MCU/ROM_SCL*%
X87630000Y-116840000D02*
X86995000Y-116205000D01*
X87630000Y-123952000D02*
X87630000Y-116840000D01*
X86995000Y-115110500D02*
X87170500Y-114935000D01*
X94956288Y-129286000D02*
X92964000Y-129286000D01*
X92964000Y-129286000D02*
X87630000Y-123952000D01*
X96266000Y-130595712D02*
X94956288Y-129286000D01*
X86995000Y-116205000D02*
X86995000Y-115110500D01*
X96266000Y-133140199D02*
X96266000Y-130595712D01*
%TO.N,/MCU/ROM_SDA*%
X93980000Y-128778000D02*
X93498050Y-128778000D01*
X95250000Y-128778000D02*
X93980000Y-128778000D01*
X97282000Y-130810000D02*
X95250000Y-128778000D01*
X88329500Y-123609450D02*
X88329500Y-116840000D01*
X97282000Y-132842000D02*
X97282000Y-130810000D01*
X93498050Y-128778000D02*
X88786025Y-124065975D01*
X88786025Y-124065975D02*
X88329500Y-123609450D01*
%TO.N,/MCU/CAN_TX*%
X94488000Y-130101373D02*
X94488000Y-144018000D01*
X94488000Y-144018000D02*
X93726000Y-144780000D01*
%TO.N,/MCU/CAN_RX*%
X95250000Y-147066000D02*
X93726000Y-148590000D01*
X95250000Y-130810000D02*
X95250000Y-147066000D01*
%TO.N,LED_A*%
X98044000Y-128524000D02*
X102870000Y-123698000D01*
X98044000Y-131318000D02*
X98044000Y-128524000D01*
X102870000Y-123698000D02*
X102870000Y-122682000D01*
%TO.N,LED_B*%
X105029000Y-122800500D02*
X105029000Y-122809000D01*
X98744000Y-129094000D02*
X98744000Y-130748000D01*
X105029000Y-122809000D02*
X98744000Y-129094000D01*
%TO.N,EN_DSG*%
X91186000Y-116713000D02*
X91186000Y-113665000D01*
%TO.N,EN_CHG*%
X92202000Y-116586000D02*
X92202000Y-113665000D01*
D33*
%TO.N,/battery_management/C6*%
X119667597Y-92168403D02*
X119667597Y-84742000D01*
X119634000Y-92202000D02*
X119667597Y-92168403D01*
X120707000Y-93275000D02*
X119634000Y-92202000D01*
X122666227Y-93275000D02*
X120707000Y-93275000D01*
D35*
%TO.N,/MCU/USB_DM_RAW*%
X122000127Y-141450000D02*
X122018127Y-141468000D01*
X122000127Y-139662000D02*
X122000127Y-141450000D01*
%TO.N,/MCU/USB_DP_RAW*%
X121200127Y-136444000D02*
X121256127Y-136388000D01*
X121200127Y-137912000D02*
X121200127Y-136444000D01*
D33*
%TO.N,/MCU/CAN+*%
X111589127Y-147775000D02*
X114014127Y-147775000D01*
X114014127Y-147775000D02*
X114164127Y-147925000D01*
%TO.N,/MCU/CAN-*%
X109194127Y-145190000D02*
X106869127Y-145190000D01*
X106869127Y-145190000D02*
X106654127Y-145405000D01*
%TO.N,/power_connectors/BATTP_RAW*%
X88671191Y-67850000D02*
X89221191Y-67300000D01*
X88671191Y-72575000D02*
X88671191Y-67850000D01*
D35*
%TO.N,/rails/TPS_VOUT*%
X112268000Y-55118000D02*
X112268000Y-57150000D01*
X112268000Y-57150000D02*
X112522000Y-57404000D01*
X112014000Y-54864000D02*
X112268000Y-55118000D01*
%TO.N,IDSG_SENSE*%
X90486500Y-129028977D02*
X89916000Y-129599477D01*
X89916000Y-129599477D02*
X89916000Y-134112000D01*
X89916000Y-134112000D02*
X90297000Y-134493000D01*
%TO.N,ICHG_SENSE*%
X90805000Y-133413038D02*
X90805000Y-129921000D01*
X90615500Y-133602538D02*
X90805000Y-133413038D01*
%TO.N,BMS_AWAKE*%
X113272000Y-66814000D02*
X110998000Y-69088000D01*
X113272000Y-53772000D02*
X113272000Y-66814000D01*
X111820000Y-52320000D02*
X113272000Y-53772000D01*
X113272000Y-53606000D02*
X113284000Y-53594000D01*
%TO.N,BMS_VREF*%
X108204000Y-117602000D02*
X108204000Y-127127000D01*
X96774000Y-106172000D02*
X108204000Y-117602000D01*
X108204000Y-127127000D02*
X98552000Y-136779000D01*
X96774000Y-99060000D02*
X98552000Y-97282000D01*
X97409000Y-136779000D02*
X96643977Y-137544023D01*
X96774000Y-99060000D02*
X96774000Y-106172000D01*
X96643977Y-137544023D02*
X96643977Y-137783750D01*
X98552000Y-136779000D02*
X97409000Y-136779000D01*
X98552000Y-97282000D02*
X98552000Y-94742000D01*
%TO.N,BMS_VCELL*%
X97409000Y-136017000D02*
X98298000Y-136017000D01*
X96012000Y-98552000D02*
X97028000Y-97536000D01*
X98298000Y-136017000D02*
X107442000Y-126873000D01*
X95758000Y-137668000D02*
X97409000Y-136017000D01*
X96012000Y-106437873D02*
X96012000Y-98552000D01*
X97028000Y-97536000D02*
X97028000Y-94742000D01*
X107442000Y-117867873D02*
X96012000Y-106437873D01*
X95949500Y-138483234D02*
X95758000Y-138291734D01*
X95758000Y-138291734D02*
X95758000Y-137668000D01*
X107442000Y-126873000D02*
X107442000Y-117867873D01*
%TO.N,BMS_SCL*%
X96960627Y-124760500D02*
X99060500Y-122660627D01*
X99060500Y-122660627D02*
X99060500Y-112268000D01*
%TO.N,BMS_SDA*%
X98044000Y-110533244D02*
X98022378Y-110511622D01*
X98044000Y-122428000D02*
X98044000Y-110533244D01*
X96520000Y-123952000D02*
X98044000Y-122428000D01*
X96461183Y-123952000D02*
X96520000Y-123952000D01*
%TO.N,VCHG_SENSE*%
X89662000Y-137922000D02*
X92964000Y-137922000D01*
X86106000Y-117348000D02*
X87122000Y-118364000D01*
X87122000Y-135382000D02*
X89662000Y-137922000D01*
X87122000Y-118364000D02*
X87122000Y-135382000D01*
%TO.N,VBAT_SENSE*%
X98806000Y-90297000D02*
X98806000Y-87376000D01*
X106553000Y-110490000D02*
X103124000Y-110490000D01*
X99568000Y-91059000D02*
X98806000Y-90297000D01*
X107442000Y-113411000D02*
X107442000Y-111379000D01*
X97528000Y-99322000D02*
X99568000Y-97282000D01*
X98801478Y-138815522D02*
X109728000Y-127889000D01*
X99568000Y-97282000D02*
X99568000Y-91059000D01*
X103124000Y-110490000D02*
X97528000Y-104894000D01*
X97528000Y-104894000D02*
X97528000Y-99322000D01*
X109728000Y-127889000D02*
X109728000Y-115697000D01*
X107442000Y-111379000D02*
X106553000Y-110490000D01*
X96785376Y-138815522D02*
X98801478Y-138815522D01*
X109728000Y-115697000D02*
X107442000Y-113411000D01*
%TO.N,NTC*%
X108966000Y-127508000D02*
X108966000Y-116078000D01*
X108966000Y-116078000D02*
X106680000Y-113792000D01*
X98806000Y-137668000D02*
X108966000Y-127508000D01*
X97536000Y-137668000D02*
X98806000Y-137668000D01*
X106680000Y-113792000D02*
X106680000Y-111760000D01*
%TO.N,BTN*%
X99695000Y-89916000D02*
X100457000Y-90678000D01*
X100457000Y-97409000D02*
X98806000Y-99060000D01*
X106500000Y-118000000D02*
X96000000Y-107500000D01*
X106500000Y-122479997D02*
X106500000Y-118000000D01*
X100457000Y-93345000D02*
X100457000Y-97409000D01*
X100457000Y-90678000D02*
X100457000Y-93345000D01*
X99695000Y-88011000D02*
X99695000Y-89916000D01*
%TO.N,NTC_SEL2*%
X111516503Y-128386497D02*
X111516503Y-115570000D01*
X105156000Y-134747000D02*
X111516503Y-128386497D01*
%TO.N,NTC_SEL1*%
X105156000Y-135736950D02*
X112307000Y-128585950D01*
X112307000Y-128585950D02*
X112307000Y-115679006D01*
X112307000Y-115679006D02*
X112416006Y-115570000D01*
%TO.N,NTC_SEL0*%
X105156000Y-133731000D02*
X110617000Y-128270000D01*
X110617000Y-128270000D02*
X110617000Y-115570000D01*
D33*
%TO.N,/MCU/NRST_RAW*%
X114784127Y-126345000D02*
X114799127Y-126360000D01*
X115047000Y-126345000D02*
X115062000Y-126360000D01*
X113157000Y-126345000D02*
X115047000Y-126345000D01*
X114774127Y-126335000D02*
X114799127Y-126360000D01*
%TO.N,/MCU/SWCLK_RAW*%
X117227127Y-126472000D02*
X114799127Y-128900000D01*
X117348000Y-126472000D02*
X117227127Y-126472000D01*
%TO.N,/MCU/SWDIO_RAW*%
X114824127Y-131415000D02*
X114799127Y-131440000D01*
X117094000Y-131415000D02*
X114824127Y-131415000D01*
%TO.N,/load_switch/DSG_GATE*%
X83058000Y-99120000D02*
X83058000Y-106740000D01*
X83058000Y-88960000D02*
X81504127Y-88960000D01*
X83058000Y-99120000D02*
X81504127Y-99120000D01*
X83058000Y-106740000D02*
X81504127Y-106740000D01*
X83058000Y-88960000D02*
X83058000Y-99120000D01*
X83058000Y-81340000D02*
X83058000Y-88960000D01*
X81504127Y-81340000D02*
X83058000Y-81340000D01*
D37*
%TO.N,Net-(F2-Pad2)*%
X53130000Y-63754000D02*
X53130000Y-65576000D01*
X61379100Y-73825100D02*
X61379100Y-74612500D01*
X66459100Y-74612500D02*
X61379100Y-74612500D01*
X53130000Y-65576000D02*
X61379100Y-73825100D01*
%TO.N,Net-(F3-Pad2)*%
X66459100Y-80772000D02*
X61379100Y-80772000D01*
X53130000Y-73914000D02*
X59182000Y-79966000D01*
X59182000Y-80010000D02*
X59944000Y-80772000D01*
X59944000Y-80772000D02*
X61379100Y-80772000D01*
X59182000Y-79966000D02*
X59182000Y-80010000D01*
%TO.N,Net-(F4-Pad2)*%
X56070500Y-87058500D02*
X61379100Y-87058500D01*
X53130000Y-84118000D02*
X56070500Y-87058500D01*
X66459100Y-87058500D02*
X61379100Y-87058500D01*
X53130000Y-84074000D02*
X53130000Y-84118000D01*
%TO.N,Net-(F5-Pad2)*%
X53892000Y-93472000D02*
X53130000Y-94234000D01*
X66459100Y-93472000D02*
X61379100Y-93472000D01*
X61379100Y-93472000D02*
X53892000Y-93472000D01*
%TO.N,Net-(F6-Pad2)*%
X61379100Y-118808500D02*
X61379100Y-126624900D01*
X66459100Y-118808500D02*
X61379100Y-118808500D01*
X61379100Y-126624900D02*
X53130000Y-134874000D01*
D34*
%TO.N,Net-(F7-Pad2)*%
X56642000Y-118110000D02*
X57912000Y-116840000D01*
X57912000Y-115925600D02*
X61379100Y-112458500D01*
X57912000Y-116840000D02*
X57912000Y-115925600D01*
X53130000Y-124714000D02*
X56642000Y-121202000D01*
X56642000Y-121202000D02*
X56642000Y-118110000D01*
D37*
X66459100Y-112458500D02*
X61379100Y-112458500D01*
%TO.N,Net-(F8-Pad2)*%
X61379100Y-106108500D02*
X61379100Y-106304900D01*
X66459100Y-106108500D02*
X61379100Y-106108500D01*
X61379100Y-106304900D02*
X53130000Y-114554000D01*
%TO.N,Net-(F9-Pad2)*%
X61379100Y-99822000D02*
X57702000Y-99822000D01*
X66459100Y-99822000D02*
X61379100Y-99822000D01*
X57702000Y-99822000D02*
X53130000Y-104394000D01*
%TD*%
%TA.AperFunction,Conductor*%
%TO.N,BATTP_DSG*%
G36*
X78174121Y-71902002D02*
G01*
X78220614Y-71955658D01*
X78232000Y-72008000D01*
X78232000Y-73152000D01*
X79122000Y-73152000D01*
X79190121Y-73172002D01*
X79236614Y-73225658D01*
X79248000Y-73278000D01*
X79248000Y-120524000D01*
X79227998Y-120592121D01*
X79174342Y-120638614D01*
X79122000Y-120650000D01*
X76949917Y-120650000D01*
X76881796Y-120629998D01*
X76835303Y-120576342D01*
X76825199Y-120506068D01*
X76847385Y-120450766D01*
X76861411Y-120431128D01*
X76854894Y-120419504D01*
X75615912Y-119180522D01*
X75601968Y-119172908D01*
X75600135Y-119173039D01*
X75593520Y-119177290D01*
X74350940Y-120419870D01*
X74343648Y-120433225D01*
X74356386Y-120451231D01*
X74379399Y-120518394D01*
X74362448Y-120587338D01*
X74310913Y-120636172D01*
X74253524Y-120650000D01*
X71869917Y-120650000D01*
X71801796Y-120629998D01*
X71755303Y-120576342D01*
X71745199Y-120506068D01*
X71767385Y-120450766D01*
X71781411Y-120431128D01*
X71774894Y-120419504D01*
X70535912Y-119180522D01*
X70521968Y-119172908D01*
X70520135Y-119173039D01*
X70513520Y-119177290D01*
X69270940Y-120419870D01*
X69263648Y-120433225D01*
X69276386Y-120451231D01*
X69299399Y-120518394D01*
X69282448Y-120587338D01*
X69230913Y-120636172D01*
X69173524Y-120650000D01*
X68706000Y-120650000D01*
X68637879Y-120629998D01*
X68591386Y-120576342D01*
X68580000Y-120524000D01*
X68580000Y-120189965D01*
X68595586Y-120129264D01*
X68647656Y-120034550D01*
X68698001Y-119984491D01*
X68767418Y-119969598D01*
X68833867Y-119994599D01*
X68861910Y-120023884D01*
X68886922Y-120060277D01*
X68897175Y-120068620D01*
X68910916Y-120061474D01*
X70151078Y-118821312D01*
X70157456Y-118809632D01*
X70887508Y-118809632D01*
X70887639Y-118811465D01*
X70891890Y-118818080D01*
X72134168Y-120060358D01*
X72146377Y-120067025D01*
X72157877Y-120058335D01*
X72261738Y-119916945D01*
X72266325Y-119909717D01*
X72396083Y-119670733D01*
X72399651Y-119662939D01*
X72495775Y-119408555D01*
X72498248Y-119400363D01*
X72558961Y-119135280D01*
X72560299Y-119126826D01*
X72584635Y-118854152D01*
X72584881Y-118849215D01*
X72585281Y-118810985D01*
X72585138Y-118806019D01*
X72584127Y-118791185D01*
X73541253Y-118791185D01*
X73556907Y-119062676D01*
X73557980Y-119071176D01*
X73610337Y-119338037D01*
X73612548Y-119346289D01*
X73700638Y-119603581D01*
X73703953Y-119611466D01*
X73826145Y-119854418D01*
X73830502Y-119861784D01*
X73966922Y-120060276D01*
X73977175Y-120068620D01*
X73990916Y-120061474D01*
X75231078Y-118821312D01*
X75237456Y-118809632D01*
X75967508Y-118809632D01*
X75967639Y-118811465D01*
X75971890Y-118818080D01*
X77214168Y-120060358D01*
X77226377Y-120067025D01*
X77237877Y-120058335D01*
X77341738Y-119916945D01*
X77346325Y-119909717D01*
X77476083Y-119670733D01*
X77479651Y-119662939D01*
X77575775Y-119408555D01*
X77578248Y-119400363D01*
X77638961Y-119135280D01*
X77640299Y-119126826D01*
X77664635Y-118854152D01*
X77664881Y-118849215D01*
X77665281Y-118810985D01*
X77665138Y-118806019D01*
X77646519Y-118532903D01*
X77645358Y-118524429D01*
X77590210Y-118258129D01*
X77587911Y-118249894D01*
X77497131Y-117993540D01*
X77493734Y-117985690D01*
X77369006Y-117744034D01*
X77364568Y-117736707D01*
X77238591Y-117557458D01*
X77228069Y-117549077D01*
X77214681Y-117556129D01*
X75975122Y-118795688D01*
X75967508Y-118809632D01*
X75237456Y-118809632D01*
X75238692Y-118807368D01*
X75238561Y-118805535D01*
X75234310Y-118798920D01*
X73991517Y-117556127D01*
X73979507Y-117549568D01*
X73967767Y-117558536D01*
X73852945Y-117718329D01*
X73848441Y-117725593D01*
X73721185Y-117965938D01*
X73717706Y-117973752D01*
X73624251Y-118229132D01*
X73621862Y-118237355D01*
X73563929Y-118503061D01*
X73562680Y-118511517D01*
X73541342Y-118782635D01*
X73541253Y-118791185D01*
X72584127Y-118791185D01*
X72566519Y-118532903D01*
X72565358Y-118524429D01*
X72510210Y-118258129D01*
X72507911Y-118249894D01*
X72417131Y-117993540D01*
X72413734Y-117985690D01*
X72289006Y-117744034D01*
X72284568Y-117736707D01*
X72158591Y-117557458D01*
X72148069Y-117549077D01*
X72134681Y-117556129D01*
X70895122Y-118795688D01*
X70887508Y-118809632D01*
X70157456Y-118809632D01*
X70158692Y-118807368D01*
X70158561Y-118805535D01*
X70154310Y-118798920D01*
X68911517Y-117556127D01*
X68899507Y-117549568D01*
X68887767Y-117558537D01*
X68860814Y-117596045D01*
X68804819Y-117639692D01*
X68734116Y-117646138D01*
X68671152Y-117613335D01*
X68648082Y-117583226D01*
X68595584Y-117487733D01*
X68580000Y-117427035D01*
X68580000Y-117185857D01*
X69264540Y-117185857D01*
X69270936Y-117197126D01*
X70510288Y-118436478D01*
X70524232Y-118444092D01*
X70526065Y-118443961D01*
X70532680Y-118439710D01*
X71774809Y-117197581D01*
X71781211Y-117185857D01*
X74344540Y-117185857D01*
X74350936Y-117197126D01*
X75590288Y-118436478D01*
X75604232Y-118444092D01*
X75606065Y-118443961D01*
X75612680Y-118439710D01*
X76854809Y-117197581D01*
X76862000Y-117184412D01*
X76854678Y-117174175D01*
X76801016Y-117130254D01*
X76794044Y-117125299D01*
X76562174Y-116983209D01*
X76554576Y-116979237D01*
X76305576Y-116869933D01*
X76297522Y-116867034D01*
X76035987Y-116792534D01*
X76027609Y-116790752D01*
X75758383Y-116752436D01*
X75749836Y-116751809D01*
X75477899Y-116750384D01*
X75469365Y-116750921D01*
X75199746Y-116786418D01*
X75191348Y-116788111D01*
X74929048Y-116859868D01*
X74920961Y-116862684D01*
X74670830Y-116969374D01*
X74663191Y-116973267D01*
X74429855Y-117112915D01*
X74422817Y-117117806D01*
X74353010Y-117173732D01*
X74344540Y-117185857D01*
X71781211Y-117185857D01*
X71782000Y-117184412D01*
X71774678Y-117174175D01*
X71721016Y-117130254D01*
X71714044Y-117125299D01*
X71482174Y-116983209D01*
X71474576Y-116979237D01*
X71225576Y-116869933D01*
X71217522Y-116867034D01*
X70955987Y-116792534D01*
X70947609Y-116790752D01*
X70678383Y-116752436D01*
X70669836Y-116751809D01*
X70397899Y-116750384D01*
X70389365Y-116750921D01*
X70119746Y-116786418D01*
X70111348Y-116788111D01*
X69849048Y-116859868D01*
X69840961Y-116862684D01*
X69590830Y-116969374D01*
X69583191Y-116973267D01*
X69349855Y-117112915D01*
X69342817Y-117117806D01*
X69273010Y-117173732D01*
X69264540Y-117185857D01*
X68580000Y-117185857D01*
X68580000Y-114083224D01*
X69263648Y-114083224D01*
X69270703Y-114093197D01*
X69307667Y-114124103D01*
X69314602Y-114129143D01*
X69544974Y-114273653D01*
X69552509Y-114277694D01*
X69800360Y-114389603D01*
X69808391Y-114392589D01*
X70069130Y-114469824D01*
X70077483Y-114471691D01*
X70346298Y-114512826D01*
X70354831Y-114513542D01*
X70626737Y-114517814D01*
X70635288Y-114517365D01*
X70905261Y-114484695D01*
X70913662Y-114483093D01*
X71176717Y-114414082D01*
X71184819Y-114411355D01*
X71436065Y-114307285D01*
X71443733Y-114303479D01*
X71678529Y-114166275D01*
X71685610Y-114161462D01*
X71772941Y-114092987D01*
X71779914Y-114083224D01*
X74343648Y-114083224D01*
X74350703Y-114093197D01*
X74387667Y-114124103D01*
X74394602Y-114129143D01*
X74624974Y-114273653D01*
X74632509Y-114277694D01*
X74880360Y-114389603D01*
X74888391Y-114392589D01*
X75149130Y-114469824D01*
X75157483Y-114471691D01*
X75426298Y-114512826D01*
X75434831Y-114513542D01*
X75706737Y-114517814D01*
X75715288Y-114517365D01*
X75985261Y-114484695D01*
X75993662Y-114483093D01*
X76256717Y-114414082D01*
X76264819Y-114411355D01*
X76516065Y-114307285D01*
X76523733Y-114303479D01*
X76758529Y-114166275D01*
X76765610Y-114161462D01*
X76852941Y-114092987D01*
X76861411Y-114081128D01*
X76854894Y-114069504D01*
X75615912Y-112830522D01*
X75601968Y-112822908D01*
X75600135Y-112823039D01*
X75593520Y-112827290D01*
X74350940Y-114069870D01*
X74343648Y-114083224D01*
X71779914Y-114083224D01*
X71781411Y-114081128D01*
X71774894Y-114069504D01*
X70535912Y-112830522D01*
X70521968Y-112822908D01*
X70520135Y-112823039D01*
X70513520Y-112827290D01*
X69270940Y-114069870D01*
X69263648Y-114083224D01*
X68580000Y-114083224D01*
X68580000Y-113839965D01*
X68595586Y-113779264D01*
X68647656Y-113684550D01*
X68698001Y-113634491D01*
X68767418Y-113619598D01*
X68833867Y-113644599D01*
X68861910Y-113673884D01*
X68886922Y-113710277D01*
X68897175Y-113718620D01*
X68910916Y-113711474D01*
X70151078Y-112471312D01*
X70157456Y-112459632D01*
X70887508Y-112459632D01*
X70887639Y-112461465D01*
X70891890Y-112468080D01*
X72134168Y-113710358D01*
X72146377Y-113717025D01*
X72157877Y-113708335D01*
X72261738Y-113566945D01*
X72266325Y-113559717D01*
X72396083Y-113320733D01*
X72399651Y-113312939D01*
X72495775Y-113058555D01*
X72498248Y-113050363D01*
X72558961Y-112785280D01*
X72560299Y-112776826D01*
X72584635Y-112504152D01*
X72584881Y-112499215D01*
X72585281Y-112460985D01*
X72585138Y-112456019D01*
X72584127Y-112441185D01*
X73541253Y-112441185D01*
X73556907Y-112712676D01*
X73557980Y-112721176D01*
X73610337Y-112988037D01*
X73612548Y-112996289D01*
X73700638Y-113253581D01*
X73703953Y-113261466D01*
X73826145Y-113504418D01*
X73830502Y-113511784D01*
X73966922Y-113710276D01*
X73977175Y-113718620D01*
X73990916Y-113711474D01*
X75231078Y-112471312D01*
X75237456Y-112459632D01*
X75967508Y-112459632D01*
X75967639Y-112461465D01*
X75971890Y-112468080D01*
X77214168Y-113710358D01*
X77226377Y-113717025D01*
X77237877Y-113708335D01*
X77341738Y-113566945D01*
X77346325Y-113559717D01*
X77476083Y-113320733D01*
X77479651Y-113312939D01*
X77575775Y-113058555D01*
X77578248Y-113050363D01*
X77638961Y-112785280D01*
X77640299Y-112776826D01*
X77664635Y-112504152D01*
X77664881Y-112499215D01*
X77665281Y-112460985D01*
X77665138Y-112456019D01*
X77646519Y-112182903D01*
X77645358Y-112174429D01*
X77590210Y-111908129D01*
X77587911Y-111899894D01*
X77497131Y-111643540D01*
X77493734Y-111635690D01*
X77369006Y-111394034D01*
X77364568Y-111386707D01*
X77238591Y-111207458D01*
X77228069Y-111199077D01*
X77214681Y-111206129D01*
X75975122Y-112445688D01*
X75967508Y-112459632D01*
X75237456Y-112459632D01*
X75238692Y-112457368D01*
X75238561Y-112455535D01*
X75234310Y-112448920D01*
X73991517Y-111206127D01*
X73979507Y-111199568D01*
X73967767Y-111208536D01*
X73852945Y-111368329D01*
X73848441Y-111375593D01*
X73721185Y-111615938D01*
X73717706Y-111623752D01*
X73624251Y-111879132D01*
X73621862Y-111887355D01*
X73563929Y-112153061D01*
X73562680Y-112161517D01*
X73541342Y-112432635D01*
X73541253Y-112441185D01*
X72584127Y-112441185D01*
X72566519Y-112182903D01*
X72565358Y-112174429D01*
X72510210Y-111908129D01*
X72507911Y-111899894D01*
X72417131Y-111643540D01*
X72413734Y-111635690D01*
X72289006Y-111394034D01*
X72284568Y-111386707D01*
X72158591Y-111207458D01*
X72148069Y-111199077D01*
X72134681Y-111206129D01*
X70895122Y-112445688D01*
X70887508Y-112459632D01*
X70157456Y-112459632D01*
X70158692Y-112457368D01*
X70158561Y-112455535D01*
X70154310Y-112448920D01*
X68911517Y-111206127D01*
X68899507Y-111199568D01*
X68887767Y-111208537D01*
X68860814Y-111246045D01*
X68804819Y-111289692D01*
X68734116Y-111296138D01*
X68671152Y-111263335D01*
X68648082Y-111233226D01*
X68595584Y-111137733D01*
X68580000Y-111077035D01*
X68580000Y-110835857D01*
X69264540Y-110835857D01*
X69270936Y-110847126D01*
X70510288Y-112086478D01*
X70524232Y-112094092D01*
X70526065Y-112093961D01*
X70532680Y-112089710D01*
X71774809Y-110847581D01*
X71781211Y-110835857D01*
X74344540Y-110835857D01*
X74350936Y-110847126D01*
X75590288Y-112086478D01*
X75604232Y-112094092D01*
X75606065Y-112093961D01*
X75612680Y-112089710D01*
X76854809Y-110847581D01*
X76862000Y-110834412D01*
X76854678Y-110824175D01*
X76801016Y-110780254D01*
X76794044Y-110775299D01*
X76562174Y-110633209D01*
X76554576Y-110629237D01*
X76305576Y-110519933D01*
X76297522Y-110517034D01*
X76035987Y-110442534D01*
X76027609Y-110440752D01*
X75758383Y-110402436D01*
X75749836Y-110401809D01*
X75477899Y-110400384D01*
X75469365Y-110400921D01*
X75199746Y-110436418D01*
X75191348Y-110438111D01*
X74929048Y-110509868D01*
X74920961Y-110512684D01*
X74670830Y-110619374D01*
X74663191Y-110623267D01*
X74429855Y-110762915D01*
X74422817Y-110767806D01*
X74353010Y-110823732D01*
X74344540Y-110835857D01*
X71781211Y-110835857D01*
X71782000Y-110834412D01*
X71774678Y-110824175D01*
X71721016Y-110780254D01*
X71714044Y-110775299D01*
X71482174Y-110633209D01*
X71474576Y-110629237D01*
X71225576Y-110519933D01*
X71217522Y-110517034D01*
X70955987Y-110442534D01*
X70947609Y-110440752D01*
X70678383Y-110402436D01*
X70669836Y-110401809D01*
X70397899Y-110400384D01*
X70389365Y-110400921D01*
X70119746Y-110436418D01*
X70111348Y-110438111D01*
X69849048Y-110509868D01*
X69840961Y-110512684D01*
X69590830Y-110619374D01*
X69583191Y-110623267D01*
X69349855Y-110762915D01*
X69342817Y-110767806D01*
X69273010Y-110823732D01*
X69264540Y-110835857D01*
X68580000Y-110835857D01*
X68580000Y-107733224D01*
X69263648Y-107733224D01*
X69270703Y-107743197D01*
X69307667Y-107774103D01*
X69314602Y-107779143D01*
X69544974Y-107923653D01*
X69552509Y-107927694D01*
X69800360Y-108039603D01*
X69808391Y-108042589D01*
X70069130Y-108119824D01*
X70077483Y-108121691D01*
X70346298Y-108162826D01*
X70354831Y-108163542D01*
X70626737Y-108167814D01*
X70635288Y-108167365D01*
X70905261Y-108134695D01*
X70913662Y-108133093D01*
X71176717Y-108064082D01*
X71184819Y-108061355D01*
X71436065Y-107957285D01*
X71443733Y-107953479D01*
X71678529Y-107816275D01*
X71685610Y-107811462D01*
X71772941Y-107742987D01*
X71779914Y-107733224D01*
X74343648Y-107733224D01*
X74350703Y-107743197D01*
X74387667Y-107774103D01*
X74394602Y-107779143D01*
X74624974Y-107923653D01*
X74632509Y-107927694D01*
X74880360Y-108039603D01*
X74888391Y-108042589D01*
X75149130Y-108119824D01*
X75157483Y-108121691D01*
X75426298Y-108162826D01*
X75434831Y-108163542D01*
X75706737Y-108167814D01*
X75715288Y-108167365D01*
X75985261Y-108134695D01*
X75993662Y-108133093D01*
X76256717Y-108064082D01*
X76264819Y-108061355D01*
X76516065Y-107957285D01*
X76523733Y-107953479D01*
X76758529Y-107816275D01*
X76765610Y-107811462D01*
X76852941Y-107742987D01*
X76861411Y-107731128D01*
X76854894Y-107719504D01*
X75615912Y-106480522D01*
X75601968Y-106472908D01*
X75600135Y-106473039D01*
X75593520Y-106477290D01*
X74350940Y-107719870D01*
X74343648Y-107733224D01*
X71779914Y-107733224D01*
X71781411Y-107731128D01*
X71774894Y-107719504D01*
X70535912Y-106480522D01*
X70521968Y-106472908D01*
X70520135Y-106473039D01*
X70513520Y-106477290D01*
X69270940Y-107719870D01*
X69263648Y-107733224D01*
X68580000Y-107733224D01*
X68580000Y-107489965D01*
X68595586Y-107429264D01*
X68647656Y-107334550D01*
X68698001Y-107284491D01*
X68767418Y-107269598D01*
X68833867Y-107294599D01*
X68861910Y-107323884D01*
X68886922Y-107360277D01*
X68897175Y-107368620D01*
X68910916Y-107361474D01*
X70151078Y-106121312D01*
X70157456Y-106109632D01*
X70887508Y-106109632D01*
X70887639Y-106111465D01*
X70891890Y-106118080D01*
X72134168Y-107360358D01*
X72146377Y-107367025D01*
X72157877Y-107358335D01*
X72261738Y-107216945D01*
X72266325Y-107209717D01*
X72396083Y-106970733D01*
X72399651Y-106962939D01*
X72495775Y-106708555D01*
X72498248Y-106700363D01*
X72558961Y-106435280D01*
X72560299Y-106426826D01*
X72584635Y-106154152D01*
X72584881Y-106149215D01*
X72585281Y-106110985D01*
X72585138Y-106106019D01*
X72584127Y-106091185D01*
X73541253Y-106091185D01*
X73556907Y-106362676D01*
X73557980Y-106371176D01*
X73610337Y-106638037D01*
X73612548Y-106646289D01*
X73700638Y-106903581D01*
X73703953Y-106911466D01*
X73826145Y-107154418D01*
X73830502Y-107161784D01*
X73966922Y-107360276D01*
X73977175Y-107368620D01*
X73990916Y-107361474D01*
X75231078Y-106121312D01*
X75237456Y-106109632D01*
X75967508Y-106109632D01*
X75967639Y-106111465D01*
X75971890Y-106118080D01*
X77214168Y-107360358D01*
X77226377Y-107367025D01*
X77237877Y-107358335D01*
X77341738Y-107216945D01*
X77346325Y-107209717D01*
X77476083Y-106970733D01*
X77479651Y-106962939D01*
X77575775Y-106708555D01*
X77578248Y-106700363D01*
X77638961Y-106435280D01*
X77640299Y-106426826D01*
X77664635Y-106154152D01*
X77664881Y-106149215D01*
X77665281Y-106110985D01*
X77665138Y-106106019D01*
X77646519Y-105832903D01*
X77645358Y-105824429D01*
X77590210Y-105558129D01*
X77587911Y-105549894D01*
X77497131Y-105293540D01*
X77493734Y-105285690D01*
X77369006Y-105044034D01*
X77364568Y-105036707D01*
X77238591Y-104857458D01*
X77228069Y-104849077D01*
X77214681Y-104856129D01*
X75975122Y-106095688D01*
X75967508Y-106109632D01*
X75237456Y-106109632D01*
X75238692Y-106107368D01*
X75238561Y-106105535D01*
X75234310Y-106098920D01*
X73991517Y-104856127D01*
X73979507Y-104849568D01*
X73967767Y-104858536D01*
X73852945Y-105018329D01*
X73848441Y-105025593D01*
X73721185Y-105265938D01*
X73717706Y-105273752D01*
X73624251Y-105529132D01*
X73621862Y-105537355D01*
X73563929Y-105803061D01*
X73562680Y-105811517D01*
X73541342Y-106082635D01*
X73541253Y-106091185D01*
X72584127Y-106091185D01*
X72566519Y-105832903D01*
X72565358Y-105824429D01*
X72510210Y-105558129D01*
X72507911Y-105549894D01*
X72417131Y-105293540D01*
X72413734Y-105285690D01*
X72289006Y-105044034D01*
X72284568Y-105036707D01*
X72158591Y-104857458D01*
X72148069Y-104849077D01*
X72134681Y-104856129D01*
X70895122Y-106095688D01*
X70887508Y-106109632D01*
X70157456Y-106109632D01*
X70158692Y-106107368D01*
X70158561Y-106105535D01*
X70154310Y-106098920D01*
X68911517Y-104856127D01*
X68899507Y-104849568D01*
X68887767Y-104858537D01*
X68860814Y-104896045D01*
X68804819Y-104939692D01*
X68734116Y-104946138D01*
X68671152Y-104913335D01*
X68648082Y-104883226D01*
X68595584Y-104787733D01*
X68580000Y-104727035D01*
X68580000Y-104485857D01*
X69264540Y-104485857D01*
X69270936Y-104497126D01*
X70510288Y-105736478D01*
X70524232Y-105744092D01*
X70526065Y-105743961D01*
X70532680Y-105739710D01*
X71774809Y-104497581D01*
X71781211Y-104485857D01*
X74344540Y-104485857D01*
X74350936Y-104497126D01*
X75590288Y-105736478D01*
X75604232Y-105744092D01*
X75606065Y-105743961D01*
X75612680Y-105739710D01*
X76854809Y-104497581D01*
X76862000Y-104484412D01*
X76854678Y-104474175D01*
X76801016Y-104430254D01*
X76794044Y-104425299D01*
X76562174Y-104283209D01*
X76554576Y-104279237D01*
X76305576Y-104169933D01*
X76297522Y-104167034D01*
X76035987Y-104092534D01*
X76027609Y-104090752D01*
X75758383Y-104052436D01*
X75749836Y-104051809D01*
X75477899Y-104050384D01*
X75469365Y-104050921D01*
X75199746Y-104086418D01*
X75191348Y-104088111D01*
X74929048Y-104159868D01*
X74920961Y-104162684D01*
X74670830Y-104269374D01*
X74663191Y-104273267D01*
X74429855Y-104412915D01*
X74422817Y-104417806D01*
X74353010Y-104473732D01*
X74344540Y-104485857D01*
X71781211Y-104485857D01*
X71782000Y-104484412D01*
X71774678Y-104474175D01*
X71721016Y-104430254D01*
X71714044Y-104425299D01*
X71482174Y-104283209D01*
X71474576Y-104279237D01*
X71225576Y-104169933D01*
X71217522Y-104167034D01*
X70955987Y-104092534D01*
X70947609Y-104090752D01*
X70678383Y-104052436D01*
X70669836Y-104051809D01*
X70397899Y-104050384D01*
X70389365Y-104050921D01*
X70119746Y-104086418D01*
X70111348Y-104088111D01*
X69849048Y-104159868D01*
X69840961Y-104162684D01*
X69590830Y-104269374D01*
X69583191Y-104273267D01*
X69349855Y-104412915D01*
X69342817Y-104417806D01*
X69273010Y-104473732D01*
X69264540Y-104485857D01*
X68580000Y-104485857D01*
X68580000Y-101446724D01*
X69263648Y-101446724D01*
X69270703Y-101456697D01*
X69307667Y-101487603D01*
X69314602Y-101492643D01*
X69544974Y-101637153D01*
X69552509Y-101641194D01*
X69800360Y-101753103D01*
X69808391Y-101756089D01*
X70069130Y-101833324D01*
X70077483Y-101835191D01*
X70346298Y-101876326D01*
X70354831Y-101877042D01*
X70626737Y-101881314D01*
X70635288Y-101880865D01*
X70905261Y-101848195D01*
X70913662Y-101846593D01*
X71176717Y-101777582D01*
X71184819Y-101774855D01*
X71436065Y-101670785D01*
X71443733Y-101666979D01*
X71678529Y-101529775D01*
X71685610Y-101524962D01*
X71772941Y-101456487D01*
X71779914Y-101446724D01*
X74343648Y-101446724D01*
X74350703Y-101456697D01*
X74387667Y-101487603D01*
X74394602Y-101492643D01*
X74624974Y-101637153D01*
X74632509Y-101641194D01*
X74880360Y-101753103D01*
X74888391Y-101756089D01*
X75149130Y-101833324D01*
X75157483Y-101835191D01*
X75426298Y-101876326D01*
X75434831Y-101877042D01*
X75706737Y-101881314D01*
X75715288Y-101880865D01*
X75985261Y-101848195D01*
X75993662Y-101846593D01*
X76256717Y-101777582D01*
X76264819Y-101774855D01*
X76516065Y-101670785D01*
X76523733Y-101666979D01*
X76758529Y-101529775D01*
X76765610Y-101524962D01*
X76852941Y-101456487D01*
X76861411Y-101444628D01*
X76854894Y-101433004D01*
X75615912Y-100194022D01*
X75601968Y-100186408D01*
X75600135Y-100186539D01*
X75593520Y-100190790D01*
X74350940Y-101433370D01*
X74343648Y-101446724D01*
X71779914Y-101446724D01*
X71781411Y-101444628D01*
X71774894Y-101433004D01*
X70535912Y-100194022D01*
X70521968Y-100186408D01*
X70520135Y-100186539D01*
X70513520Y-100190790D01*
X69270940Y-101433370D01*
X69263648Y-101446724D01*
X68580000Y-101446724D01*
X68580000Y-101203465D01*
X68595586Y-101142764D01*
X68647656Y-101048050D01*
X68698001Y-100997991D01*
X68767418Y-100983098D01*
X68833867Y-101008099D01*
X68861910Y-101037384D01*
X68886922Y-101073777D01*
X68897175Y-101082120D01*
X68910916Y-101074974D01*
X70151078Y-99834812D01*
X70157456Y-99823132D01*
X70887508Y-99823132D01*
X70887639Y-99824965D01*
X70891890Y-99831580D01*
X72134168Y-101073858D01*
X72146377Y-101080525D01*
X72157877Y-101071835D01*
X72261738Y-100930445D01*
X72266325Y-100923217D01*
X72396083Y-100684233D01*
X72399651Y-100676439D01*
X72495775Y-100422055D01*
X72498248Y-100413863D01*
X72558961Y-100148780D01*
X72560299Y-100140326D01*
X72584635Y-99867652D01*
X72584881Y-99862715D01*
X72585281Y-99824485D01*
X72585138Y-99819519D01*
X72584127Y-99804685D01*
X73541253Y-99804685D01*
X73556907Y-100076176D01*
X73557980Y-100084676D01*
X73610337Y-100351537D01*
X73612548Y-100359789D01*
X73700638Y-100617081D01*
X73703953Y-100624966D01*
X73826145Y-100867918D01*
X73830502Y-100875284D01*
X73966922Y-101073776D01*
X73977175Y-101082120D01*
X73990916Y-101074974D01*
X75231078Y-99834812D01*
X75237456Y-99823132D01*
X75967508Y-99823132D01*
X75967639Y-99824965D01*
X75971890Y-99831580D01*
X77214168Y-101073858D01*
X77226377Y-101080525D01*
X77237877Y-101071835D01*
X77341738Y-100930445D01*
X77346325Y-100923217D01*
X77476083Y-100684233D01*
X77479651Y-100676439D01*
X77575775Y-100422055D01*
X77578248Y-100413863D01*
X77638961Y-100148780D01*
X77640299Y-100140326D01*
X77664635Y-99867652D01*
X77664881Y-99862715D01*
X77665281Y-99824485D01*
X77665138Y-99819519D01*
X77646519Y-99546403D01*
X77645358Y-99537929D01*
X77590210Y-99271629D01*
X77587911Y-99263394D01*
X77497131Y-99007040D01*
X77493734Y-98999190D01*
X77369006Y-98757534D01*
X77364568Y-98750207D01*
X77238591Y-98570958D01*
X77228069Y-98562577D01*
X77214681Y-98569629D01*
X75975122Y-99809188D01*
X75967508Y-99823132D01*
X75237456Y-99823132D01*
X75238692Y-99820868D01*
X75238561Y-99819035D01*
X75234310Y-99812420D01*
X73991517Y-98569627D01*
X73979507Y-98563068D01*
X73967767Y-98572036D01*
X73852945Y-98731829D01*
X73848441Y-98739093D01*
X73721185Y-98979438D01*
X73717706Y-98987252D01*
X73624251Y-99242632D01*
X73621862Y-99250855D01*
X73563929Y-99516561D01*
X73562680Y-99525017D01*
X73541342Y-99796135D01*
X73541253Y-99804685D01*
X72584127Y-99804685D01*
X72566519Y-99546403D01*
X72565358Y-99537929D01*
X72510210Y-99271629D01*
X72507911Y-99263394D01*
X72417131Y-99007040D01*
X72413734Y-98999190D01*
X72289006Y-98757534D01*
X72284568Y-98750207D01*
X72158591Y-98570958D01*
X72148069Y-98562577D01*
X72134681Y-98569629D01*
X70895122Y-99809188D01*
X70887508Y-99823132D01*
X70157456Y-99823132D01*
X70158692Y-99820868D01*
X70158561Y-99819035D01*
X70154310Y-99812420D01*
X68911517Y-98569627D01*
X68899507Y-98563068D01*
X68887767Y-98572037D01*
X68860814Y-98609545D01*
X68804819Y-98653192D01*
X68734116Y-98659638D01*
X68671152Y-98626835D01*
X68648082Y-98596726D01*
X68595584Y-98501233D01*
X68580000Y-98440535D01*
X68580000Y-98199357D01*
X69264540Y-98199357D01*
X69270936Y-98210626D01*
X70510288Y-99449978D01*
X70524232Y-99457592D01*
X70526065Y-99457461D01*
X70532680Y-99453210D01*
X71774809Y-98211081D01*
X71781211Y-98199357D01*
X74344540Y-98199357D01*
X74350936Y-98210626D01*
X75590288Y-99449978D01*
X75604232Y-99457592D01*
X75606065Y-99457461D01*
X75612680Y-99453210D01*
X76854809Y-98211081D01*
X76862000Y-98197912D01*
X76854678Y-98187675D01*
X76801016Y-98143754D01*
X76794044Y-98138799D01*
X76562174Y-97996709D01*
X76554576Y-97992737D01*
X76305576Y-97883433D01*
X76297522Y-97880534D01*
X76035987Y-97806034D01*
X76027609Y-97804252D01*
X75758383Y-97765936D01*
X75749836Y-97765309D01*
X75477899Y-97763884D01*
X75469365Y-97764421D01*
X75199746Y-97799918D01*
X75191348Y-97801611D01*
X74929048Y-97873368D01*
X74920961Y-97876184D01*
X74670830Y-97982874D01*
X74663191Y-97986767D01*
X74429855Y-98126415D01*
X74422817Y-98131306D01*
X74353010Y-98187232D01*
X74344540Y-98199357D01*
X71781211Y-98199357D01*
X71782000Y-98197912D01*
X71774678Y-98187675D01*
X71721016Y-98143754D01*
X71714044Y-98138799D01*
X71482174Y-97996709D01*
X71474576Y-97992737D01*
X71225576Y-97883433D01*
X71217522Y-97880534D01*
X70955987Y-97806034D01*
X70947609Y-97804252D01*
X70678383Y-97765936D01*
X70669836Y-97765309D01*
X70397899Y-97763884D01*
X70389365Y-97764421D01*
X70119746Y-97799918D01*
X70111348Y-97801611D01*
X69849048Y-97873368D01*
X69840961Y-97876184D01*
X69590830Y-97982874D01*
X69583191Y-97986767D01*
X69349855Y-98126415D01*
X69342817Y-98131306D01*
X69273010Y-98187232D01*
X69264540Y-98199357D01*
X68580000Y-98199357D01*
X68580000Y-95096724D01*
X69263648Y-95096724D01*
X69270703Y-95106697D01*
X69307667Y-95137603D01*
X69314602Y-95142643D01*
X69544974Y-95287153D01*
X69552509Y-95291194D01*
X69800360Y-95403103D01*
X69808391Y-95406089D01*
X70069130Y-95483324D01*
X70077483Y-95485191D01*
X70346298Y-95526326D01*
X70354831Y-95527042D01*
X70626737Y-95531314D01*
X70635288Y-95530865D01*
X70905261Y-95498195D01*
X70913662Y-95496593D01*
X71176717Y-95427582D01*
X71184819Y-95424855D01*
X71436065Y-95320785D01*
X71443733Y-95316979D01*
X71678529Y-95179775D01*
X71685610Y-95174962D01*
X71772941Y-95106487D01*
X71779914Y-95096724D01*
X74343648Y-95096724D01*
X74350703Y-95106697D01*
X74387667Y-95137603D01*
X74394602Y-95142643D01*
X74624974Y-95287153D01*
X74632509Y-95291194D01*
X74880360Y-95403103D01*
X74888391Y-95406089D01*
X75149130Y-95483324D01*
X75157483Y-95485191D01*
X75426298Y-95526326D01*
X75434831Y-95527042D01*
X75706737Y-95531314D01*
X75715288Y-95530865D01*
X75985261Y-95498195D01*
X75993662Y-95496593D01*
X76256717Y-95427582D01*
X76264819Y-95424855D01*
X76516065Y-95320785D01*
X76523733Y-95316979D01*
X76758529Y-95179775D01*
X76765610Y-95174962D01*
X76852941Y-95106487D01*
X76861411Y-95094628D01*
X76854894Y-95083004D01*
X75615912Y-93844022D01*
X75601968Y-93836408D01*
X75600135Y-93836539D01*
X75593520Y-93840790D01*
X74350940Y-95083370D01*
X74343648Y-95096724D01*
X71779914Y-95096724D01*
X71781411Y-95094628D01*
X71774894Y-95083004D01*
X70535912Y-93844022D01*
X70521968Y-93836408D01*
X70520135Y-93836539D01*
X70513520Y-93840790D01*
X69270940Y-95083370D01*
X69263648Y-95096724D01*
X68580000Y-95096724D01*
X68580000Y-94853465D01*
X68595586Y-94792764D01*
X68647656Y-94698050D01*
X68698001Y-94647991D01*
X68767418Y-94633098D01*
X68833867Y-94658099D01*
X68861910Y-94687384D01*
X68886922Y-94723777D01*
X68897175Y-94732120D01*
X68910916Y-94724974D01*
X70151078Y-93484812D01*
X70157456Y-93473132D01*
X70887508Y-93473132D01*
X70887639Y-93474965D01*
X70891890Y-93481580D01*
X72134168Y-94723858D01*
X72146377Y-94730525D01*
X72157877Y-94721835D01*
X72261738Y-94580445D01*
X72266325Y-94573217D01*
X72396083Y-94334233D01*
X72399651Y-94326439D01*
X72495775Y-94072055D01*
X72498248Y-94063863D01*
X72558961Y-93798780D01*
X72560299Y-93790326D01*
X72584635Y-93517652D01*
X72584881Y-93512715D01*
X72585281Y-93474485D01*
X72585138Y-93469519D01*
X72584127Y-93454685D01*
X73541253Y-93454685D01*
X73556907Y-93726176D01*
X73557980Y-93734676D01*
X73610337Y-94001537D01*
X73612548Y-94009789D01*
X73700638Y-94267081D01*
X73703953Y-94274966D01*
X73826145Y-94517918D01*
X73830502Y-94525284D01*
X73966922Y-94723776D01*
X73977175Y-94732120D01*
X73990916Y-94724974D01*
X75231078Y-93484812D01*
X75237456Y-93473132D01*
X75967508Y-93473132D01*
X75967639Y-93474965D01*
X75971890Y-93481580D01*
X77214168Y-94723858D01*
X77226377Y-94730525D01*
X77237877Y-94721835D01*
X77341738Y-94580445D01*
X77346325Y-94573217D01*
X77476083Y-94334233D01*
X77479651Y-94326439D01*
X77575775Y-94072055D01*
X77578248Y-94063863D01*
X77638961Y-93798780D01*
X77640299Y-93790326D01*
X77664635Y-93517652D01*
X77664881Y-93512715D01*
X77665281Y-93474485D01*
X77665138Y-93469519D01*
X77646519Y-93196403D01*
X77645358Y-93187929D01*
X77590210Y-92921629D01*
X77587911Y-92913394D01*
X77497131Y-92657040D01*
X77493734Y-92649190D01*
X77369006Y-92407534D01*
X77364568Y-92400207D01*
X77238591Y-92220958D01*
X77228069Y-92212577D01*
X77214681Y-92219629D01*
X75975122Y-93459188D01*
X75967508Y-93473132D01*
X75237456Y-93473132D01*
X75238692Y-93470868D01*
X75238561Y-93469035D01*
X75234310Y-93462420D01*
X73991517Y-92219627D01*
X73979507Y-92213068D01*
X73967767Y-92222036D01*
X73852945Y-92381829D01*
X73848441Y-92389093D01*
X73721185Y-92629438D01*
X73717706Y-92637252D01*
X73624251Y-92892632D01*
X73621862Y-92900855D01*
X73563929Y-93166561D01*
X73562680Y-93175017D01*
X73541342Y-93446135D01*
X73541253Y-93454685D01*
X72584127Y-93454685D01*
X72566519Y-93196403D01*
X72565358Y-93187929D01*
X72510210Y-92921629D01*
X72507911Y-92913394D01*
X72417131Y-92657040D01*
X72413734Y-92649190D01*
X72289006Y-92407534D01*
X72284568Y-92400207D01*
X72158591Y-92220958D01*
X72148069Y-92212577D01*
X72134681Y-92219629D01*
X70895122Y-93459188D01*
X70887508Y-93473132D01*
X70157456Y-93473132D01*
X70158692Y-93470868D01*
X70158561Y-93469035D01*
X70154310Y-93462420D01*
X68911517Y-92219627D01*
X68899507Y-92213068D01*
X68887767Y-92222037D01*
X68860814Y-92259545D01*
X68804819Y-92303192D01*
X68734116Y-92309638D01*
X68671152Y-92276835D01*
X68648082Y-92246726D01*
X68595584Y-92151233D01*
X68580000Y-92090535D01*
X68580000Y-91849357D01*
X69264540Y-91849357D01*
X69270936Y-91860626D01*
X70510288Y-93099978D01*
X70524232Y-93107592D01*
X70526065Y-93107461D01*
X70532680Y-93103210D01*
X71774809Y-91861081D01*
X71781211Y-91849357D01*
X74344540Y-91849357D01*
X74350936Y-91860626D01*
X75590288Y-93099978D01*
X75604232Y-93107592D01*
X75606065Y-93107461D01*
X75612680Y-93103210D01*
X76854809Y-91861081D01*
X76862000Y-91847912D01*
X76854678Y-91837675D01*
X76801016Y-91793754D01*
X76794044Y-91788799D01*
X76562174Y-91646709D01*
X76554576Y-91642737D01*
X76305576Y-91533433D01*
X76297522Y-91530534D01*
X76035987Y-91456034D01*
X76027609Y-91454252D01*
X75758383Y-91415936D01*
X75749836Y-91415309D01*
X75477899Y-91413884D01*
X75469365Y-91414421D01*
X75199746Y-91449918D01*
X75191348Y-91451611D01*
X74929048Y-91523368D01*
X74920961Y-91526184D01*
X74670830Y-91632874D01*
X74663191Y-91636767D01*
X74429855Y-91776415D01*
X74422817Y-91781306D01*
X74353010Y-91837232D01*
X74344540Y-91849357D01*
X71781211Y-91849357D01*
X71782000Y-91847912D01*
X71774678Y-91837675D01*
X71721016Y-91793754D01*
X71714044Y-91788799D01*
X71482174Y-91646709D01*
X71474576Y-91642737D01*
X71225576Y-91533433D01*
X71217522Y-91530534D01*
X70955987Y-91456034D01*
X70947609Y-91454252D01*
X70678383Y-91415936D01*
X70669836Y-91415309D01*
X70397899Y-91413884D01*
X70389365Y-91414421D01*
X70119746Y-91449918D01*
X70111348Y-91451611D01*
X69849048Y-91523368D01*
X69840961Y-91526184D01*
X69590830Y-91632874D01*
X69583191Y-91636767D01*
X69349855Y-91776415D01*
X69342817Y-91781306D01*
X69273010Y-91837232D01*
X69264540Y-91849357D01*
X68580000Y-91849357D01*
X68580000Y-88683224D01*
X69263648Y-88683224D01*
X69270703Y-88693197D01*
X69307667Y-88724103D01*
X69314602Y-88729143D01*
X69544974Y-88873653D01*
X69552509Y-88877694D01*
X69800360Y-88989603D01*
X69808391Y-88992589D01*
X70069130Y-89069824D01*
X70077483Y-89071691D01*
X70346298Y-89112826D01*
X70354831Y-89113542D01*
X70626737Y-89117814D01*
X70635288Y-89117365D01*
X70905261Y-89084695D01*
X70913662Y-89083093D01*
X71176717Y-89014082D01*
X71184819Y-89011355D01*
X71436065Y-88907285D01*
X71443733Y-88903479D01*
X71678529Y-88766275D01*
X71685610Y-88761462D01*
X71772941Y-88692987D01*
X71779914Y-88683224D01*
X74343648Y-88683224D01*
X74350703Y-88693197D01*
X74387667Y-88724103D01*
X74394602Y-88729143D01*
X74624974Y-88873653D01*
X74632509Y-88877694D01*
X74880360Y-88989603D01*
X74888391Y-88992589D01*
X75149130Y-89069824D01*
X75157483Y-89071691D01*
X75426298Y-89112826D01*
X75434831Y-89113542D01*
X75706737Y-89117814D01*
X75715288Y-89117365D01*
X75985261Y-89084695D01*
X75993662Y-89083093D01*
X76256717Y-89014082D01*
X76264819Y-89011355D01*
X76516065Y-88907285D01*
X76523733Y-88903479D01*
X76758529Y-88766275D01*
X76765610Y-88761462D01*
X76852941Y-88692987D01*
X76861411Y-88681128D01*
X76854894Y-88669504D01*
X75615912Y-87430522D01*
X75601968Y-87422908D01*
X75600135Y-87423039D01*
X75593520Y-87427290D01*
X74350940Y-88669870D01*
X74343648Y-88683224D01*
X71779914Y-88683224D01*
X71781411Y-88681128D01*
X71774894Y-88669504D01*
X70535912Y-87430522D01*
X70521968Y-87422908D01*
X70520135Y-87423039D01*
X70513520Y-87427290D01*
X69270940Y-88669870D01*
X69263648Y-88683224D01*
X68580000Y-88683224D01*
X68580000Y-88439965D01*
X68595586Y-88379264D01*
X68647656Y-88284550D01*
X68698001Y-88234491D01*
X68767418Y-88219598D01*
X68833867Y-88244599D01*
X68861910Y-88273884D01*
X68886922Y-88310277D01*
X68897175Y-88318620D01*
X68910916Y-88311474D01*
X70151078Y-87071312D01*
X70157456Y-87059632D01*
X70887508Y-87059632D01*
X70887639Y-87061465D01*
X70891890Y-87068080D01*
X72134168Y-88310358D01*
X72146377Y-88317025D01*
X72157877Y-88308335D01*
X72261738Y-88166945D01*
X72266325Y-88159717D01*
X72396083Y-87920733D01*
X72399651Y-87912939D01*
X72495775Y-87658555D01*
X72498248Y-87650363D01*
X72558961Y-87385280D01*
X72560299Y-87376826D01*
X72584635Y-87104152D01*
X72584881Y-87099215D01*
X72585281Y-87060985D01*
X72585138Y-87056019D01*
X72584127Y-87041185D01*
X73541253Y-87041185D01*
X73556907Y-87312676D01*
X73557980Y-87321176D01*
X73610337Y-87588037D01*
X73612548Y-87596289D01*
X73700638Y-87853581D01*
X73703953Y-87861466D01*
X73826145Y-88104418D01*
X73830502Y-88111784D01*
X73966922Y-88310276D01*
X73977175Y-88318620D01*
X73990916Y-88311474D01*
X75231078Y-87071312D01*
X75237456Y-87059632D01*
X75967508Y-87059632D01*
X75967639Y-87061465D01*
X75971890Y-87068080D01*
X77214168Y-88310358D01*
X77226377Y-88317025D01*
X77237877Y-88308335D01*
X77341738Y-88166945D01*
X77346325Y-88159717D01*
X77476083Y-87920733D01*
X77479651Y-87912939D01*
X77575775Y-87658555D01*
X77578248Y-87650363D01*
X77638961Y-87385280D01*
X77640299Y-87376826D01*
X77664635Y-87104152D01*
X77664881Y-87099215D01*
X77665281Y-87060985D01*
X77665138Y-87056019D01*
X77646519Y-86782903D01*
X77645358Y-86774429D01*
X77590210Y-86508129D01*
X77587911Y-86499894D01*
X77497131Y-86243540D01*
X77493734Y-86235690D01*
X77369006Y-85994034D01*
X77364568Y-85986707D01*
X77238591Y-85807458D01*
X77228069Y-85799077D01*
X77214681Y-85806129D01*
X75975122Y-87045688D01*
X75967508Y-87059632D01*
X75237456Y-87059632D01*
X75238692Y-87057368D01*
X75238561Y-87055535D01*
X75234310Y-87048920D01*
X73991517Y-85806127D01*
X73979507Y-85799568D01*
X73967767Y-85808536D01*
X73852945Y-85968329D01*
X73848441Y-85975593D01*
X73721185Y-86215938D01*
X73717706Y-86223752D01*
X73624251Y-86479132D01*
X73621862Y-86487355D01*
X73563929Y-86753061D01*
X73562680Y-86761517D01*
X73541342Y-87032635D01*
X73541253Y-87041185D01*
X72584127Y-87041185D01*
X72566519Y-86782903D01*
X72565358Y-86774429D01*
X72510210Y-86508129D01*
X72507911Y-86499894D01*
X72417131Y-86243540D01*
X72413734Y-86235690D01*
X72289006Y-85994034D01*
X72284568Y-85986707D01*
X72158591Y-85807458D01*
X72148069Y-85799077D01*
X72134681Y-85806129D01*
X70895122Y-87045688D01*
X70887508Y-87059632D01*
X70157456Y-87059632D01*
X70158692Y-87057368D01*
X70158561Y-87055535D01*
X70154310Y-87048920D01*
X68911517Y-85806127D01*
X68899507Y-85799568D01*
X68887767Y-85808537D01*
X68860814Y-85846045D01*
X68804819Y-85889692D01*
X68734116Y-85896138D01*
X68671152Y-85863335D01*
X68648082Y-85833226D01*
X68595584Y-85737733D01*
X68580000Y-85677035D01*
X68580000Y-85435857D01*
X69264540Y-85435857D01*
X69270936Y-85447126D01*
X70510288Y-86686478D01*
X70524232Y-86694092D01*
X70526065Y-86693961D01*
X70532680Y-86689710D01*
X71774809Y-85447581D01*
X71781211Y-85435857D01*
X74344540Y-85435857D01*
X74350936Y-85447126D01*
X75590288Y-86686478D01*
X75604232Y-86694092D01*
X75606065Y-86693961D01*
X75612680Y-86689710D01*
X76854809Y-85447581D01*
X76862000Y-85434412D01*
X76854678Y-85424175D01*
X76801016Y-85380254D01*
X76794044Y-85375299D01*
X76562174Y-85233209D01*
X76554576Y-85229237D01*
X76305576Y-85119933D01*
X76297522Y-85117034D01*
X76035987Y-85042534D01*
X76027609Y-85040752D01*
X75758383Y-85002436D01*
X75749836Y-85001809D01*
X75477899Y-85000384D01*
X75469365Y-85000921D01*
X75199746Y-85036418D01*
X75191348Y-85038111D01*
X74929048Y-85109868D01*
X74920961Y-85112684D01*
X74670830Y-85219374D01*
X74663191Y-85223267D01*
X74429855Y-85362915D01*
X74422817Y-85367806D01*
X74353010Y-85423732D01*
X74344540Y-85435857D01*
X71781211Y-85435857D01*
X71782000Y-85434412D01*
X71774678Y-85424175D01*
X71721016Y-85380254D01*
X71714044Y-85375299D01*
X71482174Y-85233209D01*
X71474576Y-85229237D01*
X71225576Y-85119933D01*
X71217522Y-85117034D01*
X70955987Y-85042534D01*
X70947609Y-85040752D01*
X70678383Y-85002436D01*
X70669836Y-85001809D01*
X70397899Y-85000384D01*
X70389365Y-85000921D01*
X70119746Y-85036418D01*
X70111348Y-85038111D01*
X69849048Y-85109868D01*
X69840961Y-85112684D01*
X69590830Y-85219374D01*
X69583191Y-85223267D01*
X69349855Y-85362915D01*
X69342817Y-85367806D01*
X69273010Y-85423732D01*
X69264540Y-85435857D01*
X68580000Y-85435857D01*
X68580000Y-82396724D01*
X69263648Y-82396724D01*
X69270703Y-82406697D01*
X69307667Y-82437603D01*
X69314602Y-82442643D01*
X69544974Y-82587153D01*
X69552509Y-82591194D01*
X69800360Y-82703103D01*
X69808391Y-82706089D01*
X70069130Y-82783324D01*
X70077483Y-82785191D01*
X70346298Y-82826326D01*
X70354831Y-82827042D01*
X70626737Y-82831314D01*
X70635288Y-82830865D01*
X70905261Y-82798195D01*
X70913662Y-82796593D01*
X71176717Y-82727582D01*
X71184819Y-82724855D01*
X71436065Y-82620785D01*
X71443733Y-82616979D01*
X71678529Y-82479775D01*
X71685610Y-82474962D01*
X71772941Y-82406487D01*
X71779914Y-82396724D01*
X74343648Y-82396724D01*
X74350703Y-82406697D01*
X74387667Y-82437603D01*
X74394602Y-82442643D01*
X74624974Y-82587153D01*
X74632509Y-82591194D01*
X74880360Y-82703103D01*
X74888391Y-82706089D01*
X75149130Y-82783324D01*
X75157483Y-82785191D01*
X75426298Y-82826326D01*
X75434831Y-82827042D01*
X75706737Y-82831314D01*
X75715288Y-82830865D01*
X75985261Y-82798195D01*
X75993662Y-82796593D01*
X76256717Y-82727582D01*
X76264819Y-82724855D01*
X76516065Y-82620785D01*
X76523733Y-82616979D01*
X76758529Y-82479775D01*
X76765610Y-82474962D01*
X76852941Y-82406487D01*
X76861411Y-82394628D01*
X76854894Y-82383004D01*
X75615912Y-81144022D01*
X75601968Y-81136408D01*
X75600135Y-81136539D01*
X75593520Y-81140790D01*
X74350940Y-82383370D01*
X74343648Y-82396724D01*
X71779914Y-82396724D01*
X71781411Y-82394628D01*
X71774894Y-82383004D01*
X70535912Y-81144022D01*
X70521968Y-81136408D01*
X70520135Y-81136539D01*
X70513520Y-81140790D01*
X69270940Y-82383370D01*
X69263648Y-82396724D01*
X68580000Y-82396724D01*
X68580000Y-82153465D01*
X68595586Y-82092764D01*
X68647656Y-81998050D01*
X68698001Y-81947991D01*
X68767418Y-81933098D01*
X68833867Y-81958099D01*
X68861910Y-81987384D01*
X68886922Y-82023777D01*
X68897175Y-82032120D01*
X68910916Y-82024974D01*
X70151078Y-80784812D01*
X70157456Y-80773132D01*
X70887508Y-80773132D01*
X70887639Y-80774965D01*
X70891890Y-80781580D01*
X72134168Y-82023858D01*
X72146377Y-82030525D01*
X72157877Y-82021835D01*
X72261738Y-81880445D01*
X72266325Y-81873217D01*
X72396083Y-81634233D01*
X72399651Y-81626439D01*
X72495775Y-81372055D01*
X72498248Y-81363863D01*
X72558961Y-81098780D01*
X72560299Y-81090326D01*
X72584635Y-80817652D01*
X72584881Y-80812715D01*
X72585281Y-80774485D01*
X72585138Y-80769519D01*
X72584127Y-80754685D01*
X73541253Y-80754685D01*
X73556907Y-81026176D01*
X73557980Y-81034676D01*
X73610337Y-81301537D01*
X73612548Y-81309789D01*
X73700638Y-81567081D01*
X73703953Y-81574966D01*
X73826145Y-81817918D01*
X73830502Y-81825284D01*
X73966922Y-82023776D01*
X73977175Y-82032120D01*
X73990916Y-82024974D01*
X75231078Y-80784812D01*
X75237456Y-80773132D01*
X75967508Y-80773132D01*
X75967639Y-80774965D01*
X75971890Y-80781580D01*
X77214168Y-82023858D01*
X77226377Y-82030525D01*
X77237877Y-82021835D01*
X77341738Y-81880445D01*
X77346325Y-81873217D01*
X77476083Y-81634233D01*
X77479651Y-81626439D01*
X77575775Y-81372055D01*
X77578248Y-81363863D01*
X77638961Y-81098780D01*
X77640299Y-81090326D01*
X77664635Y-80817652D01*
X77664881Y-80812715D01*
X77665281Y-80774485D01*
X77665138Y-80769519D01*
X77646519Y-80496403D01*
X77645358Y-80487929D01*
X77590210Y-80221629D01*
X77587911Y-80213394D01*
X77497131Y-79957040D01*
X77493734Y-79949190D01*
X77369006Y-79707534D01*
X77364568Y-79700207D01*
X77238591Y-79520958D01*
X77228069Y-79512577D01*
X77214681Y-79519629D01*
X75975122Y-80759188D01*
X75967508Y-80773132D01*
X75237456Y-80773132D01*
X75238692Y-80770868D01*
X75238561Y-80769035D01*
X75234310Y-80762420D01*
X73991517Y-79519627D01*
X73979507Y-79513068D01*
X73967767Y-79522036D01*
X73852945Y-79681829D01*
X73848441Y-79689093D01*
X73721185Y-79929438D01*
X73717706Y-79937252D01*
X73624251Y-80192632D01*
X73621862Y-80200855D01*
X73563929Y-80466561D01*
X73562680Y-80475017D01*
X73541342Y-80746135D01*
X73541253Y-80754685D01*
X72584127Y-80754685D01*
X72566519Y-80496403D01*
X72565358Y-80487929D01*
X72510210Y-80221629D01*
X72507911Y-80213394D01*
X72417131Y-79957040D01*
X72413734Y-79949190D01*
X72289006Y-79707534D01*
X72284568Y-79700207D01*
X72158591Y-79520958D01*
X72148069Y-79512577D01*
X72134681Y-79519629D01*
X70895122Y-80759188D01*
X70887508Y-80773132D01*
X70157456Y-80773132D01*
X70158692Y-80770868D01*
X70158561Y-80769035D01*
X70154310Y-80762420D01*
X68911517Y-79519627D01*
X68899507Y-79513068D01*
X68887767Y-79522037D01*
X68860814Y-79559545D01*
X68804819Y-79603192D01*
X68734116Y-79609638D01*
X68671152Y-79576835D01*
X68648082Y-79546726D01*
X68595584Y-79451233D01*
X68580000Y-79390535D01*
X68580000Y-79149357D01*
X69264540Y-79149357D01*
X69270936Y-79160626D01*
X70510288Y-80399978D01*
X70524232Y-80407592D01*
X70526065Y-80407461D01*
X70532680Y-80403210D01*
X71774809Y-79161081D01*
X71781211Y-79149357D01*
X74344540Y-79149357D01*
X74350936Y-79160626D01*
X75590288Y-80399978D01*
X75604232Y-80407592D01*
X75606065Y-80407461D01*
X75612680Y-80403210D01*
X76854809Y-79161081D01*
X76862000Y-79147912D01*
X76854678Y-79137675D01*
X76801016Y-79093754D01*
X76794044Y-79088799D01*
X76562174Y-78946709D01*
X76554576Y-78942737D01*
X76305576Y-78833433D01*
X76297522Y-78830534D01*
X76035987Y-78756034D01*
X76027609Y-78754252D01*
X75758383Y-78715936D01*
X75749836Y-78715309D01*
X75477899Y-78713884D01*
X75469365Y-78714421D01*
X75199746Y-78749918D01*
X75191348Y-78751611D01*
X74929048Y-78823368D01*
X74920961Y-78826184D01*
X74670830Y-78932874D01*
X74663191Y-78936767D01*
X74429855Y-79076415D01*
X74422817Y-79081306D01*
X74353010Y-79137232D01*
X74344540Y-79149357D01*
X71781211Y-79149357D01*
X71782000Y-79147912D01*
X71774678Y-79137675D01*
X71721016Y-79093754D01*
X71714044Y-79088799D01*
X71482174Y-78946709D01*
X71474576Y-78942737D01*
X71225576Y-78833433D01*
X71217522Y-78830534D01*
X70955987Y-78756034D01*
X70947609Y-78754252D01*
X70678383Y-78715936D01*
X70669836Y-78715309D01*
X70397899Y-78713884D01*
X70389365Y-78714421D01*
X70119746Y-78749918D01*
X70111348Y-78751611D01*
X69849048Y-78823368D01*
X69840961Y-78826184D01*
X69590830Y-78932874D01*
X69583191Y-78936767D01*
X69349855Y-79076415D01*
X69342817Y-79081306D01*
X69273010Y-79137232D01*
X69264540Y-79149357D01*
X68580000Y-79149357D01*
X68580000Y-76237224D01*
X69263648Y-76237224D01*
X69270703Y-76247197D01*
X69307667Y-76278103D01*
X69314602Y-76283143D01*
X69544974Y-76427653D01*
X69552509Y-76431694D01*
X69800360Y-76543603D01*
X69808391Y-76546589D01*
X70069130Y-76623824D01*
X70077483Y-76625691D01*
X70346298Y-76666826D01*
X70354831Y-76667542D01*
X70626737Y-76671814D01*
X70635288Y-76671365D01*
X70905261Y-76638695D01*
X70913662Y-76637093D01*
X71176717Y-76568082D01*
X71184819Y-76565355D01*
X71436065Y-76461285D01*
X71443733Y-76457479D01*
X71678529Y-76320275D01*
X71685610Y-76315462D01*
X71772941Y-76246987D01*
X71779914Y-76237224D01*
X74343648Y-76237224D01*
X74350703Y-76247197D01*
X74387667Y-76278103D01*
X74394602Y-76283143D01*
X74624974Y-76427653D01*
X74632509Y-76431694D01*
X74880360Y-76543603D01*
X74888391Y-76546589D01*
X75149130Y-76623824D01*
X75157483Y-76625691D01*
X75426298Y-76666826D01*
X75434831Y-76667542D01*
X75706737Y-76671814D01*
X75715288Y-76671365D01*
X75985261Y-76638695D01*
X75993662Y-76637093D01*
X76256717Y-76568082D01*
X76264819Y-76565355D01*
X76516065Y-76461285D01*
X76523733Y-76457479D01*
X76758529Y-76320275D01*
X76765610Y-76315462D01*
X76852941Y-76246987D01*
X76861411Y-76235128D01*
X76854894Y-76223504D01*
X75615912Y-74984522D01*
X75601968Y-74976908D01*
X75600135Y-74977039D01*
X75593520Y-74981290D01*
X74350940Y-76223870D01*
X74343648Y-76237224D01*
X71779914Y-76237224D01*
X71781411Y-76235128D01*
X71774894Y-76223504D01*
X70535912Y-74984522D01*
X70521968Y-74976908D01*
X70520135Y-74977039D01*
X70513520Y-74981290D01*
X69270940Y-76223870D01*
X69263648Y-76237224D01*
X68580000Y-76237224D01*
X68580000Y-75993965D01*
X68595586Y-75933264D01*
X68647656Y-75838550D01*
X68698001Y-75788491D01*
X68767418Y-75773598D01*
X68833867Y-75798599D01*
X68861910Y-75827884D01*
X68886922Y-75864277D01*
X68897175Y-75872620D01*
X68910916Y-75865474D01*
X70151078Y-74625312D01*
X70157456Y-74613632D01*
X70887508Y-74613632D01*
X70887639Y-74615465D01*
X70891890Y-74622080D01*
X72134168Y-75864358D01*
X72146377Y-75871025D01*
X72157877Y-75862335D01*
X72261738Y-75720945D01*
X72266325Y-75713717D01*
X72396083Y-75474733D01*
X72399651Y-75466939D01*
X72495775Y-75212555D01*
X72498248Y-75204363D01*
X72558961Y-74939280D01*
X72560299Y-74930826D01*
X72584635Y-74658152D01*
X72584881Y-74653215D01*
X72585281Y-74614985D01*
X72585138Y-74610019D01*
X72584127Y-74595185D01*
X73541253Y-74595185D01*
X73556907Y-74866676D01*
X73557980Y-74875176D01*
X73610337Y-75142037D01*
X73612548Y-75150289D01*
X73700638Y-75407581D01*
X73703953Y-75415466D01*
X73826145Y-75658418D01*
X73830502Y-75665784D01*
X73966922Y-75864276D01*
X73977175Y-75872620D01*
X73990916Y-75865474D01*
X75231078Y-74625312D01*
X75237456Y-74613632D01*
X75967508Y-74613632D01*
X75967639Y-74615465D01*
X75971890Y-74622080D01*
X77214168Y-75864358D01*
X77226377Y-75871025D01*
X77237877Y-75862335D01*
X77341738Y-75720945D01*
X77346325Y-75713717D01*
X77476083Y-75474733D01*
X77479651Y-75466939D01*
X77575775Y-75212555D01*
X77578248Y-75204363D01*
X77638961Y-74939280D01*
X77640299Y-74930826D01*
X77664635Y-74658152D01*
X77664881Y-74653215D01*
X77665281Y-74614985D01*
X77665138Y-74610019D01*
X77646519Y-74336903D01*
X77645358Y-74328429D01*
X77590210Y-74062129D01*
X77587911Y-74053894D01*
X77497131Y-73797540D01*
X77493734Y-73789690D01*
X77369006Y-73548034D01*
X77364568Y-73540707D01*
X77238591Y-73361458D01*
X77228069Y-73353077D01*
X77214681Y-73360129D01*
X75975122Y-74599688D01*
X75967508Y-74613632D01*
X75237456Y-74613632D01*
X75238692Y-74611368D01*
X75238561Y-74609535D01*
X75234310Y-74602920D01*
X73991517Y-73360127D01*
X73979507Y-73353568D01*
X73967767Y-73362536D01*
X73852945Y-73522329D01*
X73848441Y-73529593D01*
X73721185Y-73769938D01*
X73717706Y-73777752D01*
X73624251Y-74033132D01*
X73621862Y-74041355D01*
X73563929Y-74307061D01*
X73562680Y-74315517D01*
X73541342Y-74586635D01*
X73541253Y-74595185D01*
X72584127Y-74595185D01*
X72566519Y-74336903D01*
X72565358Y-74328429D01*
X72510210Y-74062129D01*
X72507911Y-74053894D01*
X72417131Y-73797540D01*
X72413734Y-73789690D01*
X72289006Y-73548034D01*
X72284568Y-73540707D01*
X72158591Y-73361458D01*
X72148069Y-73353077D01*
X72134681Y-73360129D01*
X70895122Y-74599688D01*
X70887508Y-74613632D01*
X70157456Y-74613632D01*
X70158692Y-74611368D01*
X70158561Y-74609535D01*
X70154310Y-74602920D01*
X68911517Y-73360127D01*
X68899507Y-73353568D01*
X68887767Y-73362537D01*
X68860814Y-73400045D01*
X68804819Y-73443692D01*
X68734116Y-73450138D01*
X68671152Y-73417335D01*
X68648082Y-73387226D01*
X68595584Y-73291733D01*
X68580000Y-73231035D01*
X68580000Y-72989857D01*
X69264540Y-72989857D01*
X69270936Y-73001126D01*
X70510288Y-74240478D01*
X70524232Y-74248092D01*
X70526065Y-74247961D01*
X70532680Y-74243710D01*
X71774809Y-73001581D01*
X71781211Y-72989857D01*
X74344540Y-72989857D01*
X74350936Y-73001126D01*
X75590288Y-74240478D01*
X75604232Y-74248092D01*
X75606065Y-74247961D01*
X75612680Y-74243710D01*
X76854809Y-73001581D01*
X76862000Y-72988412D01*
X76854678Y-72978175D01*
X76801016Y-72934254D01*
X76794044Y-72929299D01*
X76562174Y-72787209D01*
X76554576Y-72783237D01*
X76305576Y-72673933D01*
X76297522Y-72671034D01*
X76035987Y-72596534D01*
X76027609Y-72594752D01*
X75758383Y-72556436D01*
X75749836Y-72555809D01*
X75477899Y-72554384D01*
X75469365Y-72554921D01*
X75199746Y-72590418D01*
X75191348Y-72592111D01*
X74929048Y-72663868D01*
X74920961Y-72666684D01*
X74670830Y-72773374D01*
X74663191Y-72777267D01*
X74429855Y-72916915D01*
X74422817Y-72921806D01*
X74353010Y-72977732D01*
X74344540Y-72989857D01*
X71781211Y-72989857D01*
X71782000Y-72988412D01*
X71774678Y-72978175D01*
X71721016Y-72934254D01*
X71714044Y-72929299D01*
X71482174Y-72787209D01*
X71474576Y-72783237D01*
X71225576Y-72673933D01*
X71217522Y-72671034D01*
X70955987Y-72596534D01*
X70947609Y-72594752D01*
X70678383Y-72556436D01*
X70669836Y-72555809D01*
X70397899Y-72554384D01*
X70389365Y-72554921D01*
X70119746Y-72590418D01*
X70111348Y-72592111D01*
X69849048Y-72663868D01*
X69840961Y-72666684D01*
X69590830Y-72773374D01*
X69583191Y-72777267D01*
X69349855Y-72916915D01*
X69342817Y-72921806D01*
X69273010Y-72977732D01*
X69264540Y-72989857D01*
X68580000Y-72989857D01*
X68580000Y-72008000D01*
X68600002Y-71939879D01*
X68653658Y-71893386D01*
X68706000Y-71882000D01*
X78106000Y-71882000D01*
X78174121Y-71902002D01*
G37*
%TD.AperFunction*%
%TD*%
%TA.AperFunction,Conductor*%
%TO.N,/power_connectors/BATTP_RAW*%
G36*
X100644248Y-62748002D02*
G01*
X100690741Y-62801658D01*
X100702127Y-62854000D01*
X100702127Y-72000000D01*
X100682125Y-72068121D01*
X100628469Y-72114614D01*
X100576127Y-72126000D01*
X98560120Y-72126000D01*
X97666939Y-71232819D01*
X97652995Y-71225205D01*
X97651162Y-71225336D01*
X97644547Y-71229587D01*
X96748134Y-72126000D01*
X91684127Y-72126000D01*
X91616006Y-72105998D01*
X91569513Y-72052342D01*
X91558127Y-72000000D01*
X91558127Y-71364000D01*
X90528752Y-71364000D01*
X90460631Y-71343998D01*
X90414138Y-71290342D01*
X90410770Y-71282230D01*
X90374958Y-71186703D01*
X90371806Y-71178295D01*
X90284452Y-71061739D01*
X90167896Y-70974385D01*
X90154123Y-70969222D01*
X90074980Y-70939552D01*
X90018216Y-70896910D01*
X89993516Y-70830349D01*
X90008724Y-70761000D01*
X90059010Y-70710882D01*
X90086599Y-70699863D01*
X90303519Y-70641740D01*
X90309796Y-70639700D01*
X90646905Y-70510296D01*
X90652916Y-70507620D01*
X90676536Y-70495585D01*
X95592280Y-70495585D01*
X95607934Y-70767076D01*
X95609007Y-70775576D01*
X95661364Y-71042437D01*
X95663575Y-71050689D01*
X95751665Y-71307981D01*
X95754980Y-71315866D01*
X95877172Y-71558818D01*
X95877662Y-71559646D01*
X95886493Y-71566832D01*
X95900234Y-71559686D01*
X96934208Y-70525712D01*
X96940586Y-70514032D01*
X98366432Y-70514032D01*
X98366563Y-70515865D01*
X98370814Y-70522480D01*
X99407448Y-71559114D01*
X99419828Y-71565874D01*
X99426092Y-71561185D01*
X99527110Y-71375133D01*
X99530678Y-71367339D01*
X99626802Y-71112955D01*
X99629275Y-71104763D01*
X99689988Y-70839680D01*
X99691326Y-70831226D01*
X99715662Y-70558552D01*
X99715908Y-70553615D01*
X99716308Y-70515385D01*
X99716165Y-70510419D01*
X99697546Y-70237303D01*
X99696385Y-70228829D01*
X99641237Y-69962529D01*
X99638938Y-69954294D01*
X99548158Y-69697940D01*
X99544761Y-69690090D01*
X99430271Y-69468271D01*
X99420534Y-69458069D01*
X99413694Y-69460440D01*
X98374046Y-70500088D01*
X98366432Y-70514032D01*
X96940586Y-70514032D01*
X96941822Y-70511768D01*
X96941691Y-70509935D01*
X96937440Y-70503320D01*
X95900041Y-69465921D01*
X95887661Y-69459161D01*
X95881637Y-69463671D01*
X95772218Y-69670328D01*
X95768732Y-69678156D01*
X95675278Y-69933532D01*
X95672889Y-69941755D01*
X95614956Y-70207461D01*
X95613707Y-70215917D01*
X95592369Y-70487035D01*
X95592280Y-70495585D01*
X90676536Y-70495585D01*
X90974659Y-70343683D01*
X90980368Y-70340387D01*
X91283200Y-70143725D01*
X91288537Y-70139848D01*
X91310594Y-70121987D01*
X91319059Y-70109733D01*
X91312725Y-70098641D01*
X89234003Y-68019919D01*
X89220059Y-68012305D01*
X89218226Y-68012436D01*
X89211611Y-68016687D01*
X87130523Y-70097775D01*
X87123382Y-70110851D01*
X87130839Y-70121218D01*
X87153845Y-70139848D01*
X87159182Y-70143725D01*
X87462014Y-70340387D01*
X87467723Y-70343683D01*
X87789466Y-70507620D01*
X87795477Y-70510296D01*
X88132586Y-70639700D01*
X88138863Y-70641740D01*
X88239826Y-70668793D01*
X88300449Y-70705745D01*
X88331470Y-70769605D01*
X88323042Y-70840100D01*
X88277839Y-70894847D01*
X88207215Y-70916500D01*
X87373057Y-70916500D01*
X87310875Y-70923255D01*
X87174486Y-70974385D01*
X87057930Y-71061739D01*
X86970576Y-71178295D01*
X86967424Y-71186703D01*
X86931612Y-71282230D01*
X86888970Y-71338994D01*
X86822408Y-71363694D01*
X86813630Y-71364000D01*
X86604127Y-71364000D01*
X86536006Y-71343998D01*
X86489513Y-71290342D01*
X86478127Y-71238000D01*
X86478127Y-69335957D01*
X88501272Y-67312812D01*
X88507650Y-67301132D01*
X89933496Y-67301132D01*
X89933627Y-67302965D01*
X89937878Y-67309580D01*
X92018966Y-69390668D01*
X92032042Y-69397809D01*
X92042409Y-69390352D01*
X92061039Y-69367346D01*
X92064916Y-69362009D01*
X92261578Y-69059177D01*
X92264874Y-69053468D01*
X92419911Y-68749192D01*
X96602446Y-68749192D01*
X96605989Y-68757655D01*
X97641315Y-69792981D01*
X97655259Y-69800595D01*
X97657092Y-69800464D01*
X97663707Y-69796213D01*
X98699044Y-68760876D01*
X98705804Y-68748496D01*
X98700077Y-68740846D01*
X98613201Y-68687609D01*
X98605607Y-68683639D01*
X98356603Y-68574333D01*
X98348549Y-68571434D01*
X98087014Y-68496934D01*
X98078636Y-68495152D01*
X97809410Y-68456836D01*
X97800863Y-68456209D01*
X97528926Y-68454784D01*
X97520392Y-68455321D01*
X97250773Y-68490818D01*
X97242375Y-68492511D01*
X96980075Y-68564268D01*
X96971988Y-68567084D01*
X96721857Y-68673774D01*
X96714218Y-68677667D01*
X96612017Y-68738833D01*
X96602446Y-68749192D01*
X92419911Y-68749192D01*
X92428811Y-68731725D01*
X92431487Y-68725714D01*
X92560891Y-68388605D01*
X92562931Y-68382328D01*
X92656389Y-68033537D01*
X92657758Y-68027099D01*
X92714246Y-67670440D01*
X92714934Y-67663896D01*
X92733832Y-67303301D01*
X92733832Y-67296699D01*
X92728635Y-67197539D01*
X96602215Y-67197539D01*
X96608183Y-67205511D01*
X96675990Y-67248047D01*
X96683541Y-67252096D01*
X96931387Y-67364003D01*
X96939418Y-67366989D01*
X97200157Y-67444224D01*
X97208510Y-67446091D01*
X97477325Y-67487226D01*
X97485858Y-67487942D01*
X97757764Y-67492214D01*
X97766315Y-67491765D01*
X98036288Y-67459095D01*
X98044689Y-67457493D01*
X98307744Y-67388482D01*
X98315846Y-67385755D01*
X98567092Y-67281685D01*
X98574760Y-67277879D01*
X98696236Y-67206894D01*
X98705912Y-67196639D01*
X98702594Y-67188474D01*
X97666939Y-66152819D01*
X97652995Y-66145205D01*
X97651162Y-66145336D01*
X97644547Y-66149587D01*
X96608975Y-67185159D01*
X96602215Y-67197539D01*
X92728635Y-67197539D01*
X92714934Y-66936104D01*
X92714246Y-66929560D01*
X92657758Y-66572901D01*
X92656389Y-66566463D01*
X92562931Y-66217672D01*
X92560891Y-66211395D01*
X92431487Y-65874286D01*
X92428811Y-65868275D01*
X92264874Y-65546532D01*
X92261578Y-65540823D01*
X92180247Y-65415585D01*
X95592280Y-65415585D01*
X95607934Y-65687076D01*
X95609007Y-65695576D01*
X95661364Y-65962437D01*
X95663575Y-65970689D01*
X95751665Y-66227981D01*
X95754980Y-66235866D01*
X95877172Y-66478818D01*
X95877662Y-66479646D01*
X95886493Y-66486832D01*
X95900234Y-66479686D01*
X96934208Y-65445712D01*
X96940586Y-65434032D01*
X98366432Y-65434032D01*
X98366563Y-65435865D01*
X98370814Y-65442480D01*
X99407448Y-66479114D01*
X99419828Y-66485874D01*
X99426092Y-66481185D01*
X99527110Y-66295133D01*
X99530678Y-66287339D01*
X99626802Y-66032955D01*
X99629275Y-66024763D01*
X99689988Y-65759680D01*
X99691326Y-65751226D01*
X99715662Y-65478552D01*
X99715908Y-65473615D01*
X99716308Y-65435385D01*
X99716165Y-65430419D01*
X99697546Y-65157303D01*
X99696385Y-65148829D01*
X99641237Y-64882529D01*
X99638938Y-64874294D01*
X99548158Y-64617940D01*
X99544761Y-64610090D01*
X99430271Y-64388271D01*
X99420534Y-64378069D01*
X99413694Y-64380440D01*
X98374046Y-65420088D01*
X98366432Y-65434032D01*
X96940586Y-65434032D01*
X96941822Y-65431768D01*
X96941691Y-65429935D01*
X96937440Y-65423320D01*
X95900041Y-64385921D01*
X95887661Y-64379161D01*
X95881637Y-64383671D01*
X95772218Y-64590328D01*
X95768732Y-64598156D01*
X95675278Y-64853532D01*
X95672889Y-64861755D01*
X95614956Y-65127461D01*
X95613707Y-65135917D01*
X95592369Y-65407035D01*
X95592280Y-65415585D01*
X92180247Y-65415585D01*
X92064916Y-65237991D01*
X92061039Y-65232654D01*
X92043178Y-65210597D01*
X92030924Y-65202132D01*
X92019832Y-65208466D01*
X89941110Y-67287188D01*
X89933496Y-67301132D01*
X88507650Y-67301132D01*
X88508886Y-67298868D01*
X88508755Y-67297035D01*
X88504504Y-67290420D01*
X86478127Y-65264043D01*
X86478127Y-64490267D01*
X87123323Y-64490267D01*
X87129657Y-64501359D01*
X89208379Y-66580081D01*
X89222323Y-66587695D01*
X89224156Y-66587564D01*
X89230771Y-66583313D01*
X91311859Y-64502225D01*
X91319000Y-64489149D01*
X91311543Y-64478782D01*
X91288537Y-64460152D01*
X91283200Y-64456275D01*
X90980368Y-64259613D01*
X90974659Y-64256317D01*
X90652916Y-64092380D01*
X90646905Y-64089704D01*
X90309796Y-63960300D01*
X90303519Y-63958260D01*
X89954728Y-63864802D01*
X89948290Y-63863433D01*
X89591631Y-63806945D01*
X89585087Y-63806257D01*
X89224492Y-63787359D01*
X89217890Y-63787359D01*
X88857295Y-63806257D01*
X88850751Y-63806945D01*
X88494092Y-63863433D01*
X88487654Y-63864802D01*
X88138863Y-63958260D01*
X88132586Y-63960300D01*
X87795477Y-64089704D01*
X87789466Y-64092380D01*
X87467723Y-64256317D01*
X87462014Y-64259613D01*
X87159182Y-64456275D01*
X87153845Y-64460152D01*
X87131788Y-64478013D01*
X87123323Y-64490267D01*
X86478127Y-64490267D01*
X86478127Y-63669192D01*
X96602446Y-63669192D01*
X96605989Y-63677655D01*
X97641315Y-64712981D01*
X97655259Y-64720595D01*
X97657092Y-64720464D01*
X97663707Y-64716213D01*
X98699044Y-63680876D01*
X98705804Y-63668496D01*
X98700077Y-63660846D01*
X98613201Y-63607609D01*
X98605607Y-63603639D01*
X98356603Y-63494333D01*
X98348549Y-63491434D01*
X98087014Y-63416934D01*
X98078636Y-63415152D01*
X97809410Y-63376836D01*
X97800863Y-63376209D01*
X97528926Y-63374784D01*
X97520392Y-63375321D01*
X97250773Y-63410818D01*
X97242375Y-63412511D01*
X96980075Y-63484268D01*
X96971988Y-63487084D01*
X96721857Y-63593774D01*
X96714218Y-63597667D01*
X96612017Y-63658833D01*
X96602446Y-63669192D01*
X86478127Y-63669192D01*
X86478127Y-62854000D01*
X86498129Y-62785879D01*
X86551785Y-62739386D01*
X86604127Y-62728000D01*
X100576127Y-62728000D01*
X100644248Y-62748002D01*
G37*
%TD.AperFunction*%
%TD*%
%TA.AperFunction,Conductor*%
%TO.N,GNDPWR*%
G36*
X77917626Y-51836502D02*
G01*
X77964119Y-51890158D01*
X77975505Y-51942599D01*
X77974162Y-53652270D01*
X77954106Y-53720375D01*
X77900414Y-53766826D01*
X77830132Y-53776874D01*
X77765575Y-53747331D01*
X77742490Y-53720796D01*
X77594103Y-53492300D01*
X77588813Y-53485281D01*
X77410344Y-53279976D01*
X77404151Y-53273783D01*
X77198846Y-53095314D01*
X77191827Y-53090024D01*
X76963699Y-52941876D01*
X76956009Y-52937613D01*
X76709480Y-52822655D01*
X76701270Y-52819504D01*
X76441150Y-52739978D01*
X76432580Y-52737999D01*
X76163083Y-52695315D01*
X76155999Y-52694601D01*
X76097796Y-52692060D01*
X76095044Y-52692000D01*
X75002242Y-52692000D01*
X74987003Y-52696475D01*
X74985798Y-52697865D01*
X74984127Y-52705548D01*
X74984127Y-59266344D01*
X74964125Y-59334465D01*
X74933693Y-59367169D01*
X74840866Y-59436739D01*
X74753512Y-59553295D01*
X74702382Y-59689684D01*
X74695627Y-59751866D01*
X74695627Y-59935000D01*
X74675625Y-60003121D01*
X74621969Y-60049614D01*
X74569627Y-60061000D01*
X67310000Y-60061000D01*
X67310000Y-60205172D01*
X67289998Y-60273293D01*
X67236342Y-60319786D01*
X67166068Y-60329890D01*
X67109939Y-60307108D01*
X66984957Y-60216303D01*
X66984956Y-60216302D01*
X66979615Y-60212422D01*
X66973587Y-60209738D01*
X66973585Y-60209737D01*
X66820783Y-60141705D01*
X66820781Y-60141705D01*
X66814752Y-60139020D01*
X66726492Y-60120260D01*
X66644689Y-60102872D01*
X66644685Y-60102872D01*
X66638232Y-60101500D01*
X66457768Y-60101500D01*
X66451315Y-60102872D01*
X66451311Y-60102872D01*
X66369508Y-60120260D01*
X66281248Y-60139020D01*
X66275219Y-60141704D01*
X66275217Y-60141705D01*
X66122416Y-60209737D01*
X66122414Y-60209738D01*
X66116386Y-60212422D01*
X66111045Y-60216302D01*
X66111044Y-60216303D01*
X65975731Y-60314613D01*
X65975729Y-60314615D01*
X65970387Y-60318496D01*
X65965966Y-60323406D01*
X65965965Y-60323407D01*
X65920858Y-60373504D01*
X65849633Y-60452607D01*
X65759401Y-60608893D01*
X65703635Y-60780525D01*
X65684771Y-60960000D01*
X65703635Y-61139475D01*
X65759401Y-61311107D01*
X65849633Y-61467393D01*
X65854051Y-61472300D01*
X65854052Y-61472301D01*
X65959158Y-61589033D01*
X65970387Y-61601504D01*
X65975729Y-61605385D01*
X65975731Y-61605387D01*
X66087166Y-61686349D01*
X66116385Y-61707578D01*
X66122413Y-61710262D01*
X66122415Y-61710263D01*
X66275217Y-61778295D01*
X66281248Y-61780980D01*
X66356509Y-61796977D01*
X66451311Y-61817128D01*
X66451315Y-61817128D01*
X66457768Y-61818500D01*
X66638232Y-61818500D01*
X66644685Y-61817128D01*
X66644689Y-61817128D01*
X66739491Y-61796977D01*
X66814752Y-61780980D01*
X66820783Y-61778295D01*
X66973585Y-61710263D01*
X66973587Y-61710262D01*
X66979615Y-61707578D01*
X67050568Y-61656028D01*
X67109939Y-61612892D01*
X67176807Y-61589033D01*
X67245958Y-61605114D01*
X67295439Y-61656028D01*
X67310000Y-61714828D01*
X67310000Y-65537719D01*
X67289998Y-65605840D01*
X67258061Y-65639655D01*
X67240387Y-65652496D01*
X67235966Y-65657406D01*
X67235965Y-65657407D01*
X67128491Y-65776769D01*
X67068045Y-65814009D01*
X66995187Y-65812052D01*
X66852914Y-65764861D01*
X66845020Y-65763169D01*
X66832451Y-65765502D01*
X66829127Y-65777738D01*
X66829127Y-70090843D01*
X66833331Y-70105160D01*
X66844395Y-70106974D01*
X66854227Y-70104851D01*
X67008411Y-70053412D01*
X67021589Y-70047238D01*
X67117697Y-69987765D01*
X67186149Y-69968927D01*
X67253918Y-69990088D01*
X67299490Y-70044529D01*
X67310000Y-70094909D01*
X67310000Y-71248000D01*
X67289998Y-71316121D01*
X67236342Y-71362614D01*
X67184000Y-71374000D01*
X62527745Y-71374000D01*
X62459624Y-71353998D01*
X62438650Y-71337095D01*
X60508650Y-69407095D01*
X65208628Y-69407095D01*
X65208965Y-69413614D01*
X65218884Y-69509206D01*
X65221776Y-69522600D01*
X65273215Y-69676784D01*
X65279388Y-69689962D01*
X65364690Y-69827807D01*
X65373726Y-69839208D01*
X65488456Y-69953739D01*
X65499867Y-69962751D01*
X65637870Y-70047816D01*
X65651051Y-70053963D01*
X65805339Y-70105139D01*
X65813234Y-70106831D01*
X65825803Y-70104498D01*
X65829127Y-70092262D01*
X65829127Y-68453115D01*
X65824652Y-68437876D01*
X65823262Y-68436671D01*
X65815579Y-68435000D01*
X65226743Y-68435000D01*
X65211504Y-68439475D01*
X65210299Y-68440865D01*
X65208628Y-68448548D01*
X65208628Y-69407095D01*
X60508650Y-69407095D01*
X58518439Y-67416885D01*
X65208627Y-67416885D01*
X65213102Y-67432124D01*
X65214492Y-67433329D01*
X65222175Y-67435000D01*
X65811012Y-67435000D01*
X65826251Y-67430525D01*
X65827456Y-67429135D01*
X65829127Y-67421452D01*
X65829127Y-65779157D01*
X65824923Y-65764840D01*
X65813859Y-65763026D01*
X65804027Y-65765149D01*
X65649843Y-65816588D01*
X65636665Y-65822761D01*
X65498820Y-65908063D01*
X65487419Y-65917099D01*
X65372888Y-66031829D01*
X65363876Y-66043240D01*
X65278811Y-66181243D01*
X65272664Y-66194424D01*
X65221489Y-66348710D01*
X65218622Y-66362086D01*
X65208955Y-66456438D01*
X65208627Y-66462855D01*
X65208627Y-67416885D01*
X58518439Y-67416885D01*
X56678905Y-65577351D01*
X56644879Y-65515039D01*
X56642000Y-65488256D01*
X56642000Y-63782385D01*
X56642173Y-63775791D01*
X56643142Y-63757301D01*
X56643315Y-63754000D01*
X56642173Y-63732209D01*
X56642000Y-63725615D01*
X56642000Y-62347000D01*
X56427993Y-62347000D01*
X56359872Y-62326998D01*
X56315726Y-62278203D01*
X56174119Y-62000284D01*
X56174115Y-62000277D01*
X56172620Y-61997343D01*
X55972332Y-61688925D01*
X55740902Y-61403133D01*
X55480867Y-61143098D01*
X55195075Y-60911668D01*
X54886658Y-60711380D01*
X54883724Y-60709885D01*
X54883717Y-60709881D01*
X54561934Y-60545925D01*
X54558994Y-60544427D01*
X54215674Y-60412639D01*
X53860459Y-60317459D01*
X53667442Y-60286888D01*
X53500489Y-60260445D01*
X53500481Y-60260444D01*
X53497241Y-60259931D01*
X53130000Y-60240685D01*
X52762759Y-60259931D01*
X52759519Y-60260444D01*
X52759511Y-60260445D01*
X52592558Y-60286888D01*
X52399541Y-60317459D01*
X52044326Y-60412639D01*
X51701006Y-60544427D01*
X51698066Y-60545925D01*
X51376284Y-60709881D01*
X51376277Y-60709885D01*
X51373343Y-60711380D01*
X51370577Y-60713176D01*
X51370574Y-60713178D01*
X51256761Y-60787089D01*
X51064925Y-60911668D01*
X50779133Y-61143098D01*
X50519098Y-61403133D01*
X50287668Y-61688925D01*
X50087380Y-61997343D01*
X50085885Y-62000277D01*
X50085881Y-62000284D01*
X49944274Y-62278203D01*
X49895525Y-62329818D01*
X49832007Y-62347000D01*
X49563999Y-62347000D01*
X49495878Y-62326998D01*
X49449385Y-62273342D01*
X49437999Y-62221000D01*
X49437999Y-62143086D01*
X49437939Y-62140328D01*
X49435399Y-62082145D01*
X49434683Y-62075028D01*
X49392001Y-61805547D01*
X49390022Y-61796977D01*
X49310496Y-61536857D01*
X49307345Y-61528647D01*
X49192387Y-61282118D01*
X49188124Y-61274428D01*
X49039976Y-61046300D01*
X49034686Y-61039281D01*
X48856217Y-60833976D01*
X48850024Y-60827783D01*
X48644719Y-60649314D01*
X48637700Y-60644024D01*
X48409572Y-60495876D01*
X48401882Y-60491613D01*
X48155353Y-60376655D01*
X48147143Y-60373504D01*
X47887023Y-60293978D01*
X47878453Y-60291999D01*
X47608956Y-60249315D01*
X47601872Y-60248601D01*
X47543669Y-60246060D01*
X47540917Y-60246000D01*
X46448115Y-60246000D01*
X46432876Y-60250475D01*
X46431671Y-60251865D01*
X46430000Y-60259548D01*
X46430000Y-67243884D01*
X46434475Y-67259123D01*
X46435865Y-67260328D01*
X46443548Y-67261999D01*
X47540915Y-67261999D01*
X47543672Y-67261939D01*
X47601855Y-67259399D01*
X47608972Y-67258683D01*
X47878453Y-67216001D01*
X47887023Y-67214022D01*
X48147143Y-67134496D01*
X48155353Y-67131345D01*
X48401882Y-67016387D01*
X48409572Y-67012124D01*
X48637700Y-66863976D01*
X48644719Y-66858686D01*
X48850024Y-66680217D01*
X48856217Y-66674024D01*
X49034686Y-66468719D01*
X49039976Y-66461700D01*
X49188124Y-66233572D01*
X49192387Y-66225883D01*
X49278881Y-66040394D01*
X49325798Y-65987109D01*
X49394075Y-65967648D01*
X49462035Y-65988190D01*
X49508101Y-66042212D01*
X49519076Y-66093713D01*
X49517787Y-68448548D01*
X49516398Y-70987783D01*
X49516080Y-71567999D01*
X49496041Y-71636109D01*
X49442360Y-71682572D01*
X49372080Y-71692638D01*
X49307515Y-71663109D01*
X49275885Y-71621180D01*
X49192387Y-71442118D01*
X49188124Y-71434428D01*
X49039976Y-71206300D01*
X49034686Y-71199281D01*
X48856217Y-70993976D01*
X48850024Y-70987783D01*
X48644719Y-70809314D01*
X48637700Y-70804024D01*
X48409572Y-70655876D01*
X48401882Y-70651613D01*
X48155353Y-70536655D01*
X48147143Y-70533504D01*
X47887023Y-70453978D01*
X47878453Y-70451999D01*
X47608956Y-70409315D01*
X47601872Y-70408601D01*
X47543669Y-70406060D01*
X47540917Y-70406000D01*
X46448115Y-70406000D01*
X46432876Y-70410475D01*
X46431671Y-70411865D01*
X46430000Y-70419548D01*
X46430000Y-77403884D01*
X46434475Y-77419123D01*
X46435865Y-77420328D01*
X46443548Y-77421999D01*
X47540915Y-77421999D01*
X47543672Y-77421939D01*
X47601855Y-77419399D01*
X47608972Y-77418683D01*
X47878453Y-77376001D01*
X47887023Y-77374022D01*
X48147143Y-77294496D01*
X48155353Y-77291345D01*
X48401882Y-77176387D01*
X48409572Y-77172124D01*
X48637700Y-77023976D01*
X48644719Y-77018686D01*
X48850024Y-76840217D01*
X48856217Y-76834024D01*
X49034686Y-76628719D01*
X49039976Y-76621700D01*
X49188124Y-76393572D01*
X49192387Y-76385882D01*
X49273314Y-76212334D01*
X49320231Y-76159049D01*
X49388509Y-76139588D01*
X49456469Y-76160130D01*
X49502534Y-76214153D01*
X49513509Y-76265651D01*
X49512877Y-77419123D01*
X49510525Y-81716087D01*
X49490486Y-81784197D01*
X49436805Y-81830660D01*
X49366525Y-81840726D01*
X49301960Y-81811197D01*
X49270330Y-81769268D01*
X49192387Y-81602118D01*
X49188124Y-81594428D01*
X49039976Y-81366300D01*
X49034686Y-81359281D01*
X48856217Y-81153976D01*
X48850024Y-81147783D01*
X48644719Y-80969314D01*
X48637700Y-80964024D01*
X48409572Y-80815876D01*
X48401882Y-80811613D01*
X48155353Y-80696655D01*
X48147143Y-80693504D01*
X47887023Y-80613978D01*
X47878453Y-80611999D01*
X47608956Y-80569315D01*
X47601872Y-80568601D01*
X47543669Y-80566060D01*
X47540917Y-80566000D01*
X46448115Y-80566000D01*
X46432876Y-80570475D01*
X46431671Y-80571865D01*
X46430000Y-80579548D01*
X46430000Y-87563884D01*
X46434475Y-87579123D01*
X46435865Y-87580328D01*
X46443548Y-87581999D01*
X47540915Y-87581999D01*
X47543672Y-87581939D01*
X47601855Y-87579399D01*
X47608972Y-87578683D01*
X47878453Y-87536001D01*
X47887023Y-87534022D01*
X48147143Y-87454496D01*
X48155353Y-87451345D01*
X48401882Y-87336387D01*
X48409572Y-87332124D01*
X48637700Y-87183976D01*
X48644719Y-87178686D01*
X48850024Y-87000217D01*
X48856217Y-86994024D01*
X49034686Y-86788719D01*
X49039976Y-86781700D01*
X49188124Y-86553572D01*
X49192387Y-86545882D01*
X49267746Y-86384274D01*
X49314663Y-86330989D01*
X49382941Y-86311528D01*
X49450900Y-86332070D01*
X49496966Y-86386093D01*
X49507941Y-86437593D01*
X49505276Y-91307783D01*
X49504971Y-91864176D01*
X49484932Y-91932286D01*
X49431251Y-91978749D01*
X49360971Y-91988815D01*
X49296406Y-91959286D01*
X49264776Y-91917357D01*
X49192387Y-91762118D01*
X49188124Y-91754428D01*
X49039976Y-91526300D01*
X49034686Y-91519281D01*
X48856217Y-91313976D01*
X48850024Y-91307783D01*
X48644719Y-91129314D01*
X48637700Y-91124024D01*
X48409572Y-90975876D01*
X48401882Y-90971613D01*
X48155353Y-90856655D01*
X48147143Y-90853504D01*
X47887023Y-90773978D01*
X47878453Y-90771999D01*
X47608956Y-90729315D01*
X47601872Y-90728601D01*
X47543669Y-90726060D01*
X47540917Y-90726000D01*
X46448115Y-90726000D01*
X46432876Y-90730475D01*
X46431671Y-90731865D01*
X46430000Y-90739548D01*
X46430000Y-97723884D01*
X46434475Y-97739123D01*
X46435865Y-97740328D01*
X46443548Y-97741999D01*
X47540915Y-97741999D01*
X47543672Y-97741939D01*
X47601855Y-97739399D01*
X47608972Y-97738683D01*
X47878453Y-97696001D01*
X47887023Y-97694022D01*
X48147143Y-97614496D01*
X48155353Y-97611345D01*
X48401882Y-97496387D01*
X48409572Y-97492124D01*
X48637700Y-97343976D01*
X48644719Y-97338686D01*
X48850024Y-97160217D01*
X48856217Y-97154024D01*
X49034686Y-96948719D01*
X49039976Y-96941700D01*
X49188124Y-96713572D01*
X49192390Y-96705877D01*
X49262178Y-96556214D01*
X49309095Y-96502928D01*
X49377372Y-96483467D01*
X49445332Y-96504009D01*
X49491398Y-96558031D01*
X49502373Y-96609532D01*
X49499416Y-102012264D01*
X49479377Y-102080374D01*
X49425696Y-102126837D01*
X49355416Y-102136903D01*
X49290851Y-102107374D01*
X49259221Y-102065445D01*
X49192387Y-101922117D01*
X49188124Y-101914428D01*
X49039976Y-101686300D01*
X49034686Y-101679281D01*
X48856217Y-101473976D01*
X48850024Y-101467783D01*
X48644719Y-101289314D01*
X48637700Y-101284024D01*
X48409572Y-101135876D01*
X48401882Y-101131613D01*
X48155353Y-101016655D01*
X48147143Y-101013504D01*
X47887023Y-100933978D01*
X47878453Y-100931999D01*
X47608956Y-100889315D01*
X47601872Y-100888601D01*
X47543669Y-100886060D01*
X47540917Y-100886000D01*
X46448115Y-100886000D01*
X46432876Y-100890475D01*
X46431671Y-100891865D01*
X46430000Y-100899548D01*
X46430000Y-107883884D01*
X46434475Y-107899123D01*
X46435865Y-107900328D01*
X46443548Y-107901999D01*
X47540915Y-107901999D01*
X47543672Y-107901939D01*
X47601855Y-107899399D01*
X47608972Y-107898683D01*
X47878453Y-107856001D01*
X47887023Y-107854022D01*
X48147143Y-107774496D01*
X48155353Y-107771345D01*
X48401882Y-107656387D01*
X48409572Y-107652124D01*
X48637700Y-107503976D01*
X48644719Y-107498686D01*
X48850024Y-107320217D01*
X48856217Y-107314024D01*
X49034686Y-107108719D01*
X49039976Y-107101700D01*
X49188124Y-106873572D01*
X49192387Y-106865882D01*
X49256611Y-106728153D01*
X49303528Y-106674868D01*
X49371806Y-106655407D01*
X49439765Y-106675949D01*
X49485831Y-106729972D01*
X49496806Y-106781471D01*
X49493905Y-112082118D01*
X49493862Y-112160352D01*
X49473823Y-112228462D01*
X49420142Y-112274925D01*
X49349862Y-112284991D01*
X49285297Y-112255462D01*
X49253667Y-112213533D01*
X49192387Y-112082118D01*
X49188124Y-112074428D01*
X49039976Y-111846300D01*
X49034686Y-111839281D01*
X48856217Y-111633976D01*
X48850024Y-111627783D01*
X48644719Y-111449314D01*
X48637700Y-111444024D01*
X48409572Y-111295876D01*
X48401882Y-111291613D01*
X48155353Y-111176655D01*
X48147143Y-111173504D01*
X47887023Y-111093978D01*
X47878453Y-111091999D01*
X47608956Y-111049315D01*
X47601872Y-111048601D01*
X47543669Y-111046060D01*
X47540917Y-111046000D01*
X46448115Y-111046000D01*
X46432876Y-111050475D01*
X46431671Y-111051865D01*
X46430000Y-111059548D01*
X46430000Y-118043884D01*
X46434475Y-118059123D01*
X46435865Y-118060328D01*
X46443548Y-118061999D01*
X47540915Y-118061999D01*
X47543672Y-118061939D01*
X47601855Y-118059399D01*
X47608972Y-118058683D01*
X47878453Y-118016001D01*
X47887023Y-118014022D01*
X48147143Y-117934496D01*
X48155353Y-117931345D01*
X48401882Y-117816387D01*
X48409572Y-117812124D01*
X48637700Y-117663976D01*
X48644719Y-117658686D01*
X48850024Y-117480217D01*
X48856217Y-117474024D01*
X49034686Y-117268719D01*
X49039976Y-117261700D01*
X49188124Y-117033572D01*
X49192387Y-117025883D01*
X49251043Y-116900093D01*
X49297960Y-116846808D01*
X49366237Y-116827347D01*
X49434197Y-116847889D01*
X49480263Y-116901911D01*
X49491238Y-116953412D01*
X49488307Y-122308440D01*
X49468268Y-122376550D01*
X49414587Y-122423013D01*
X49344307Y-122433079D01*
X49279742Y-122403550D01*
X49248112Y-122361621D01*
X49192387Y-122242118D01*
X49188124Y-122234428D01*
X49039976Y-122006300D01*
X49034686Y-121999281D01*
X48856217Y-121793976D01*
X48850024Y-121787783D01*
X48644719Y-121609314D01*
X48637700Y-121604024D01*
X48409572Y-121455876D01*
X48401882Y-121451613D01*
X48155353Y-121336655D01*
X48147143Y-121333504D01*
X47887023Y-121253978D01*
X47878453Y-121251999D01*
X47608956Y-121209315D01*
X47601872Y-121208601D01*
X47543669Y-121206060D01*
X47540917Y-121206000D01*
X46448115Y-121206000D01*
X46432876Y-121210475D01*
X46431671Y-121211865D01*
X46430000Y-121219548D01*
X46430000Y-128203884D01*
X46434475Y-128219123D01*
X46435865Y-128220328D01*
X46443548Y-128221999D01*
X47540915Y-128221999D01*
X47543672Y-128221939D01*
X47601855Y-128219399D01*
X47608972Y-128218683D01*
X47878453Y-128176001D01*
X47887023Y-128174022D01*
X48147143Y-128094496D01*
X48155353Y-128091345D01*
X48401882Y-127976387D01*
X48409572Y-127972124D01*
X48637700Y-127823976D01*
X48644719Y-127818686D01*
X48850024Y-127640217D01*
X48856217Y-127634024D01*
X49034686Y-127428719D01*
X49039976Y-127421700D01*
X49188124Y-127193572D01*
X49192387Y-127185882D01*
X49245476Y-127072033D01*
X49292394Y-127018748D01*
X49360671Y-126999287D01*
X49428631Y-127019829D01*
X49474696Y-127073852D01*
X49485671Y-127125350D01*
X49484207Y-129799177D01*
X49482752Y-132456528D01*
X49462713Y-132524638D01*
X49409032Y-132571101D01*
X49338752Y-132581167D01*
X49274187Y-132551638D01*
X49242557Y-132509709D01*
X49192387Y-132402117D01*
X49188124Y-132394428D01*
X49039976Y-132166300D01*
X49034686Y-132159281D01*
X48856217Y-131953976D01*
X48850024Y-131947783D01*
X48644719Y-131769314D01*
X48637700Y-131764024D01*
X48409572Y-131615876D01*
X48401882Y-131611613D01*
X48155353Y-131496655D01*
X48147143Y-131493504D01*
X47887023Y-131413978D01*
X47878453Y-131411999D01*
X47608956Y-131369315D01*
X47601872Y-131368601D01*
X47543669Y-131366060D01*
X47540917Y-131366000D01*
X46448115Y-131366000D01*
X46432876Y-131370475D01*
X46431671Y-131371865D01*
X46430000Y-131379548D01*
X46430000Y-138363884D01*
X46434475Y-138379123D01*
X46435865Y-138380328D01*
X46443548Y-138381999D01*
X47540915Y-138381999D01*
X47543672Y-138381939D01*
X47601855Y-138379399D01*
X47608972Y-138378683D01*
X47878453Y-138336001D01*
X47887023Y-138334022D01*
X48147143Y-138254496D01*
X48155353Y-138251345D01*
X48401882Y-138136387D01*
X48409572Y-138132124D01*
X48637700Y-137983976D01*
X48644719Y-137978686D01*
X48850024Y-137800217D01*
X48856217Y-137794024D01*
X49034686Y-137588719D01*
X49039976Y-137581700D01*
X49188124Y-137353572D01*
X49192387Y-137345882D01*
X49239908Y-137243973D01*
X49286825Y-137190688D01*
X49355103Y-137171227D01*
X49423063Y-137191769D01*
X49469128Y-137245792D01*
X49480103Y-137297291D01*
X49479513Y-138376135D01*
X49476979Y-143005311D01*
X49456940Y-143073421D01*
X49403259Y-143119884D01*
X49351581Y-143131241D01*
X47303719Y-143141010D01*
X41539101Y-143168508D01*
X41470886Y-143148831D01*
X41424137Y-143095397D01*
X41412500Y-143042509D01*
X41412500Y-136484915D01*
X42422001Y-136484915D01*
X42422061Y-136487672D01*
X42424601Y-136545855D01*
X42425317Y-136552972D01*
X42467999Y-136822453D01*
X42469978Y-136831023D01*
X42549504Y-137091143D01*
X42552655Y-137099353D01*
X42667613Y-137345882D01*
X42671876Y-137353572D01*
X42820024Y-137581700D01*
X42825314Y-137588719D01*
X43003783Y-137794024D01*
X43009976Y-137800217D01*
X43215281Y-137978686D01*
X43222300Y-137983976D01*
X43450428Y-138132124D01*
X43458118Y-138136387D01*
X43704647Y-138251345D01*
X43712857Y-138254496D01*
X43972977Y-138334022D01*
X43981547Y-138336001D01*
X44251044Y-138378685D01*
X44258128Y-138379399D01*
X44316331Y-138381940D01*
X44319083Y-138382000D01*
X45411885Y-138382000D01*
X45427124Y-138377525D01*
X45428329Y-138376135D01*
X45430000Y-138368452D01*
X45430000Y-135392115D01*
X45425525Y-135376876D01*
X45424135Y-135375671D01*
X45416452Y-135374000D01*
X42440116Y-135374000D01*
X42424877Y-135378475D01*
X42423672Y-135379865D01*
X42422001Y-135387548D01*
X42422001Y-136484915D01*
X41412500Y-136484915D01*
X41412500Y-134355885D01*
X42422000Y-134355885D01*
X42426475Y-134371124D01*
X42427865Y-134372329D01*
X42435548Y-134374000D01*
X45411885Y-134374000D01*
X45427124Y-134369525D01*
X45428329Y-134368135D01*
X45430000Y-134360452D01*
X45430000Y-131384116D01*
X45425525Y-131368877D01*
X45424135Y-131367672D01*
X45416452Y-131366001D01*
X44319086Y-131366001D01*
X44316328Y-131366061D01*
X44258145Y-131368601D01*
X44251028Y-131369317D01*
X43981547Y-131411999D01*
X43972977Y-131413978D01*
X43712857Y-131493504D01*
X43704647Y-131496655D01*
X43458118Y-131611613D01*
X43450428Y-131615876D01*
X43222300Y-131764024D01*
X43215281Y-131769314D01*
X43009976Y-131947783D01*
X43003783Y-131953976D01*
X42825314Y-132159281D01*
X42820024Y-132166300D01*
X42671876Y-132394428D01*
X42667613Y-132402118D01*
X42552655Y-132648647D01*
X42549504Y-132656857D01*
X42469978Y-132916977D01*
X42467999Y-132925547D01*
X42425315Y-133195044D01*
X42424601Y-133202128D01*
X42422060Y-133260331D01*
X42422000Y-133263083D01*
X42422000Y-134355885D01*
X41412500Y-134355885D01*
X41412500Y-126324915D01*
X42422001Y-126324915D01*
X42422061Y-126327672D01*
X42424601Y-126385855D01*
X42425317Y-126392972D01*
X42467999Y-126662453D01*
X42469978Y-126671023D01*
X42549504Y-126931143D01*
X42552655Y-126939353D01*
X42667613Y-127185882D01*
X42671876Y-127193572D01*
X42820024Y-127421700D01*
X42825314Y-127428719D01*
X43003783Y-127634024D01*
X43009976Y-127640217D01*
X43215281Y-127818686D01*
X43222300Y-127823976D01*
X43450428Y-127972124D01*
X43458118Y-127976387D01*
X43704647Y-128091345D01*
X43712857Y-128094496D01*
X43972977Y-128174022D01*
X43981547Y-128176001D01*
X44251044Y-128218685D01*
X44258128Y-128219399D01*
X44316331Y-128221940D01*
X44319083Y-128222000D01*
X45411885Y-128222000D01*
X45427124Y-128217525D01*
X45428329Y-128216135D01*
X45430000Y-128208452D01*
X45430000Y-125232115D01*
X45425525Y-125216876D01*
X45424135Y-125215671D01*
X45416452Y-125214000D01*
X42440116Y-125214000D01*
X42424877Y-125218475D01*
X42423672Y-125219865D01*
X42422001Y-125227548D01*
X42422001Y-126324915D01*
X41412500Y-126324915D01*
X41412500Y-124195885D01*
X42422000Y-124195885D01*
X42426475Y-124211124D01*
X42427865Y-124212329D01*
X42435548Y-124214000D01*
X45411885Y-124214000D01*
X45427124Y-124209525D01*
X45428329Y-124208135D01*
X45430000Y-124200452D01*
X45430000Y-121224116D01*
X45425525Y-121208877D01*
X45424135Y-121207672D01*
X45416452Y-121206001D01*
X44319086Y-121206001D01*
X44316328Y-121206061D01*
X44258145Y-121208601D01*
X44251028Y-121209317D01*
X43981547Y-121251999D01*
X43972977Y-121253978D01*
X43712857Y-121333504D01*
X43704647Y-121336655D01*
X43458118Y-121451613D01*
X43450428Y-121455876D01*
X43222300Y-121604024D01*
X43215281Y-121609314D01*
X43009976Y-121787783D01*
X43003783Y-121793976D01*
X42825314Y-121999281D01*
X42820024Y-122006300D01*
X42671876Y-122234428D01*
X42667613Y-122242118D01*
X42552655Y-122488647D01*
X42549504Y-122496857D01*
X42469978Y-122756977D01*
X42467999Y-122765547D01*
X42425315Y-123035044D01*
X42424601Y-123042128D01*
X42422060Y-123100331D01*
X42422000Y-123103083D01*
X42422000Y-124195885D01*
X41412500Y-124195885D01*
X41412500Y-116164915D01*
X42422001Y-116164915D01*
X42422061Y-116167672D01*
X42424601Y-116225855D01*
X42425317Y-116232972D01*
X42467999Y-116502453D01*
X42469978Y-116511023D01*
X42549504Y-116771143D01*
X42552655Y-116779353D01*
X42667613Y-117025882D01*
X42671876Y-117033572D01*
X42820024Y-117261700D01*
X42825314Y-117268719D01*
X43003783Y-117474024D01*
X43009976Y-117480217D01*
X43215281Y-117658686D01*
X43222300Y-117663976D01*
X43450428Y-117812124D01*
X43458118Y-117816387D01*
X43704647Y-117931345D01*
X43712857Y-117934496D01*
X43972977Y-118014022D01*
X43981547Y-118016001D01*
X44251044Y-118058685D01*
X44258128Y-118059399D01*
X44316331Y-118061940D01*
X44319083Y-118062000D01*
X45411885Y-118062000D01*
X45427124Y-118057525D01*
X45428329Y-118056135D01*
X45430000Y-118048452D01*
X45430000Y-115072115D01*
X45425525Y-115056876D01*
X45424135Y-115055671D01*
X45416452Y-115054000D01*
X42440116Y-115054000D01*
X42424877Y-115058475D01*
X42423672Y-115059865D01*
X42422001Y-115067548D01*
X42422001Y-116164915D01*
X41412500Y-116164915D01*
X41412500Y-114035885D01*
X42422000Y-114035885D01*
X42426475Y-114051124D01*
X42427865Y-114052329D01*
X42435548Y-114054000D01*
X45411885Y-114054000D01*
X45427124Y-114049525D01*
X45428329Y-114048135D01*
X45430000Y-114040452D01*
X45430000Y-111064116D01*
X45425525Y-111048877D01*
X45424135Y-111047672D01*
X45416452Y-111046001D01*
X44319086Y-111046001D01*
X44316328Y-111046061D01*
X44258145Y-111048601D01*
X44251028Y-111049317D01*
X43981547Y-111091999D01*
X43972977Y-111093978D01*
X43712857Y-111173504D01*
X43704647Y-111176655D01*
X43458118Y-111291613D01*
X43450428Y-111295876D01*
X43222300Y-111444024D01*
X43215281Y-111449314D01*
X43009976Y-111627783D01*
X43003783Y-111633976D01*
X42825314Y-111839281D01*
X42820024Y-111846300D01*
X42671876Y-112074428D01*
X42667613Y-112082118D01*
X42552655Y-112328647D01*
X42549504Y-112336857D01*
X42469978Y-112596977D01*
X42467999Y-112605547D01*
X42425315Y-112875044D01*
X42424601Y-112882128D01*
X42422060Y-112940331D01*
X42422000Y-112943083D01*
X42422000Y-114035885D01*
X41412500Y-114035885D01*
X41412500Y-106004915D01*
X42422001Y-106004915D01*
X42422061Y-106007672D01*
X42424601Y-106065855D01*
X42425317Y-106072972D01*
X42467999Y-106342453D01*
X42469978Y-106351023D01*
X42549504Y-106611143D01*
X42552655Y-106619353D01*
X42667613Y-106865882D01*
X42671876Y-106873572D01*
X42820024Y-107101700D01*
X42825314Y-107108719D01*
X43003783Y-107314024D01*
X43009976Y-107320217D01*
X43215281Y-107498686D01*
X43222300Y-107503976D01*
X43450428Y-107652124D01*
X43458118Y-107656387D01*
X43704647Y-107771345D01*
X43712857Y-107774496D01*
X43972977Y-107854022D01*
X43981547Y-107856001D01*
X44251044Y-107898685D01*
X44258128Y-107899399D01*
X44316331Y-107901940D01*
X44319083Y-107902000D01*
X45411885Y-107902000D01*
X45427124Y-107897525D01*
X45428329Y-107896135D01*
X45430000Y-107888452D01*
X45430000Y-104912115D01*
X45425525Y-104896876D01*
X45424135Y-104895671D01*
X45416452Y-104894000D01*
X42440116Y-104894000D01*
X42424877Y-104898475D01*
X42423672Y-104899865D01*
X42422001Y-104907548D01*
X42422001Y-106004915D01*
X41412500Y-106004915D01*
X41412500Y-103875885D01*
X42422000Y-103875885D01*
X42426475Y-103891124D01*
X42427865Y-103892329D01*
X42435548Y-103894000D01*
X45411885Y-103894000D01*
X45427124Y-103889525D01*
X45428329Y-103888135D01*
X45430000Y-103880452D01*
X45430000Y-100904116D01*
X45425525Y-100888877D01*
X45424135Y-100887672D01*
X45416452Y-100886001D01*
X44319086Y-100886001D01*
X44316328Y-100886061D01*
X44258145Y-100888601D01*
X44251028Y-100889317D01*
X43981547Y-100931999D01*
X43972977Y-100933978D01*
X43712857Y-101013504D01*
X43704647Y-101016655D01*
X43458118Y-101131613D01*
X43450428Y-101135876D01*
X43222300Y-101284024D01*
X43215281Y-101289314D01*
X43009976Y-101467783D01*
X43003783Y-101473976D01*
X42825314Y-101679281D01*
X42820024Y-101686300D01*
X42671876Y-101914428D01*
X42667613Y-101922118D01*
X42552655Y-102168647D01*
X42549504Y-102176857D01*
X42469978Y-102436977D01*
X42467999Y-102445547D01*
X42425315Y-102715044D01*
X42424601Y-102722128D01*
X42422060Y-102780331D01*
X42422000Y-102783083D01*
X42422000Y-103875885D01*
X41412500Y-103875885D01*
X41412500Y-95844915D01*
X42422001Y-95844915D01*
X42422061Y-95847672D01*
X42424601Y-95905855D01*
X42425317Y-95912972D01*
X42467999Y-96182453D01*
X42469978Y-96191023D01*
X42549504Y-96451143D01*
X42552655Y-96459353D01*
X42667613Y-96705882D01*
X42671876Y-96713572D01*
X42820024Y-96941700D01*
X42825314Y-96948719D01*
X43003783Y-97154024D01*
X43009976Y-97160217D01*
X43215281Y-97338686D01*
X43222300Y-97343976D01*
X43450428Y-97492124D01*
X43458118Y-97496387D01*
X43704647Y-97611345D01*
X43712857Y-97614496D01*
X43972977Y-97694022D01*
X43981547Y-97696001D01*
X44251044Y-97738685D01*
X44258128Y-97739399D01*
X44316331Y-97741940D01*
X44319083Y-97742000D01*
X45411885Y-97742000D01*
X45427124Y-97737525D01*
X45428329Y-97736135D01*
X45430000Y-97728452D01*
X45430000Y-94752115D01*
X45425525Y-94736876D01*
X45424135Y-94735671D01*
X45416452Y-94734000D01*
X42440116Y-94734000D01*
X42424877Y-94738475D01*
X42423672Y-94739865D01*
X42422001Y-94747548D01*
X42422001Y-95844915D01*
X41412500Y-95844915D01*
X41412500Y-93715885D01*
X42422000Y-93715885D01*
X42426475Y-93731124D01*
X42427865Y-93732329D01*
X42435548Y-93734000D01*
X45411885Y-93734000D01*
X45427124Y-93729525D01*
X45428329Y-93728135D01*
X45430000Y-93720452D01*
X45430000Y-90744116D01*
X45425525Y-90728877D01*
X45424135Y-90727672D01*
X45416452Y-90726001D01*
X44319086Y-90726001D01*
X44316328Y-90726061D01*
X44258145Y-90728601D01*
X44251028Y-90729317D01*
X43981547Y-90771999D01*
X43972977Y-90773978D01*
X43712857Y-90853504D01*
X43704647Y-90856655D01*
X43458118Y-90971613D01*
X43450428Y-90975876D01*
X43222300Y-91124024D01*
X43215281Y-91129314D01*
X43009976Y-91307783D01*
X43003783Y-91313976D01*
X42825314Y-91519281D01*
X42820024Y-91526300D01*
X42671876Y-91754428D01*
X42667613Y-91762118D01*
X42552655Y-92008647D01*
X42549504Y-92016857D01*
X42469978Y-92276977D01*
X42467999Y-92285547D01*
X42425315Y-92555044D01*
X42424601Y-92562128D01*
X42422060Y-92620331D01*
X42422000Y-92623083D01*
X42422000Y-93715885D01*
X41412500Y-93715885D01*
X41412500Y-85684915D01*
X42422001Y-85684915D01*
X42422061Y-85687672D01*
X42424601Y-85745855D01*
X42425317Y-85752972D01*
X42467999Y-86022453D01*
X42469978Y-86031023D01*
X42549504Y-86291143D01*
X42552655Y-86299353D01*
X42667613Y-86545882D01*
X42671876Y-86553572D01*
X42820024Y-86781700D01*
X42825314Y-86788719D01*
X43003783Y-86994024D01*
X43009976Y-87000217D01*
X43215281Y-87178686D01*
X43222300Y-87183976D01*
X43450428Y-87332124D01*
X43458118Y-87336387D01*
X43704647Y-87451345D01*
X43712857Y-87454496D01*
X43972977Y-87534022D01*
X43981547Y-87536001D01*
X44251044Y-87578685D01*
X44258128Y-87579399D01*
X44316331Y-87581940D01*
X44319083Y-87582000D01*
X45411885Y-87582000D01*
X45427124Y-87577525D01*
X45428329Y-87576135D01*
X45430000Y-87568452D01*
X45430000Y-84592115D01*
X45425525Y-84576876D01*
X45424135Y-84575671D01*
X45416452Y-84574000D01*
X42440116Y-84574000D01*
X42424877Y-84578475D01*
X42423672Y-84579865D01*
X42422001Y-84587548D01*
X42422001Y-85684915D01*
X41412500Y-85684915D01*
X41412500Y-83555885D01*
X42422000Y-83555885D01*
X42426475Y-83571124D01*
X42427865Y-83572329D01*
X42435548Y-83574000D01*
X45411885Y-83574000D01*
X45427124Y-83569525D01*
X45428329Y-83568135D01*
X45430000Y-83560452D01*
X45430000Y-80584116D01*
X45425525Y-80568877D01*
X45424135Y-80567672D01*
X45416452Y-80566001D01*
X44319086Y-80566001D01*
X44316328Y-80566061D01*
X44258145Y-80568601D01*
X44251028Y-80569317D01*
X43981547Y-80611999D01*
X43972977Y-80613978D01*
X43712857Y-80693504D01*
X43704647Y-80696655D01*
X43458118Y-80811613D01*
X43450428Y-80815876D01*
X43222300Y-80964024D01*
X43215281Y-80969314D01*
X43009976Y-81147783D01*
X43003783Y-81153976D01*
X42825314Y-81359281D01*
X42820024Y-81366300D01*
X42671876Y-81594428D01*
X42667613Y-81602118D01*
X42552655Y-81848647D01*
X42549504Y-81856857D01*
X42469978Y-82116977D01*
X42467999Y-82125547D01*
X42425315Y-82395044D01*
X42424601Y-82402128D01*
X42422060Y-82460331D01*
X42422000Y-82463083D01*
X42422000Y-83555885D01*
X41412500Y-83555885D01*
X41412500Y-75524915D01*
X42422001Y-75524915D01*
X42422061Y-75527672D01*
X42424601Y-75585855D01*
X42425317Y-75592972D01*
X42467999Y-75862453D01*
X42469978Y-75871023D01*
X42549504Y-76131143D01*
X42552655Y-76139353D01*
X42667613Y-76385882D01*
X42671876Y-76393572D01*
X42820024Y-76621700D01*
X42825314Y-76628719D01*
X43003783Y-76834024D01*
X43009976Y-76840217D01*
X43215281Y-77018686D01*
X43222300Y-77023976D01*
X43450428Y-77172124D01*
X43458118Y-77176387D01*
X43704647Y-77291345D01*
X43712857Y-77294496D01*
X43972977Y-77374022D01*
X43981547Y-77376001D01*
X44251044Y-77418685D01*
X44258128Y-77419399D01*
X44316331Y-77421940D01*
X44319083Y-77422000D01*
X45411885Y-77422000D01*
X45427124Y-77417525D01*
X45428329Y-77416135D01*
X45430000Y-77408452D01*
X45430000Y-74432115D01*
X45425525Y-74416876D01*
X45424135Y-74415671D01*
X45416452Y-74414000D01*
X42440116Y-74414000D01*
X42424877Y-74418475D01*
X42423672Y-74419865D01*
X42422001Y-74427548D01*
X42422001Y-75524915D01*
X41412500Y-75524915D01*
X41412500Y-73395885D01*
X42422000Y-73395885D01*
X42426475Y-73411124D01*
X42427865Y-73412329D01*
X42435548Y-73414000D01*
X45411885Y-73414000D01*
X45427124Y-73409525D01*
X45428329Y-73408135D01*
X45430000Y-73400452D01*
X45430000Y-70424116D01*
X45425525Y-70408877D01*
X45424135Y-70407672D01*
X45416452Y-70406001D01*
X44319086Y-70406001D01*
X44316328Y-70406061D01*
X44258145Y-70408601D01*
X44251028Y-70409317D01*
X43981547Y-70451999D01*
X43972977Y-70453978D01*
X43712857Y-70533504D01*
X43704647Y-70536655D01*
X43458118Y-70651613D01*
X43450428Y-70655876D01*
X43222300Y-70804024D01*
X43215281Y-70809314D01*
X43009976Y-70987783D01*
X43003783Y-70993976D01*
X42825314Y-71199281D01*
X42820024Y-71206300D01*
X42671876Y-71434428D01*
X42667613Y-71442118D01*
X42552655Y-71688647D01*
X42549504Y-71696857D01*
X42469978Y-71956977D01*
X42467999Y-71965547D01*
X42425315Y-72235044D01*
X42424601Y-72242128D01*
X42422060Y-72300331D01*
X42422000Y-72303083D01*
X42422000Y-73395885D01*
X41412500Y-73395885D01*
X41412500Y-65364915D01*
X42422001Y-65364915D01*
X42422061Y-65367672D01*
X42424601Y-65425855D01*
X42425317Y-65432972D01*
X42467999Y-65702453D01*
X42469978Y-65711023D01*
X42549504Y-65971143D01*
X42552655Y-65979353D01*
X42667613Y-66225882D01*
X42671876Y-66233572D01*
X42820024Y-66461700D01*
X42825314Y-66468719D01*
X43003783Y-66674024D01*
X43009976Y-66680217D01*
X43215281Y-66858686D01*
X43222300Y-66863976D01*
X43450428Y-67012124D01*
X43458118Y-67016387D01*
X43704647Y-67131345D01*
X43712857Y-67134496D01*
X43972977Y-67214022D01*
X43981547Y-67216001D01*
X44251044Y-67258685D01*
X44258128Y-67259399D01*
X44316331Y-67261940D01*
X44319083Y-67262000D01*
X45411885Y-67262000D01*
X45427124Y-67257525D01*
X45428329Y-67256135D01*
X45430000Y-67248452D01*
X45430000Y-64272115D01*
X45425525Y-64256876D01*
X45424135Y-64255671D01*
X45416452Y-64254000D01*
X42440116Y-64254000D01*
X42424877Y-64258475D01*
X42423672Y-64259865D01*
X42422001Y-64267548D01*
X42422001Y-65364915D01*
X41412500Y-65364915D01*
X41412500Y-63235885D01*
X42422000Y-63235885D01*
X42426475Y-63251124D01*
X42427865Y-63252329D01*
X42435548Y-63254000D01*
X45411885Y-63254000D01*
X45427124Y-63249525D01*
X45428329Y-63248135D01*
X45430000Y-63240452D01*
X45430000Y-60264116D01*
X45425525Y-60248877D01*
X45424135Y-60247672D01*
X45416452Y-60246001D01*
X44319086Y-60246001D01*
X44316328Y-60246061D01*
X44258145Y-60248601D01*
X44251028Y-60249317D01*
X43981547Y-60291999D01*
X43972977Y-60293978D01*
X43712857Y-60373504D01*
X43704647Y-60376655D01*
X43458118Y-60491613D01*
X43450428Y-60495876D01*
X43222300Y-60644024D01*
X43215281Y-60649314D01*
X43009976Y-60827783D01*
X43003783Y-60833976D01*
X42825314Y-61039281D01*
X42820024Y-61046300D01*
X42671876Y-61274428D01*
X42667613Y-61282118D01*
X42552655Y-61528647D01*
X42549504Y-61536857D01*
X42469978Y-61796977D01*
X42467999Y-61805547D01*
X42425315Y-62075044D01*
X42424601Y-62082128D01*
X42422060Y-62140331D01*
X42422000Y-62143083D01*
X42422000Y-63235885D01*
X41412500Y-63235885D01*
X41412500Y-57810915D01*
X70976128Y-57810915D01*
X70976188Y-57813672D01*
X70978728Y-57871855D01*
X70979444Y-57878972D01*
X71022126Y-58148453D01*
X71024105Y-58157023D01*
X71103631Y-58417143D01*
X71106782Y-58425353D01*
X71221740Y-58671882D01*
X71226003Y-58679572D01*
X71374151Y-58907700D01*
X71379441Y-58914719D01*
X71557910Y-59120024D01*
X71564103Y-59126217D01*
X71769408Y-59304686D01*
X71776427Y-59309976D01*
X72004555Y-59458124D01*
X72012245Y-59462387D01*
X72258774Y-59577345D01*
X72266984Y-59580496D01*
X72527104Y-59660022D01*
X72535674Y-59662001D01*
X72805171Y-59704685D01*
X72812255Y-59705399D01*
X72870458Y-59707940D01*
X72873210Y-59708000D01*
X73966012Y-59708000D01*
X73981251Y-59703525D01*
X73982456Y-59702135D01*
X73984127Y-59694452D01*
X73984127Y-56718115D01*
X73979652Y-56702876D01*
X73978262Y-56701671D01*
X73970579Y-56700000D01*
X70994243Y-56700000D01*
X70979004Y-56704475D01*
X70977799Y-56705865D01*
X70976128Y-56713548D01*
X70976128Y-57810915D01*
X41412500Y-57810915D01*
X41412500Y-55250703D01*
X62660743Y-55250703D01*
X62698268Y-55535734D01*
X62774129Y-55813036D01*
X62886923Y-56077476D01*
X63034561Y-56324161D01*
X63214313Y-56548528D01*
X63231397Y-56564740D01*
X63393021Y-56718115D01*
X63422851Y-56746423D01*
X63656317Y-56914186D01*
X63660112Y-56916195D01*
X63660113Y-56916196D01*
X63681869Y-56927715D01*
X63910392Y-57048712D01*
X64180373Y-57147511D01*
X64461264Y-57208755D01*
X64489841Y-57211004D01*
X64684282Y-57226307D01*
X64684291Y-57226307D01*
X64686739Y-57226500D01*
X64842271Y-57226500D01*
X64844407Y-57226354D01*
X64844418Y-57226354D01*
X65052548Y-57212165D01*
X65052554Y-57212164D01*
X65056825Y-57211873D01*
X65061020Y-57211004D01*
X65061022Y-57211004D01*
X65197583Y-57182724D01*
X65338342Y-57153574D01*
X65609343Y-57057607D01*
X65864812Y-56925750D01*
X65868313Y-56923289D01*
X65868317Y-56923287D01*
X65982418Y-56843095D01*
X66100023Y-56760441D01*
X66310622Y-56564740D01*
X66492713Y-56342268D01*
X66642927Y-56097142D01*
X66758483Y-55833898D01*
X66801785Y-55681885D01*
X70976127Y-55681885D01*
X70980602Y-55697124D01*
X70981992Y-55698329D01*
X70989675Y-55700000D01*
X73966012Y-55700000D01*
X73981251Y-55695525D01*
X73982456Y-55694135D01*
X73984127Y-55686452D01*
X73984127Y-52710116D01*
X73979652Y-52694877D01*
X73978262Y-52693672D01*
X73970579Y-52692001D01*
X72873213Y-52692001D01*
X72870455Y-52692061D01*
X72812272Y-52694601D01*
X72805155Y-52695317D01*
X72535674Y-52737999D01*
X72527104Y-52739978D01*
X72266984Y-52819504D01*
X72258774Y-52822655D01*
X72012245Y-52937613D01*
X72004555Y-52941876D01*
X71776427Y-53090024D01*
X71769408Y-53095314D01*
X71564103Y-53273783D01*
X71557910Y-53279976D01*
X71379441Y-53485281D01*
X71374151Y-53492300D01*
X71226003Y-53720428D01*
X71221740Y-53728118D01*
X71106782Y-53974647D01*
X71103631Y-53982857D01*
X71024105Y-54242977D01*
X71022126Y-54251547D01*
X70979442Y-54521044D01*
X70978728Y-54528128D01*
X70976187Y-54586331D01*
X70976127Y-54589083D01*
X70976127Y-55681885D01*
X66801785Y-55681885D01*
X66837244Y-55557406D01*
X66877751Y-55272784D01*
X66877845Y-55254951D01*
X66879235Y-54989583D01*
X66879235Y-54989576D01*
X66879257Y-54985297D01*
X66841732Y-54700266D01*
X66765871Y-54422964D01*
X66653077Y-54158524D01*
X66578527Y-54033960D01*
X66507643Y-53915521D01*
X66507640Y-53915517D01*
X66505439Y-53911839D01*
X66325687Y-53687472D01*
X66117149Y-53489577D01*
X65883683Y-53321814D01*
X65861843Y-53310250D01*
X65792968Y-53273783D01*
X65629608Y-53187288D01*
X65494617Y-53137888D01*
X65363658Y-53089964D01*
X65363656Y-53089963D01*
X65359627Y-53088489D01*
X65078736Y-53027245D01*
X65047685Y-53024801D01*
X64855718Y-53009693D01*
X64855709Y-53009693D01*
X64853261Y-53009500D01*
X64697729Y-53009500D01*
X64695593Y-53009646D01*
X64695582Y-53009646D01*
X64487452Y-53023835D01*
X64487446Y-53023836D01*
X64483175Y-53024127D01*
X64478980Y-53024996D01*
X64478978Y-53024996D01*
X64342416Y-53053277D01*
X64201658Y-53082426D01*
X63930657Y-53178393D01*
X63675188Y-53310250D01*
X63671687Y-53312711D01*
X63671683Y-53312713D01*
X63661594Y-53319804D01*
X63439977Y-53475559D01*
X63424892Y-53489577D01*
X63249814Y-53652270D01*
X63229378Y-53671260D01*
X63047287Y-53893732D01*
X62897073Y-54138858D01*
X62781517Y-54402102D01*
X62702756Y-54678594D01*
X62662249Y-54963216D01*
X62662227Y-54967505D01*
X62662226Y-54967512D01*
X62660765Y-55246417D01*
X62660743Y-55250703D01*
X41412500Y-55250703D01*
X41412500Y-51942500D01*
X41432502Y-51874379D01*
X41486158Y-51827886D01*
X41538500Y-51816500D01*
X77849505Y-51816500D01*
X77917626Y-51836502D01*
G37*
%TD.AperFunction*%
%TD*%
%TA.AperFunction,Conductor*%
%TO.N,BATTP*%
G36*
X103938523Y-72658739D02*
G01*
X103988720Y-72708946D01*
X104004127Y-72769321D01*
X104004127Y-75810000D01*
X103984125Y-75878121D01*
X103930469Y-75924614D01*
X103878127Y-75936000D01*
X100448127Y-75936000D01*
X100448127Y-86234000D01*
X100428125Y-86302121D01*
X100374469Y-86348614D01*
X100322127Y-86360000D01*
X97454006Y-86360000D01*
X97402757Y-86349107D01*
X97300783Y-86303705D01*
X97300781Y-86303705D01*
X97294752Y-86301020D01*
X97206492Y-86282260D01*
X97124689Y-86264872D01*
X97124685Y-86264872D01*
X97118232Y-86263500D01*
X96937768Y-86263500D01*
X96931315Y-86264872D01*
X96931311Y-86264872D01*
X96849508Y-86282260D01*
X96761248Y-86301020D01*
X96755219Y-86303704D01*
X96755217Y-86303705D01*
X96653244Y-86349107D01*
X96601995Y-86360000D01*
X95504000Y-86360000D01*
X95504000Y-87453061D01*
X95487119Y-87516061D01*
X95477401Y-87532893D01*
X95421635Y-87704525D01*
X95402771Y-87884000D01*
X95403461Y-87890565D01*
X95416120Y-88011000D01*
X95421635Y-88063475D01*
X95477401Y-88235107D01*
X95480704Y-88240829D01*
X95480705Y-88240830D01*
X95487119Y-88251939D01*
X95504000Y-88314939D01*
X95504000Y-98082741D01*
X95480017Y-98156554D01*
X95475028Y-98161867D01*
X95471207Y-98168818D01*
X95471206Y-98168819D01*
X95464697Y-98180658D01*
X95453843Y-98197182D01*
X95446018Y-98207271D01*
X95440696Y-98214132D01*
X95437549Y-98221404D01*
X95437548Y-98221406D01*
X95422346Y-98256535D01*
X95417124Y-98267195D01*
X95394876Y-98307663D01*
X95389541Y-98328441D01*
X95383142Y-98347131D01*
X95374620Y-98366824D01*
X95373380Y-98374655D01*
X95367394Y-98412448D01*
X95364987Y-98424071D01*
X95353500Y-98468812D01*
X95353500Y-98490259D01*
X95351949Y-98509969D01*
X95348594Y-98531152D01*
X95349340Y-98539043D01*
X95352941Y-98577138D01*
X95353500Y-98588996D01*
X95353500Y-106355817D01*
X95352941Y-106367673D01*
X95351212Y-106375410D01*
X95351461Y-106383332D01*
X95353438Y-106446242D01*
X95353500Y-106450200D01*
X95353500Y-106479305D01*
X95354056Y-106483705D01*
X95354988Y-106495537D01*
X95356438Y-106541704D01*
X95358650Y-106549317D01*
X95358650Y-106549318D01*
X95362419Y-106562289D01*
X95366430Y-106581655D01*
X95369118Y-106602937D01*
X95372034Y-106610302D01*
X95372035Y-106610306D01*
X95386126Y-106645894D01*
X95389965Y-106657104D01*
X95402855Y-106701473D01*
X95413775Y-106719938D01*
X95422466Y-106737678D01*
X95426909Y-106748901D01*
X95433388Y-106819597D01*
X95403393Y-106879591D01*
X95334942Y-106955614D01*
X95301633Y-106992607D01*
X95211401Y-107148893D01*
X95155635Y-107320525D01*
X95136771Y-107500000D01*
X95155635Y-107679475D01*
X95211401Y-107851107D01*
X95214704Y-107856829D01*
X95214705Y-107856830D01*
X95221154Y-107868000D01*
X95301633Y-108007393D01*
X95422387Y-108141504D01*
X95452061Y-108163064D01*
X95495414Y-108219284D01*
X95504000Y-108264999D01*
X95504000Y-108714228D01*
X95483998Y-108782349D01*
X95430342Y-108828842D01*
X95379235Y-108840222D01*
X83684361Y-108954754D01*
X83616048Y-108935420D01*
X83569031Y-108882222D01*
X83557127Y-108828760D01*
X83557127Y-107404669D01*
X84096128Y-107404669D01*
X84096498Y-107411490D01*
X84102022Y-107462352D01*
X84105648Y-107477604D01*
X84150803Y-107598054D01*
X84159341Y-107613649D01*
X84235842Y-107715724D01*
X84248403Y-107728285D01*
X84350478Y-107804786D01*
X84366073Y-107813324D01*
X84486521Y-107858478D01*
X84501776Y-107862105D01*
X84552641Y-107867631D01*
X84559455Y-107868000D01*
X87286012Y-107868000D01*
X87301251Y-107863525D01*
X87302456Y-107862135D01*
X87304127Y-107854452D01*
X87304127Y-107849884D01*
X88304127Y-107849884D01*
X88308602Y-107865123D01*
X88309992Y-107866328D01*
X88317675Y-107867999D01*
X91048796Y-107867999D01*
X91055617Y-107867629D01*
X91106479Y-107862105D01*
X91121731Y-107858479D01*
X91242181Y-107813324D01*
X91257776Y-107804786D01*
X91359851Y-107728285D01*
X91372412Y-107715724D01*
X91448913Y-107613649D01*
X91457451Y-107598054D01*
X91502605Y-107477606D01*
X91506232Y-107462351D01*
X91511758Y-107411486D01*
X91512127Y-107404672D01*
X91512127Y-104978115D01*
X91507652Y-104962876D01*
X91506262Y-104961671D01*
X91498579Y-104960000D01*
X88322242Y-104960000D01*
X88307003Y-104964475D01*
X88305798Y-104965865D01*
X88304127Y-104973548D01*
X88304127Y-107849884D01*
X87304127Y-107849884D01*
X87304127Y-104978115D01*
X87299652Y-104962876D01*
X87298262Y-104961671D01*
X87290579Y-104960000D01*
X84114243Y-104960000D01*
X84099004Y-104964475D01*
X84097799Y-104965865D01*
X84096128Y-104973548D01*
X84096128Y-107404669D01*
X83557127Y-107404669D01*
X83557127Y-107370337D01*
X83577129Y-107302216D01*
X83587102Y-107288757D01*
X83620581Y-107249350D01*
X83625133Y-107244277D01*
X83664457Y-107202766D01*
X83664458Y-107202765D01*
X83669490Y-107197453D01*
X83673165Y-107191126D01*
X83673172Y-107191117D01*
X83674267Y-107189232D01*
X83687185Y-107170953D01*
X83688594Y-107169294D01*
X83688596Y-107169291D01*
X83693333Y-107163715D01*
X83696659Y-107157201D01*
X83696662Y-107157197D01*
X83722670Y-107106264D01*
X83725932Y-107100281D01*
X83754649Y-107050841D01*
X83754650Y-107050839D01*
X83758326Y-107044510D01*
X83760447Y-107037506D01*
X83760449Y-107037502D01*
X83761078Y-107035425D01*
X83769451Y-107014649D01*
X83773769Y-107006192D01*
X83789108Y-106943505D01*
X83790891Y-106936988D01*
X83809595Y-106875233D01*
X83810183Y-106865754D01*
X83813551Y-106843617D01*
X83814474Y-106839846D01*
X83814476Y-106839834D01*
X83815808Y-106834390D01*
X83816500Y-106823236D01*
X83816500Y-106767835D01*
X83816742Y-106760033D01*
X83820093Y-106706013D01*
X83820547Y-106698702D01*
X83818320Y-106685740D01*
X83816500Y-106664404D01*
X83816500Y-103941885D01*
X84096127Y-103941885D01*
X84100602Y-103957124D01*
X84101992Y-103958329D01*
X84109675Y-103960000D01*
X87286012Y-103960000D01*
X87301251Y-103955525D01*
X87302456Y-103954135D01*
X87304127Y-103946452D01*
X87304127Y-103941885D01*
X88304127Y-103941885D01*
X88308602Y-103957124D01*
X88309992Y-103958329D01*
X88317675Y-103960000D01*
X91494011Y-103960000D01*
X91509250Y-103955525D01*
X91510455Y-103954135D01*
X91512126Y-103946452D01*
X91512126Y-101515331D01*
X91511756Y-101508510D01*
X91506232Y-101457648D01*
X91502606Y-101442396D01*
X91457451Y-101321946D01*
X91448913Y-101306351D01*
X91372412Y-101204276D01*
X91359851Y-101191715D01*
X91257776Y-101115214D01*
X91242181Y-101106676D01*
X91121733Y-101061522D01*
X91106478Y-101057895D01*
X91055613Y-101052369D01*
X91048799Y-101052000D01*
X88322242Y-101052000D01*
X88307003Y-101056475D01*
X88305798Y-101057865D01*
X88304127Y-101065548D01*
X88304127Y-103941885D01*
X87304127Y-103941885D01*
X87304127Y-101070116D01*
X87299652Y-101054877D01*
X87298262Y-101053672D01*
X87290579Y-101052001D01*
X84559458Y-101052001D01*
X84552637Y-101052371D01*
X84501775Y-101057895D01*
X84486523Y-101061521D01*
X84366073Y-101106676D01*
X84350478Y-101115214D01*
X84248403Y-101191715D01*
X84235842Y-101204276D01*
X84159341Y-101306351D01*
X84150803Y-101321946D01*
X84105649Y-101442394D01*
X84102022Y-101457649D01*
X84096496Y-101508514D01*
X84096127Y-101515328D01*
X84096127Y-103941885D01*
X83816500Y-103941885D01*
X83816500Y-99784669D01*
X84096128Y-99784669D01*
X84096498Y-99791490D01*
X84102022Y-99842352D01*
X84105648Y-99857604D01*
X84150803Y-99978054D01*
X84159341Y-99993649D01*
X84235842Y-100095724D01*
X84248403Y-100108285D01*
X84350478Y-100184786D01*
X84366073Y-100193324D01*
X84486521Y-100238478D01*
X84501776Y-100242105D01*
X84552641Y-100247631D01*
X84559455Y-100248000D01*
X87286012Y-100248000D01*
X87301251Y-100243525D01*
X87302456Y-100242135D01*
X87304127Y-100234452D01*
X87304127Y-100229884D01*
X88304127Y-100229884D01*
X88308602Y-100245123D01*
X88309992Y-100246328D01*
X88317675Y-100247999D01*
X91048796Y-100247999D01*
X91055617Y-100247629D01*
X91106479Y-100242105D01*
X91121731Y-100238479D01*
X91242181Y-100193324D01*
X91257776Y-100184786D01*
X91359851Y-100108285D01*
X91372412Y-100095724D01*
X91448913Y-99993649D01*
X91457451Y-99978054D01*
X91502605Y-99857606D01*
X91506232Y-99842351D01*
X91511758Y-99791486D01*
X91512127Y-99784672D01*
X91512127Y-97358115D01*
X91507652Y-97342876D01*
X91506262Y-97341671D01*
X91498579Y-97340000D01*
X88322242Y-97340000D01*
X88307003Y-97344475D01*
X88305798Y-97345865D01*
X88304127Y-97353548D01*
X88304127Y-100229884D01*
X87304127Y-100229884D01*
X87304127Y-97358115D01*
X87299652Y-97342876D01*
X87298262Y-97341671D01*
X87290579Y-97340000D01*
X84114243Y-97340000D01*
X84099004Y-97344475D01*
X84097799Y-97345865D01*
X84096128Y-97353548D01*
X84096128Y-99784669D01*
X83816500Y-99784669D01*
X83816500Y-99147835D01*
X83816742Y-99140033D01*
X83820093Y-99086013D01*
X83820547Y-99078702D01*
X83818320Y-99065740D01*
X83816500Y-99044404D01*
X83816500Y-96321885D01*
X84096127Y-96321885D01*
X84100602Y-96337124D01*
X84101992Y-96338329D01*
X84109675Y-96340000D01*
X87286012Y-96340000D01*
X87301251Y-96335525D01*
X87302456Y-96334135D01*
X87304127Y-96326452D01*
X87304127Y-96321885D01*
X88304127Y-96321885D01*
X88308602Y-96337124D01*
X88309992Y-96338329D01*
X88317675Y-96340000D01*
X91494011Y-96340000D01*
X91509250Y-96335525D01*
X91510455Y-96334135D01*
X91512126Y-96326452D01*
X91512126Y-93895331D01*
X91511756Y-93888510D01*
X91506232Y-93837648D01*
X91502606Y-93822396D01*
X91457451Y-93701946D01*
X91448913Y-93686351D01*
X91372412Y-93584276D01*
X91359851Y-93571715D01*
X91257776Y-93495214D01*
X91242181Y-93486676D01*
X91121733Y-93441522D01*
X91106478Y-93437895D01*
X91055613Y-93432369D01*
X91048799Y-93432000D01*
X88322242Y-93432000D01*
X88307003Y-93436475D01*
X88305798Y-93437865D01*
X88304127Y-93445548D01*
X88304127Y-96321885D01*
X87304127Y-96321885D01*
X87304127Y-93450116D01*
X87299652Y-93434877D01*
X87298262Y-93433672D01*
X87290579Y-93432001D01*
X84559458Y-93432001D01*
X84552637Y-93432371D01*
X84501775Y-93437895D01*
X84486523Y-93441521D01*
X84366073Y-93486676D01*
X84350478Y-93495214D01*
X84248403Y-93571715D01*
X84235842Y-93584276D01*
X84159341Y-93686351D01*
X84150803Y-93701946D01*
X84105649Y-93822394D01*
X84102022Y-93837649D01*
X84096496Y-93888514D01*
X84096127Y-93895328D01*
X84096127Y-96321885D01*
X83816500Y-96321885D01*
X83816500Y-93004865D01*
X83836502Y-92936744D01*
X83890158Y-92890251D01*
X83914690Y-92882107D01*
X83920293Y-92881526D01*
X84088073Y-92825550D01*
X84238475Y-92732478D01*
X84363432Y-92607303D01*
X84456242Y-92456738D01*
X84511924Y-92288861D01*
X84522627Y-92184400D01*
X84522627Y-91183600D01*
X84511653Y-91077834D01*
X84455677Y-90910054D01*
X84362605Y-90759652D01*
X84237430Y-90634695D01*
X84139239Y-90574169D01*
X84093095Y-90545725D01*
X84093093Y-90545724D01*
X84086865Y-90541885D01*
X84038443Y-90525824D01*
X83925520Y-90488369D01*
X83925515Y-90488368D01*
X83918988Y-90486203D01*
X83915081Y-90485803D01*
X83853670Y-90452506D01*
X83819460Y-90390295D01*
X83816500Y-90363146D01*
X83816500Y-89624669D01*
X84096128Y-89624669D01*
X84096498Y-89631490D01*
X84102022Y-89682352D01*
X84105648Y-89697604D01*
X84150803Y-89818054D01*
X84159341Y-89833649D01*
X84235842Y-89935724D01*
X84248403Y-89948285D01*
X84350478Y-90024786D01*
X84366073Y-90033324D01*
X84486521Y-90078478D01*
X84501776Y-90082105D01*
X84552641Y-90087631D01*
X84559455Y-90088000D01*
X87286012Y-90088000D01*
X87301251Y-90083525D01*
X87302456Y-90082135D01*
X87304127Y-90074452D01*
X87304127Y-90069884D01*
X88304127Y-90069884D01*
X88308602Y-90085123D01*
X88309992Y-90086328D01*
X88317675Y-90087999D01*
X91048796Y-90087999D01*
X91055617Y-90087629D01*
X91106479Y-90082105D01*
X91121731Y-90078479D01*
X91242181Y-90033324D01*
X91257776Y-90024786D01*
X91359851Y-89948285D01*
X91372412Y-89935724D01*
X91448913Y-89833649D01*
X91457451Y-89818054D01*
X91502605Y-89697606D01*
X91506232Y-89682351D01*
X91511758Y-89631486D01*
X91512127Y-89624672D01*
X91512127Y-87198115D01*
X91507652Y-87182876D01*
X91506262Y-87181671D01*
X91498579Y-87180000D01*
X88322242Y-87180000D01*
X88307003Y-87184475D01*
X88305798Y-87185865D01*
X88304127Y-87193548D01*
X88304127Y-90069884D01*
X87304127Y-90069884D01*
X87304127Y-87198115D01*
X87299652Y-87182876D01*
X87298262Y-87181671D01*
X87290579Y-87180000D01*
X84114243Y-87180000D01*
X84099004Y-87184475D01*
X84097799Y-87185865D01*
X84096128Y-87193548D01*
X84096128Y-89624669D01*
X83816500Y-89624669D01*
X83816500Y-88987835D01*
X83816742Y-88980033D01*
X83820093Y-88926013D01*
X83820547Y-88918702D01*
X83818320Y-88905740D01*
X83816500Y-88884404D01*
X83816500Y-86161885D01*
X84096127Y-86161885D01*
X84100602Y-86177124D01*
X84101992Y-86178329D01*
X84109675Y-86180000D01*
X87286012Y-86180000D01*
X87301251Y-86175525D01*
X87302456Y-86174135D01*
X87304127Y-86166452D01*
X87304127Y-86161885D01*
X88304127Y-86161885D01*
X88308602Y-86177124D01*
X88309992Y-86178329D01*
X88317675Y-86180000D01*
X91494011Y-86180000D01*
X91509250Y-86175525D01*
X91510455Y-86174135D01*
X91512126Y-86166452D01*
X91512126Y-83735331D01*
X91511756Y-83728510D01*
X91506232Y-83677648D01*
X91502606Y-83662396D01*
X91457451Y-83541946D01*
X91448913Y-83526351D01*
X91372412Y-83424276D01*
X91359851Y-83411715D01*
X91257776Y-83335214D01*
X91242181Y-83326676D01*
X91121733Y-83281522D01*
X91106478Y-83277895D01*
X91055613Y-83272369D01*
X91048799Y-83272000D01*
X88322242Y-83272000D01*
X88307003Y-83276475D01*
X88305798Y-83277865D01*
X88304127Y-83285548D01*
X88304127Y-86161885D01*
X87304127Y-86161885D01*
X87304127Y-83290116D01*
X87299652Y-83274877D01*
X87298262Y-83273672D01*
X87290579Y-83272001D01*
X84559458Y-83272001D01*
X84552637Y-83272371D01*
X84501775Y-83277895D01*
X84486523Y-83281521D01*
X84366073Y-83326676D01*
X84350478Y-83335214D01*
X84248403Y-83411715D01*
X84235842Y-83424276D01*
X84159341Y-83526351D01*
X84150803Y-83541946D01*
X84105649Y-83662394D01*
X84102022Y-83677649D01*
X84096496Y-83728514D01*
X84096127Y-83735328D01*
X84096127Y-86161885D01*
X83816500Y-86161885D01*
X83816500Y-82004669D01*
X84096128Y-82004669D01*
X84096498Y-82011490D01*
X84102022Y-82062352D01*
X84105648Y-82077604D01*
X84150803Y-82198054D01*
X84159341Y-82213649D01*
X84235842Y-82315724D01*
X84248403Y-82328285D01*
X84350478Y-82404786D01*
X84366073Y-82413324D01*
X84486521Y-82458478D01*
X84501776Y-82462105D01*
X84552641Y-82467631D01*
X84559455Y-82468000D01*
X87286012Y-82468000D01*
X87301251Y-82463525D01*
X87302456Y-82462135D01*
X87304127Y-82454452D01*
X87304127Y-82449884D01*
X88304127Y-82449884D01*
X88308602Y-82465123D01*
X88309992Y-82466328D01*
X88317675Y-82467999D01*
X91048796Y-82467999D01*
X91055617Y-82467629D01*
X91106479Y-82462105D01*
X91121731Y-82458479D01*
X91242181Y-82413324D01*
X91257776Y-82404786D01*
X91359851Y-82328285D01*
X91372412Y-82315724D01*
X91448913Y-82213649D01*
X91457451Y-82198054D01*
X91502605Y-82077606D01*
X91506232Y-82062351D01*
X91511758Y-82011486D01*
X91512127Y-82004672D01*
X91512127Y-81421539D01*
X96602215Y-81421539D01*
X96608183Y-81429511D01*
X96675990Y-81472047D01*
X96683541Y-81476096D01*
X96931387Y-81588003D01*
X96939418Y-81590989D01*
X97200157Y-81668224D01*
X97208510Y-81670091D01*
X97477325Y-81711226D01*
X97485858Y-81711942D01*
X97757764Y-81716214D01*
X97766315Y-81715765D01*
X98036288Y-81683095D01*
X98044689Y-81681493D01*
X98307744Y-81612482D01*
X98315846Y-81609755D01*
X98567092Y-81505685D01*
X98574760Y-81501879D01*
X98696236Y-81430894D01*
X98705912Y-81420639D01*
X98702594Y-81412474D01*
X97666939Y-80376819D01*
X97652995Y-80369205D01*
X97651162Y-80369336D01*
X97644547Y-80373587D01*
X96608975Y-81409159D01*
X96602215Y-81421539D01*
X91512127Y-81421539D01*
X91512127Y-79639585D01*
X95592280Y-79639585D01*
X95607934Y-79911076D01*
X95609007Y-79919576D01*
X95661364Y-80186437D01*
X95663575Y-80194689D01*
X95751665Y-80451981D01*
X95754980Y-80459866D01*
X95877172Y-80702818D01*
X95877662Y-80703646D01*
X95886493Y-80710832D01*
X95900234Y-80703686D01*
X96934208Y-79669712D01*
X96940586Y-79658032D01*
X98366432Y-79658032D01*
X98366563Y-79659865D01*
X98370814Y-79666480D01*
X99407448Y-80703114D01*
X99419828Y-80709874D01*
X99426092Y-80705185D01*
X99527110Y-80519133D01*
X99530678Y-80511339D01*
X99626802Y-80256955D01*
X99629275Y-80248763D01*
X99689988Y-79983680D01*
X99691326Y-79975226D01*
X99715662Y-79702552D01*
X99715908Y-79697615D01*
X99716308Y-79659385D01*
X99716165Y-79654419D01*
X99697546Y-79381303D01*
X99696385Y-79372829D01*
X99641237Y-79106529D01*
X99638938Y-79098294D01*
X99548158Y-78841940D01*
X99544761Y-78834090D01*
X99430271Y-78612271D01*
X99420534Y-78602069D01*
X99413694Y-78604440D01*
X98374046Y-79644088D01*
X98366432Y-79658032D01*
X96940586Y-79658032D01*
X96941822Y-79655768D01*
X96941691Y-79653935D01*
X96937440Y-79647320D01*
X95900041Y-78609921D01*
X95887661Y-78603161D01*
X95881637Y-78607671D01*
X95772218Y-78814328D01*
X95768732Y-78822156D01*
X95675278Y-79077532D01*
X95672889Y-79085755D01*
X95614956Y-79351461D01*
X95613707Y-79359917D01*
X95592369Y-79631035D01*
X95592280Y-79639585D01*
X91512127Y-79639585D01*
X91512127Y-79578115D01*
X91507652Y-79562876D01*
X91506262Y-79561671D01*
X91498579Y-79560000D01*
X88322242Y-79560000D01*
X88307003Y-79564475D01*
X88305798Y-79565865D01*
X88304127Y-79573548D01*
X88304127Y-82449884D01*
X87304127Y-82449884D01*
X87304127Y-79578115D01*
X87299652Y-79562876D01*
X87298262Y-79561671D01*
X87290579Y-79560000D01*
X84114243Y-79560000D01*
X84099004Y-79564475D01*
X84097799Y-79565865D01*
X84096128Y-79573548D01*
X84096128Y-82004669D01*
X83816500Y-82004669D01*
X83816500Y-81367835D01*
X83816742Y-81360033D01*
X83820093Y-81306013D01*
X83820547Y-81298702D01*
X83809620Y-81235111D01*
X83808651Y-81228382D01*
X83802030Y-81171589D01*
X83802029Y-81171586D01*
X83801182Y-81164319D01*
X83797942Y-81155393D01*
X83792201Y-81133742D01*
X83790594Y-81124386D01*
X83765327Y-81065004D01*
X83762848Y-81058711D01*
X83740833Y-80998063D01*
X83735627Y-80990122D01*
X83725067Y-80970385D01*
X83724213Y-80968377D01*
X83724206Y-80968365D01*
X83721343Y-80961636D01*
X83717007Y-80955744D01*
X83717004Y-80955739D01*
X83683100Y-80909668D01*
X83679210Y-80904072D01*
X83675894Y-80899014D01*
X83643856Y-80850148D01*
X83636961Y-80843616D01*
X83622139Y-80826834D01*
X83616508Y-80819182D01*
X83601548Y-80806473D01*
X83562584Y-80747125D01*
X83557127Y-80710447D01*
X83557127Y-74359500D01*
X83577129Y-74291379D01*
X83630785Y-74244886D01*
X83683127Y-74233500D01*
X85669325Y-74233500D01*
X85731507Y-74226745D01*
X85832813Y-74188767D01*
X85903621Y-74183584D01*
X85951103Y-74204813D01*
X85985539Y-74229832D01*
X86042837Y-74271461D01*
X86055385Y-74280578D01*
X86061413Y-74283262D01*
X86061415Y-74283263D01*
X86079644Y-74291379D01*
X86202735Y-74346182D01*
X86256830Y-74392162D01*
X86277479Y-74460089D01*
X86258127Y-74528398D01*
X86245126Y-74545594D01*
X86213301Y-74580939D01*
X86123069Y-74737225D01*
X86121027Y-74743510D01*
X86081142Y-74866266D01*
X86067303Y-74908857D01*
X86066613Y-74915420D01*
X86066613Y-74915421D01*
X86052915Y-75045742D01*
X86048439Y-75088332D01*
X86067303Y-75267807D01*
X86069343Y-75274085D01*
X86069343Y-75274086D01*
X86074298Y-75289336D01*
X86123069Y-75439439D01*
X86136672Y-75463000D01*
X86153411Y-75531994D01*
X86130192Y-75599087D01*
X86074385Y-75642975D01*
X86027554Y-75652001D01*
X84559458Y-75652001D01*
X84552637Y-75652371D01*
X84501775Y-75657895D01*
X84486523Y-75661521D01*
X84366073Y-75706676D01*
X84350478Y-75715214D01*
X84248403Y-75791715D01*
X84235842Y-75804276D01*
X84159341Y-75906351D01*
X84150803Y-75921946D01*
X84105649Y-76042394D01*
X84102022Y-76057649D01*
X84096496Y-76108514D01*
X84096127Y-76115328D01*
X84096127Y-78541885D01*
X84100602Y-78557124D01*
X84101992Y-78558329D01*
X84109675Y-78560000D01*
X91494011Y-78560000D01*
X91509250Y-78555525D01*
X91510455Y-78554135D01*
X91512126Y-78546452D01*
X91512126Y-77893192D01*
X96602446Y-77893192D01*
X96605989Y-77901655D01*
X97641315Y-78936981D01*
X97655259Y-78944595D01*
X97657092Y-78944464D01*
X97663707Y-78940213D01*
X98699044Y-77904876D01*
X98705804Y-77892496D01*
X98700077Y-77884846D01*
X98613201Y-77831609D01*
X98605607Y-77827639D01*
X98356603Y-77718333D01*
X98348549Y-77715434D01*
X98087014Y-77640934D01*
X98078636Y-77639152D01*
X97809410Y-77600836D01*
X97800863Y-77600209D01*
X97528926Y-77598784D01*
X97520392Y-77599321D01*
X97250773Y-77634818D01*
X97242375Y-77636511D01*
X96980075Y-77708268D01*
X96971988Y-77711084D01*
X96721857Y-77817774D01*
X96714218Y-77821667D01*
X96612017Y-77882833D01*
X96602446Y-77893192D01*
X91512126Y-77893192D01*
X91512126Y-76335500D01*
X92136771Y-76335500D01*
X92155635Y-76514975D01*
X92211401Y-76686607D01*
X92301633Y-76842893D01*
X92422387Y-76977004D01*
X92568385Y-77083078D01*
X92574413Y-77085762D01*
X92574415Y-77085763D01*
X92727217Y-77153795D01*
X92733248Y-77156480D01*
X92821508Y-77175240D01*
X92903311Y-77192628D01*
X92903315Y-77192628D01*
X92909768Y-77194000D01*
X93090232Y-77194000D01*
X93096685Y-77192628D01*
X93096689Y-77192628D01*
X93178492Y-77175240D01*
X93266752Y-77156480D01*
X93272783Y-77153795D01*
X93425585Y-77085763D01*
X93425587Y-77085762D01*
X93431615Y-77083078D01*
X93577613Y-76977004D01*
X93698367Y-76842893D01*
X93788599Y-76686607D01*
X93844365Y-76514975D01*
X93862594Y-76341539D01*
X96602215Y-76341539D01*
X96608183Y-76349511D01*
X96675990Y-76392047D01*
X96683541Y-76396096D01*
X96931387Y-76508003D01*
X96939418Y-76510989D01*
X97200157Y-76588224D01*
X97208510Y-76590091D01*
X97477325Y-76631226D01*
X97485858Y-76631942D01*
X97757764Y-76636214D01*
X97766315Y-76635765D01*
X98036288Y-76603095D01*
X98044689Y-76601493D01*
X98307744Y-76532482D01*
X98315846Y-76529755D01*
X98567092Y-76425685D01*
X98574760Y-76421879D01*
X98696236Y-76350894D01*
X98705912Y-76340639D01*
X98702594Y-76332474D01*
X97666939Y-75296819D01*
X97652995Y-75289205D01*
X97651162Y-75289336D01*
X97644547Y-75293587D01*
X96608975Y-76329159D01*
X96602215Y-76341539D01*
X93862594Y-76341539D01*
X93863229Y-76335500D01*
X93844365Y-76156025D01*
X93788599Y-75984393D01*
X93698367Y-75828107D01*
X93682064Y-75810000D01*
X93582035Y-75698907D01*
X93582034Y-75698906D01*
X93577613Y-75693996D01*
X93532917Y-75661522D01*
X93436957Y-75591803D01*
X93436956Y-75591802D01*
X93431615Y-75587922D01*
X93425587Y-75585238D01*
X93425585Y-75585237D01*
X93272783Y-75517205D01*
X93272781Y-75517205D01*
X93266752Y-75514520D01*
X93178492Y-75495760D01*
X93096689Y-75478372D01*
X93096685Y-75478372D01*
X93090232Y-75477000D01*
X92909768Y-75477000D01*
X92903315Y-75478372D01*
X92903311Y-75478372D01*
X92821508Y-75495760D01*
X92733248Y-75514520D01*
X92727219Y-75517204D01*
X92727217Y-75517205D01*
X92574416Y-75585237D01*
X92574414Y-75585238D01*
X92568386Y-75587922D01*
X92563045Y-75591802D01*
X92563044Y-75591803D01*
X92427731Y-75690113D01*
X92427729Y-75690115D01*
X92422387Y-75693996D01*
X92417966Y-75698906D01*
X92417965Y-75698907D01*
X92317937Y-75810000D01*
X92301633Y-75828107D01*
X92211401Y-75984393D01*
X92155635Y-76156025D01*
X92136771Y-76335500D01*
X91512126Y-76335500D01*
X91512126Y-76115331D01*
X91511756Y-76108510D01*
X91506232Y-76057648D01*
X91502606Y-76042396D01*
X91457451Y-75921946D01*
X91448913Y-75906351D01*
X91372412Y-75804276D01*
X91359851Y-75791715D01*
X91257776Y-75715214D01*
X91242181Y-75706676D01*
X91121733Y-75661522D01*
X91106478Y-75657895D01*
X91055613Y-75652369D01*
X91048799Y-75652000D01*
X88861247Y-75652000D01*
X88793126Y-75631998D01*
X88746633Y-75578342D01*
X88736529Y-75508068D01*
X88752128Y-75463000D01*
X88790807Y-75396007D01*
X88790808Y-75396006D01*
X88794111Y-75390284D01*
X88833906Y-75267807D01*
X88847837Y-75224931D01*
X88847837Y-75224930D01*
X88849877Y-75218652D01*
X88862885Y-75094897D01*
X88868051Y-75045742D01*
X88868741Y-75039177D01*
X88849877Y-74859702D01*
X88794111Y-74688070D01*
X88719930Y-74559585D01*
X95592280Y-74559585D01*
X95607934Y-74831076D01*
X95609007Y-74839576D01*
X95661364Y-75106437D01*
X95663575Y-75114689D01*
X95751665Y-75371981D01*
X95754980Y-75379866D01*
X95877172Y-75622818D01*
X95877662Y-75623646D01*
X95886493Y-75630832D01*
X95900234Y-75623686D01*
X96934208Y-74589712D01*
X96940586Y-74578032D01*
X98366432Y-74578032D01*
X98366563Y-74579865D01*
X98370814Y-74586480D01*
X99407448Y-75623114D01*
X99419828Y-75629874D01*
X99426092Y-75625185D01*
X99527110Y-75439133D01*
X99530678Y-75431339D01*
X99626802Y-75176955D01*
X99629275Y-75168763D01*
X99689988Y-74903680D01*
X99691326Y-74895226D01*
X99715662Y-74622552D01*
X99715908Y-74617615D01*
X99716308Y-74579385D01*
X99716165Y-74574419D01*
X99697546Y-74301303D01*
X99696385Y-74292829D01*
X99641237Y-74026529D01*
X99638938Y-74018294D01*
X99548158Y-73761940D01*
X99544761Y-73754090D01*
X99430271Y-73532271D01*
X99420534Y-73522069D01*
X99413694Y-73524440D01*
X98374046Y-74564088D01*
X98366432Y-74578032D01*
X96940586Y-74578032D01*
X96941822Y-74575768D01*
X96941691Y-74573935D01*
X96937440Y-74567320D01*
X95900041Y-73529921D01*
X95887661Y-73523161D01*
X95881637Y-73527671D01*
X95772218Y-73734328D01*
X95768732Y-73742156D01*
X95675278Y-73997532D01*
X95672889Y-74005755D01*
X95614956Y-74271461D01*
X95613707Y-74279917D01*
X95592369Y-74551035D01*
X95592280Y-74559585D01*
X88719930Y-74559585D01*
X88703879Y-74531784D01*
X88624667Y-74443810D01*
X88593949Y-74379803D01*
X88602714Y-74309349D01*
X88648177Y-74254818D01*
X88718303Y-74233500D01*
X89969325Y-74233500D01*
X90031507Y-74226745D01*
X90078777Y-74209024D01*
X90159492Y-74178766D01*
X90159495Y-74178764D01*
X90167896Y-74175615D01*
X90171573Y-74172859D01*
X90229655Y-74158000D01*
X91558127Y-74158000D01*
X91558127Y-73014000D01*
X91578129Y-72945879D01*
X91631785Y-72899386D01*
X91684127Y-72888000D01*
X96672334Y-72888000D01*
X97641315Y-73856981D01*
X97655259Y-73864595D01*
X97657092Y-73864464D01*
X97663707Y-73860213D01*
X98635920Y-72888000D01*
X100448127Y-72888000D01*
X103869151Y-72643641D01*
X103938523Y-72658739D01*
G37*
%TD.AperFunction*%
%TD*%
%TA.AperFunction,Conductor*%
%TO.N,BATTN*%
G36*
X83543268Y-62748002D02*
G01*
X83589761Y-62801658D01*
X83600457Y-62867170D01*
X83586496Y-63000000D01*
X83606458Y-63189928D01*
X83665473Y-63371556D01*
X83760960Y-63536944D01*
X83765375Y-63541847D01*
X83804646Y-63585462D01*
X83835363Y-63649470D01*
X83826598Y-63719924D01*
X83781135Y-63774454D01*
X83713407Y-63795749D01*
X83698382Y-63795138D01*
X83693048Y-63794601D01*
X83634860Y-63792060D01*
X83632108Y-63792000D01*
X82539306Y-63792000D01*
X82524067Y-63796475D01*
X82522862Y-63797865D01*
X82521191Y-63805548D01*
X82521191Y-70789884D01*
X82525666Y-70805123D01*
X82527056Y-70806328D01*
X82534739Y-70807999D01*
X82718276Y-70807999D01*
X82786397Y-70828001D01*
X82832890Y-70881657D01*
X82842994Y-70951931D01*
X82813500Y-71016511D01*
X82793841Y-71034825D01*
X82757930Y-71061739D01*
X82670576Y-71178295D01*
X82619446Y-71314684D01*
X82612691Y-71376866D01*
X82612691Y-72508000D01*
X82592689Y-72576121D01*
X82539033Y-72622614D01*
X82486691Y-72634000D01*
X78866000Y-72634000D01*
X78797879Y-72613998D01*
X78751386Y-72560342D01*
X78740000Y-72508000D01*
X78740000Y-71374000D01*
X71364127Y-71374000D01*
X71296006Y-71353998D01*
X71249513Y-71300342D01*
X71238127Y-71248000D01*
X71238127Y-70073325D01*
X71258129Y-70005204D01*
X71311785Y-69958711D01*
X71382059Y-69948607D01*
X71430242Y-69966065D01*
X71562865Y-70047814D01*
X71576051Y-70053963D01*
X71730339Y-70105139D01*
X71738234Y-70106831D01*
X71750803Y-70104498D01*
X71754127Y-70092262D01*
X71754127Y-70090843D01*
X72754127Y-70090843D01*
X72758331Y-70105160D01*
X72769395Y-70106974D01*
X72779227Y-70104851D01*
X72933411Y-70053412D01*
X72946589Y-70047239D01*
X73084434Y-69961937D01*
X73095835Y-69952901D01*
X73210366Y-69838171D01*
X73219378Y-69826760D01*
X73304443Y-69688757D01*
X73310590Y-69675576D01*
X73361765Y-69521290D01*
X73364632Y-69507914D01*
X73374299Y-69413562D01*
X73374627Y-69407146D01*
X73374627Y-68910915D01*
X78513192Y-68910915D01*
X78513252Y-68913672D01*
X78515792Y-68971855D01*
X78516508Y-68978972D01*
X78559190Y-69248453D01*
X78561169Y-69257023D01*
X78640695Y-69517143D01*
X78643846Y-69525353D01*
X78758804Y-69771882D01*
X78763067Y-69779572D01*
X78911215Y-70007700D01*
X78916505Y-70014719D01*
X79094974Y-70220024D01*
X79101167Y-70226217D01*
X79306472Y-70404686D01*
X79313491Y-70409976D01*
X79541619Y-70558124D01*
X79549309Y-70562387D01*
X79795838Y-70677345D01*
X79804048Y-70680496D01*
X80064168Y-70760022D01*
X80072738Y-70762001D01*
X80342235Y-70804685D01*
X80349319Y-70805399D01*
X80407522Y-70807940D01*
X80410274Y-70808000D01*
X81503076Y-70808000D01*
X81518315Y-70803525D01*
X81519520Y-70802135D01*
X81521191Y-70794452D01*
X81521191Y-67818115D01*
X81516716Y-67802876D01*
X81515326Y-67801671D01*
X81507643Y-67800000D01*
X78531307Y-67800000D01*
X78516068Y-67804475D01*
X78514863Y-67805865D01*
X78513192Y-67813548D01*
X78513192Y-68910915D01*
X73374627Y-68910915D01*
X73374627Y-68453115D01*
X73370152Y-68437876D01*
X73368762Y-68436671D01*
X73361079Y-68435000D01*
X72772242Y-68435000D01*
X72757003Y-68439475D01*
X72755798Y-68440865D01*
X72754127Y-68448548D01*
X72754127Y-70090843D01*
X71754127Y-70090843D01*
X71754127Y-67416885D01*
X72754127Y-67416885D01*
X72758602Y-67432124D01*
X72759992Y-67433329D01*
X72767675Y-67435000D01*
X73356511Y-67435000D01*
X73371750Y-67430525D01*
X73372955Y-67429135D01*
X73374626Y-67421452D01*
X73374626Y-66781885D01*
X78513191Y-66781885D01*
X78517666Y-66797124D01*
X78519056Y-66798329D01*
X78526739Y-66800000D01*
X81503076Y-66800000D01*
X81518315Y-66795525D01*
X81519520Y-66794135D01*
X81521191Y-66786452D01*
X81521191Y-63810116D01*
X81516716Y-63794877D01*
X81515326Y-63793672D01*
X81507643Y-63792001D01*
X80410277Y-63792001D01*
X80407519Y-63792061D01*
X80349336Y-63794601D01*
X80342219Y-63795317D01*
X80072738Y-63837999D01*
X80064168Y-63839978D01*
X79804048Y-63919504D01*
X79795838Y-63922655D01*
X79549309Y-64037613D01*
X79541619Y-64041876D01*
X79313491Y-64190024D01*
X79306472Y-64195314D01*
X79101167Y-64373783D01*
X79094974Y-64379976D01*
X78916505Y-64585281D01*
X78911215Y-64592300D01*
X78763067Y-64820428D01*
X78758804Y-64828118D01*
X78643846Y-65074647D01*
X78640695Y-65082857D01*
X78561169Y-65342977D01*
X78559190Y-65351547D01*
X78516506Y-65621044D01*
X78515792Y-65628128D01*
X78513251Y-65686331D01*
X78513191Y-65689083D01*
X78513191Y-66781885D01*
X73374626Y-66781885D01*
X73374626Y-66462905D01*
X73374289Y-66456386D01*
X73364370Y-66360794D01*
X73361478Y-66347400D01*
X73310039Y-66193216D01*
X73303866Y-66180038D01*
X73218564Y-66042193D01*
X73209528Y-66030792D01*
X73094798Y-65916261D01*
X73083387Y-65907249D01*
X72945384Y-65822184D01*
X72932203Y-65816037D01*
X72777915Y-65764861D01*
X72770020Y-65763169D01*
X72757451Y-65765502D01*
X72754127Y-65777738D01*
X72754127Y-67416885D01*
X71754127Y-67416885D01*
X71754127Y-65779157D01*
X71749923Y-65764840D01*
X71738859Y-65763026D01*
X71729027Y-65765149D01*
X71574843Y-65816588D01*
X71561669Y-65822760D01*
X71430431Y-65903973D01*
X71361979Y-65922811D01*
X71294209Y-65901650D01*
X71248638Y-65847210D01*
X71238127Y-65796829D01*
X71238127Y-62854000D01*
X71258129Y-62785879D01*
X71311785Y-62739386D01*
X71364127Y-62728000D01*
X83475147Y-62728000D01*
X83543268Y-62748002D01*
G37*
%TD.AperFunction*%
%TD*%
M02*
